{"glyphs":{"0":{"ha":486,"x_min":21,"x_max":476,"o":"m 292 674 q 319 675 300 675 q 347 672 339 675 q 386 658 365 669 q 449 581 431 632 q 453 551 456 564 q 429 514 449 533 q 419 501 419 503 q 429 506 419 500 q 458 526 444 513 q 465 532 464 532 q 469 504 465 532 q 475 444 478 461 q 433 394 468 411 l 422 386 q 443 389 426 385 q 468 399 460 393 q 476 402 475 403 q 474 394 476 401 q 468 357 472 388 q 457 290 463 301 q 403 250 443 260 q 396 247 396 249 q 403 245 396 246 q 419 246 410 244 q 438 249 429 247 q 447 251 446 251 q 422 185 451 247 q 328 53 382 97 q 214 1 276 11 q 177 1 201 0 q 136 6 153 1 q 50 78 79 21 q 24 169 31 113 q 22 231 21 185 q 24 294 22 276 q 126 574 47 468 q 292 674 190 660 m 325 611 q 311 615 319 615 q 282 607 297 615 q 211 521 243 585 q 165 385 186 474 q 132 232 140 286 q 125 118 118 157 q 147 63 132 85 q 178 40 161 40 q 225 65 201 40 q 278 169 253 93 q 325 364 303 242 q 346 522 343 458 q 325 611 347 590 z "},"1":{"ha":333,"x_min":-29,"x_max":325,"o":"m 258 649 q 299 650 274 650 l 325 650 l 317 643 q 286 590 294 624 q 260 476 268 508 q 244 440 253 450 q 210 418 236 431 l 196 411 q 203 411 196 410 q 222 417 211 413 l 239 424 l 244 426 l 249 428 l 250 429 q 247 419 250 428 q 238 382 244 411 q 220 330 226 340 q 190 307 214 319 l 175 299 l 183 299 q 211 308 197 300 q 223 315 222 315 q 220 303 224 314 q 208 263 217 292 q 186 200 197 217 q 157 176 178 188 l 147 169 l 149 169 q 181 181 161 169 q 189 185 188 186 q 177 137 189 181 q 157 74 165 93 q 138 47 150 54 l 132 43 l 140 42 q 197 49 165 35 q 208 52 207 53 q 200 39 208 51 q 188 21 192 26 q 161 3 178 10 q 125 1 153 0 q 76 5 97 1 q 33 8 54 8 q -7 5 11 8 q -28 0 -25 1 l -29 8 q -22 33 -28 21 q 8 65 -15 49 q 37 88 31 79 q 47 119 43 97 q 129 456 103 357 q 144 488 136 481 q 153 500 151 496 l 156 504 l 150 501 q 114 494 128 489 q 99 519 100 499 q 122 583 97 550 q 258 649 167 640 z "},"2":{"ha":514,"x_min":-15,"x_max":526,"o":"m 308 668 q 341 669 315 669 q 375 667 367 668 q 447 639 414 661 q 479 614 472 624 q 456 567 492 597 l 453 564 l 456 565 q 486 583 471 568 l 494 592 l 501 581 q 522 528 522 549 q 467 457 522 483 l 456 451 l 465 451 q 519 471 492 451 l 526 475 q 521 453 526 474 q 513 425 515 433 q 433 335 490 371 q 269 243 361 288 q 188 196 224 221 q 99 124 131 160 l 90 114 l 99 118 q 172 139 128 131 q 215 141 185 140 q 256 140 244 142 q 294 134 268 139 q 344 129 319 129 q 372 131 364 129 q 397 142 379 132 q 429 168 421 153 q 436 178 435 178 q 441 156 440 175 q 439 124 442 138 q 419 67 433 97 q 357 8 400 22 q 267 1 325 -3 q 151 19 224 4 q 99 28 119 26 q 43 22 68 28 q 3 4 19 17 q -6 0 -4 0 q -15 22 -10 0 q -12 68 -19 39 q 65 203 7 144 q 174 279 106 243 q 306 357 271 329 q 358 419 338 383 q 389 511 388 469 q 365 586 390 560 q 290 615 335 615 q 179 556 208 615 q 179 506 165 528 l 182 500 l 185 506 q 212 525 192 518 q 246 526 232 532 q 272 489 267 515 q 267 439 276 465 q 242 396 258 413 q 197 366 225 381 q 151 349 168 351 l 144 349 l 147 357 q 144 411 153 379 q 133 450 140 426 q 119 524 118 494 q 132 574 121 553 q 169 623 150 607 q 224 651 189 639 q 288 667 260 664 q 308 668 304 668 z "},"3":{"ha":472,"x_min":-7,"x_max":465,"o":"m 258 668 q 289 668 265 669 q 399 633 349 668 q 428 600 429 613 q 406 572 425 588 q 399 565 397 565 q 412 569 401 564 q 430 582 422 574 q 438 590 438 590 q 447 576 439 590 q 465 536 463 553 q 460 500 468 519 q 410 456 444 471 q 401 451 401 453 q 406 450 401 450 q 416 451 410 450 q 426 454 422 453 q 447 466 435 458 q 459 474 458 474 q 458 469 460 474 q 453 457 456 464 q 449 446 450 450 q 418 409 443 435 q 379 374 393 383 q 326 353 351 356 l 315 353 l 333 340 q 393 274 393 299 q 367 242 393 256 l 361 239 l 369 239 q 399 256 386 242 l 404 261 q 415 222 411 254 q 406 161 422 185 q 383 138 396 146 q 347 125 371 131 l 342 125 l 346 124 q 390 129 365 118 q 397 131 396 131 q 375 96 399 128 q 336 54 358 72 q 215 3 288 15 q 117 1 169 -4 q 69 15 90 6 q 21 54 42 29 q -7 108 0 79 q 0 186 -17 146 q 19 216 7 204 q 64 251 31 228 q 126 310 114 285 q 135 317 132 319 q 144 306 138 315 q 170 253 160 283 q 179 206 181 222 q 150 136 175 161 q 121 118 138 122 q 82 129 99 113 q 69 151 74 138 q 67 174 64 165 q 67 177 68 176 q 64 176 67 178 q 50 161 54 172 q 58 104 42 136 q 84 76 65 89 q 124 58 103 63 q 181 60 150 51 q 239 90 219 69 q 272 136 258 111 q 288 214 289 171 q 235 339 283 292 q 222 352 222 351 q 228 353 222 353 q 266 372 240 356 q 308 407 292 389 q 346 476 335 433 q 347 513 347 486 q 339 569 347 554 q 310 597 332 583 q 264 617 289 610 q 164 606 215 631 q 138 583 151 599 q 119 550 125 567 q 117 530 117 543 q 121 508 117 517 q 128 503 128 494 q 133 511 128 506 q 144 518 139 517 q 171 517 160 522 q 182 504 176 514 q 193 467 194 485 q 189 444 193 453 q 174 424 185 435 q 117 381 143 393 q 89 372 93 369 q 91 383 89 374 q 93 397 93 392 q 82 443 93 415 q 67 486 69 474 q 65 522 64 499 q 69 558 65 546 q 89 593 74 571 q 128 633 106 619 q 194 660 150 647 q 258 668 217 665 z "},"4":{"ha":514,"x_min":-15,"x_max":519,"o":"m 254 663 q 289 663 269 665 q 344 635 322 656 q 363 556 378 601 q 321 485 354 529 q 229 378 288 439 q 132 267 158 301 q 104 229 104 232 q 111 232 104 228 q 188 253 142 247 q 243 256 199 254 q 294 260 288 257 q 307 275 303 263 q 333 379 311 288 q 361 463 350 444 q 454 521 390 507 q 510 526 483 526 l 519 526 l 507 514 q 453 404 471 475 q 422 271 443 363 l 415 236 l 422 236 q 452 244 431 236 q 489 261 474 251 q 497 265 496 265 q 494 254 499 265 q 483 229 490 243 q 469 207 475 215 q 432 168 451 181 q 410 157 424 163 l 396 153 l 393 143 q 386 114 390 133 q 351 44 372 54 q 353 43 349 43 q 357 42 354 42 q 414 49 382 35 q 424 52 424 53 q 418 40 425 51 q 378 3 400 10 q 342 1 371 0 q 292 5 314 1 q 249 8 271 8 q 210 5 228 8 q 189 0 192 1 q 189 11 186 -1 l 189 17 q 200 43 193 33 q 226 67 207 53 q 251 88 244 79 q 264 113 258 97 q 272 141 267 124 q 276 160 278 158 q 238 169 272 164 q 138 168 196 175 q -1 140 51 157 q -15 138 -14 138 q 1 178 -18 140 q 88 300 25 224 q 133 356 114 332 q 172 403 153 381 q 250 522 236 478 q 258 565 258 546 q 249 601 258 582 q 213 639 236 628 l 204 644 l 206 646 q 254 663 222 658 z "},"5":{"ha":472,"x_min":-7,"x_max":435,"o":"m 429 674 q 432 675 431 675 q 435 653 436 675 q 394 549 429 582 q 332 526 368 525 q 236 558 300 528 q 174 582 189 581 q 157 579 164 582 q 142 558 147 574 q 113 457 136 543 l 104 429 l 113 436 q 172 467 139 457 q 208 471 185 469 q 308 447 253 472 q 364 410 356 426 q 354 372 374 390 q 348 365 347 365 q 356 368 349 365 q 375 386 367 375 l 379 390 l 386 379 q 403 357 396 367 q 410 313 419 332 q 379 288 401 296 l 381 285 q 414 301 396 288 q 422 306 421 306 q 425 289 422 306 q 431 260 428 272 q 414 201 438 222 q 375 181 397 185 q 371 175 361 178 q 419 181 396 168 q 426 183 425 183 q 424 172 428 183 q 414 147 419 161 q 404 125 408 133 q 367 73 388 93 q 314 36 347 53 q 206 1 263 10 q 119 4 158 -4 q 4 89 36 22 q -7 135 -7 111 q 7 197 -7 171 q 60 246 18 218 q 114 288 101 275 q 133 317 131 306 q 142 314 135 321 q 167 268 154 299 q 182 218 179 238 q 165 153 185 186 q 135 124 153 132 q 113 118 126 119 q 85 131 96 118 q 71 153 76 139 q 69 175 65 168 q 70 178 71 178 q 64 175 69 178 q 51 154 54 169 q 56 117 50 139 q 77 83 61 100 q 114 56 93 67 q 232 81 171 26 q 275 140 257 103 q 304 236 299 186 q 296 321 310 286 q 221 386 275 372 q 156 389 193 393 q 76 364 118 385 q 55 355 56 354 q 61 383 54 356 q 97 526 71 418 q 124 640 124 635 q 121 649 124 644 q 119 653 118 651 q 129 656 121 654 q 168 649 143 657 q 283 635 218 635 q 388 647 354 635 q 411 660 394 650 q 429 674 428 671 z "},"6":{"ha":500,"x_min":28,"x_max":460,"o":"m 325 668 q 389 661 363 672 q 450 608 432 643 q 460 569 460 589 q 414 482 460 526 q 397 447 397 465 q 396 436 397 436 q 376 450 393 436 q 339 503 350 472 q 340 564 328 538 q 363 586 347 582 q 390 579 378 590 q 401 544 407 565 l 403 547 q 400 582 410 561 q 377 607 394 596 q 344 618 360 618 q 307 605 328 618 q 272 572 286 592 q 224 486 246 539 q 210 450 219 476 q 202 423 201 424 q 215 428 203 422 q 296 443 253 444 q 364 425 335 442 q 392 400 381 415 q 401 375 403 385 q 383 354 399 363 l 378 350 q 403 365 386 350 l 411 372 l 413 369 q 438 326 431 340 q 442 307 442 319 q 438 288 442 294 q 408 263 429 272 q 396 257 397 257 q 393 256 394 257 l 411 257 q 421 260 415 258 q 440 268 432 264 l 447 272 l 446 253 q 443 197 444 204 q 381 144 432 163 l 368 139 q 376 138 369 138 q 418 142 390 135 q 431 144 429 144 q 407 101 433 140 q 350 42 385 68 q 268 4 315 15 q 221 1 253 0 q 172 6 189 1 q 101 43 129 17 q 31 181 46 97 q 28 224 29 193 q 29 271 28 256 q 58 414 36 339 q 111 532 79 481 q 219 639 163 611 q 325 668 264 663 m 283 386 q 261 392 275 392 q 193 356 226 392 q 149 271 161 322 q 142 210 142 240 q 156 136 143 172 q 186 93 164 110 q 233 78 208 76 q 267 93 251 79 q 319 217 313 138 q 321 269 321 232 q 319 319 321 306 q 283 386 314 371 z "},"7":{"ha":444,"x_min":1,"x_max":453,"o":"m 129 654 q 165 654 143 656 q 257 639 189 653 q 346 629 328 626 q 385 644 367 632 q 407 655 399 654 q 431 647 415 656 q 447 642 442 642 q 453 638 453 640 q 449 620 453 635 q 443 592 446 606 q 351 393 424 490 q 261 268 285 306 q 214 169 232 218 q 196 103 207 149 q 174 37 183 53 q 147 13 165 21 q 63 0 114 -1 q 1 7 7 1 l 6 11 q 22 28 17 17 q 32 61 24 32 q 58 140 44 110 q 132 276 99 226 q 219 382 165 329 q 311 474 285 444 q 357 533 338 504 q 365 548 360 539 q 373 563 369 557 q 376 569 376 569 q 368 564 375 569 q 297 535 340 543 q 256 532 285 533 q 157 540 215 532 q 65 538 90 549 q 49 510 49 531 q 47 504 49 504 q 35 532 43 504 q 33 578 28 556 q 62 624 42 604 q 108 650 82 643 q 129 654 119 653 z "},"8":{"ha":458,"x_min":-14,"x_max":453,"o":"m 244 664 q 300 663 264 668 q 413 614 388 649 q 418 598 419 604 q 406 581 417 592 q 399 572 396 571 q 422 588 410 575 q 431 596 431 596 q 432 594 432 596 q 440 574 432 593 q 453 535 453 547 q 424 494 453 510 q 410 489 413 489 q 410 488 408 489 q 424 488 413 486 q 443 494 436 490 l 450 497 q 442 474 451 496 q 429 443 433 451 q 322 371 400 386 l 310 369 l 318 363 q 371 304 353 338 q 375 290 375 296 q 347 261 372 271 l 342 258 l 349 258 q 381 269 364 258 l 388 274 l 389 269 q 394 250 389 265 q 403 206 403 221 q 399 185 403 193 q 346 149 386 160 l 335 144 l 336 144 q 354 143 339 143 q 381 147 369 143 q 396 151 393 151 q 399 149 399 153 q 394 136 397 146 q 349 63 381 94 q 225 3 304 18 q 177 0 210 0 q 128 4 144 0 q 78 21 100 10 q -14 147 3 58 q 14 267 -26 213 q 108 346 38 299 q 138 364 132 363 q 140 366 139 365 q 142 368 142 367 q 132 381 140 369 q 101 428 114 404 q 86 483 88 457 q 111 578 83 531 q 244 664 154 651 m 288 621 q 261 624 272 625 q 214 598 235 619 q 188 546 193 576 q 193 478 182 508 q 244 414 206 444 q 258 410 251 408 q 293 422 275 413 q 356 522 356 456 q 326 596 356 567 q 288 621 307 615 m 185 319 q 139 303 172 325 q 72 215 89 269 q 69 162 63 188 q 99 109 75 136 q 151 71 124 82 q 186 64 168 64 q 215 74 203 65 q 244 113 232 85 q 258 176 256 142 q 226 275 261 225 q 204 300 219 283 q 185 319 189 317 z "},"9":{"ha":486,"x_min":21,"x_max":456,"o":"m 239 663 q 300 663 272 667 q 371 635 339 656 q 407 597 394 619 q 415 563 418 576 q 389 525 413 543 l 383 522 l 390 525 q 422 547 406 531 q 433 557 432 557 q 435 548 433 557 q 442 522 436 539 q 449 496 449 506 q 446 479 450 486 q 410 446 436 458 l 399 439 l 400 439 q 447 456 424 439 q 455 460 454 460 q 456 426 456 460 q 452 376 456 389 q 433 349 449 363 q 411 333 424 339 q 391 325 399 326 q 383 322 383 324 q 392 319 383 321 q 436 328 411 318 q 447 331 447 332 q 444 322 447 329 q 426 267 436 303 q 361 106 401 168 q 203 1 299 14 q 164 1 192 0 q 122 3 136 1 q 78 17 94 8 q 33 60 47 32 q 21 108 22 81 q 33 179 19 140 q 39 211 39 200 q 32 238 39 225 q 28 244 28 243 l 33 244 l 47 243 l 63 240 q 129 203 101 231 q 158 157 150 182 q 158 113 167 132 q 126 89 150 89 q 83 122 92 89 l 82 128 l 81 122 q 79 111 79 119 q 81 99 79 103 q 108 67 86 82 q 150 53 124 56 q 218 76 189 49 q 265 174 246 106 q 278 238 281 226 l 278 242 l 269 238 q 172 224 224 214 q 99 261 129 231 q 44 364 56 306 q 43 404 43 378 q 44 446 43 431 q 63 517 51 485 q 182 649 97 615 q 239 663 207 658 m 281 601 q 231 594 263 610 q 195 568 208 583 q 168 522 182 553 q 149 469 156 497 q 149 328 131 401 q 164 297 154 306 q 215 279 186 279 q 265 304 242 279 q 317 411 303 343 q 324 481 324 440 q 303 579 325 540 q 281 601 293 596 z "}," ":{"ha":361,"x_min":0,"x_max":0,"o":""},"!":{"ha":208,"x_min":-29,"x_max":263,"o":"m 125 121 q 129 121 129 126 q 125 103 129 114 q 86 42 111 61 q 40 26 64 25 q 19 32 25 28 q 14 49 14 36 q 38 76 14 71 q 42 79 44 78 q 36 79 40 81 q 15 59 22 75 q 14 33 7 43 q 38 23 21 24 q 72 32 56 22 q 106 57 89 39 q 117 69 115 69 q 115 60 118 69 q 58 4 99 19 q 4 3 29 -6 q -21 20 -12 8 q -29 54 -29 32 q -25 79 -28 69 q 10 115 -14 108 q 64 114 24 121 q 117 114 103 107 q 125 121 122 118 m 228 651 l 231 651 l 232 651 l 233 653 l 263 658 q 256 650 263 657 q 225 583 236 631 q 206 517 221 567 q 140 282 175 421 q 111 181 121 207 q 89 149 101 156 q 50 149 68 138 q 36 160 44 151 q 28 171 28 169 q 36 172 28 172 q 61 194 54 172 q 64 274 63 203 q 75 492 67 475 q 103 513 81 500 q 116 519 110 515 q 125 526 122 524 q 127 528 128 528 q 122 526 126 529 q 94 528 108 519 q 83 574 74 543 q 106 608 90 596 q 165 636 122 622 q 228 651 186 643 z "},"\"":{"ha":444,"x_min":83,"x_max":433,"o":"m 167 622 q 200 619 185 624 q 242 582 226 614 l 247 574 l 246 553 q 243 517 246 531 q 201 440 232 469 q 125 404 168 407 q 98 407 113 404 q 83 414 83 410 q 90 417 83 415 q 125 432 103 419 q 154 453 147 444 q 178 496 168 467 q 186 543 188 525 q 160 575 182 575 q 139 563 149 575 q 138 547 131 553 q 154 549 143 542 q 171 550 167 558 q 172 519 176 536 q 157 500 169 511 q 111 485 129 472 q 89 522 93 496 q 101 578 85 549 q 167 622 125 619 m 339 638 q 362 639 344 639 q 388 633 379 639 q 411 613 406 625 q 410 585 417 599 q 403 578 406 579 l 400 575 l 403 575 q 421 589 410 575 q 429 599 428 599 q 433 585 431 599 q 429 511 442 550 q 389 443 417 472 q 326 406 361 414 q 276 406 301 399 q 263 411 265 408 q 265 414 261 413 q 271 415 268 415 q 307 432 286 419 q 338 456 328 444 q 368 524 358 478 q 365 572 374 554 q 336 588 354 592 q 318 569 328 585 q 321 556 313 561 q 336 560 326 551 q 356 553 351 572 q 353 521 360 535 q 337 503 349 514 q 318 489 325 492 q 279 501 296 478 q 268 540 268 517 q 281 588 268 565 q 339 638 303 629 z "},"#":{"ha":500,"x_min":47,"x_max":472,"o":"m 283 583 q 304 583 290 585 q 319 581 318 582 q 313 569 319 578 q 274 486 288 538 q 260 419 260 431 l 279 419 l 300 424 q 354 553 328 517 q 375 574 367 568 q 404 583 389 583 q 428 581 428 583 q 421 568 428 578 q 383 486 394 535 q 368 417 368 428 l 390 417 l 425 421 q 464 438 449 426 q 472 441 471 442 q 470 428 474 440 q 463 408 467 415 q 408 365 450 381 q 361 353 390 358 l 356 351 l 347 314 l 339 276 l 361 276 q 394 281 383 278 q 433 297 418 288 q 441 301 440 301 q 439 288 442 300 q 432 269 436 275 q 397 235 424 249 q 340 215 376 222 l 325 211 l 321 197 q 285 104 303 140 q 260 68 275 85 q 235 49 246 51 q 212 47 226 46 q 194 50 197 47 q 199 57 194 51 q 223 96 210 68 q 242 147 236 124 q 254 208 256 206 q 235 210 253 208 l 215 210 l 213 197 q 176 103 194 138 q 153 69 168 86 q 128 49 139 53 q 107 46 121 46 q 89 49 93 46 l 86 51 l 90 57 q 114 94 101 68 q 132 144 126 121 q 144 211 147 208 l 125 211 l 94 208 q 53 189 61 200 q 49 186 50 186 q 48 194 47 188 q 52 210 49 200 q 58 225 56 219 q 113 264 75 253 q 153 275 136 272 l 158 275 l 167 314 l 175 351 l 168 351 q 121 347 147 354 q 83 329 92 339 q 78 331 78 324 q 88 363 78 342 q 139 404 101 389 q 182 415 161 411 l 189 415 l 193 429 q 231 529 214 497 q 265 574 249 561 q 274 578 271 576 q 283 583 276 581 m 272 349 q 253 350 260 350 q 244 347 246 350 q 232 281 232 289 q 250 279 232 279 l 269 279 l 275 314 l 283 349 l 272 349 z "},"$":{"ha":486,"x_min":0,"x_max":486,"o":"m 336 665 q 345 666 344 667 q 343 661 346 665 q 328 619 338 651 q 322 599 322 601 q 332 594 321 597 q 390 565 367 588 q 408 556 400 557 q 445 556 424 551 q 481 571 467 561 q 486 571 486 576 q 483 557 486 568 q 460 498 475 528 q 431 454 444 468 q 393 436 414 439 q 350 456 364 431 q 347 489 340 469 q 365 514 354 507 l 371 517 l 368 525 q 356 551 365 543 q 324 567 346 560 l 314 569 l 311 560 q 283 454 308 550 l 257 360 l 268 350 q 344 261 325 297 q 354 133 376 200 q 258 31 331 67 q 171 6 217 10 q 156 4 157 4 q 151 -15 156 4 q 136 -50 143 -43 q 111 -61 129 -58 q 102 -62 103 -62 q 106 -54 101 -61 q 114 -36 111 -47 q 125 4 126 0 q 115 6 124 6 q 94 11 107 7 q 3 89 22 31 q 0 136 -4 113 q 18 182 4 163 q 33 229 33 204 l 33 247 l 40 240 q 82 185 68 214 q 89 134 93 160 q 67 99 85 108 q 35 96 54 92 l 28 97 l 29 93 q 53 61 36 76 q 92 38 71 46 q 128 31 114 31 q 136 39 133 31 q 174 171 143 61 l 201 272 l 169 304 q 106 389 119 354 q 96 442 96 414 q 99 475 96 461 q 138 543 110 514 q 182 575 154 561 q 272 599 221 594 q 293 601 293 600 q 301 626 293 603 q 314 654 310 650 q 336 665 322 663 m 285 569 l 285 569 l 283 571 l 278 569 q 221 539 244 567 q 197 475 200 517 q 217 399 193 433 q 223 390 219 394 q 229 384 226 386 q 233 383 232 382 q 258 476 233 383 q 285 569 283 568 m 236 242 q 228 251 231 249 q 225 250 225 253 q 192 132 218 229 q 167 33 165 35 q 194 43 169 31 q 244 97 226 60 q 258 174 263 135 q 236 242 254 214 z "},"%":{"ha":583,"x_min":7,"x_max":576,"o":"m 425 196 q 494 167 450 200 q 533 142 519 147 q 551 140 542 139 q 568 142 561 140 q 576 144 575 144 q 567 111 578 142 q 557 92 563 101 q 493 40 531 54 q 433 47 456 26 q 419 78 419 60 q 447 113 419 113 q 472 92 467 113 l 475 86 l 476 92 q 479 106 479 97 q 475 119 479 115 q 456 135 468 129 q 438 139 444 142 q 409 122 425 138 q 390 93 393 106 q 403 51 386 75 q 447 14 421 26 q 454 8 454 10 l 447 8 l 431 10 l 415 13 q 390 21 403 15 q 367 39 378 26 q 332 93 336 69 q 344 135 328 111 q 392 179 361 158 q 425 196 414 194 m 90 500 q 168 472 117 510 q 208 447 194 451 q 239 449 219 443 q 249 447 249 450 q 242 426 249 444 q 232 403 236 408 q 179 351 211 367 q 121 343 144 335 q 93 371 100 351 q 92 384 92 375 q 93 397 92 393 q 110 417 97 411 q 133 415 122 422 q 146 397 143 408 l 146 392 l 149 394 q 151 418 154 407 q 129 442 147 432 q 83 429 107 453 q 63 393 63 408 q 78 354 63 375 q 117 321 93 333 l 128 315 l 111 315 q 40 343 65 318 q 7 390 19 364 q 15 439 -3 411 q 49 474 26 456 q 90 500 71 492 m 476 582 q 500 583 483 583 q 519 581 517 582 q 519 572 526 576 q 497 553 514 571 q 469 522 479 535 q 431 463 449 496 q 357 311 414 431 q 265 131 289 171 q 190 19 228 67 q 143 -28 169 -7 q 99 -53 117 -49 q 77 -56 92 -56 q 58 -54 63 -56 q 50 -53 54 -53 q 51 -44 40 -53 q 121 33 85 -18 q 219 231 135 56 q 307 403 285 365 q 386 517 351 475 q 476 582 435 575 z "},"&":{"ha":569,"x_min":0,"x_max":567,"o":"m 297 686 q 343 686 321 690 q 383 672 365 682 q 439 621 422 654 q 449 564 449 600 q 403 450 449 494 q 325 408 383 431 q 294 396 296 397 q 297 385 293 394 q 343 268 328 304 q 381 190 376 190 q 389 204 383 190 q 391 242 390 211 q 394 286 392 274 q 426 329 403 317 q 492 332 443 339 q 528 331 518 328 q 556 350 539 335 q 567 360 565 360 l 567 356 l 565 346 l 563 332 q 508 249 553 272 q 485 244 497 244 q 450 254 461 244 q 442 275 442 261 l 442 281 q 433 261 438 281 q 432 225 432 254 q 431 188 432 196 q 411 153 426 169 q 404 140 403 143 q 437 101 410 126 q 481 78 464 75 q 515 100 497 81 l 525 110 l 526 104 q 522 67 529 88 q 481 17 513 36 q 408 0 451 -1 q 361 11 382 1 q 325 42 342 21 q 313 57 315 53 l 308 60 l 299 53 q 144 6 217 -4 q 69 35 106 11 q 0 181 0 82 q 25 281 0 236 q 76 336 42 310 q 165 385 119 368 q 172 388 169 386 q 174 390 174 389 q 163 513 156 449 q 219 642 172 593 q 297 686 253 676 m 343 636 q 311 636 326 642 q 281 604 293 629 q 264 536 265 572 q 278 447 263 494 q 284 435 282 436 q 296 440 286 435 q 349 488 328 456 q 374 558 369 519 q 374 588 375 572 q 358 628 369 615 q 343 636 350 635 m 186 333 l 182 346 q 169 335 181 346 q 154 317 158 324 q 122 240 131 282 q 122 179 117 210 q 160 97 132 128 q 225 67 188 67 q 276 86 250 67 l 286 94 l 282 101 q 218 236 247 160 q 186 333 199 288 z "},"'":{"ha":306,"x_min":83,"x_max":286,"o":"m 181 646 q 251 628 228 651 q 260 606 261 618 q 249 585 260 593 q 247 582 244 582 q 269 596 254 582 l 281 607 l 282 601 q 286 589 283 594 q 281 522 294 558 q 222 441 264 472 q 129 410 179 410 q 99 413 115 410 q 83 419 83 417 q 89 422 83 421 q 171 463 143 436 q 193 493 183 474 q 207 572 217 542 q 185 594 203 590 q 150 578 164 600 q 149 564 144 569 q 171 567 157 557 q 193 561 189 579 q 189 529 197 543 q 171 510 185 522 q 146 494 157 499 q 119 496 132 489 q 96 519 104 504 q 118 613 74 564 q 181 646 143 642 z "},"(":{"ha":208,"x_min":14,"x_max":281,"o":"m 269 656 q 280 659 279 660 q 275 651 281 658 q 249 589 258 633 q 235 544 239 551 q 224 537 232 540 q 208 533 217 533 l 200 533 l 192 518 q 135 349 161 451 q 97 144 108 247 q 93 22 89 64 q 99 14 93 14 q 124 -8 118 10 q 122 -65 126 -17 q 123 -99 121 -86 q 128 -120 125 -111 q 131 -129 132 -129 q 100 -103 126 -129 q 53 -35 71 -71 q 22 57 32 10 q 14 163 14 96 q 18 236 15 217 q 69 414 35 339 q 197 600 113 504 q 269 656 235 642 z "},")":{"ha":208,"x_min":-86,"x_max":181,"o":"m 58 658 q 64 657 58 660 q 78 649 69 654 q 90 642 86 644 q 108 624 99 635 q 181 394 181 540 q 156 215 181 313 q 24 -42 118 69 q -39 -106 -10 -81 q -55 -116 -43 -108 q -76 -129 -67 -124 q -86 -133 -86 -135 q -79 -124 -86 -132 q -58 -58 -65 -106 q -51 -24 -54 -32 q -25 7 -43 0 q -15 8 -21 8 q -7 7 -10 8 q -3 10 -6 6 q 6 29 -1 14 q 88 350 60 158 q 97 481 97 418 q 93 511 97 511 q 88 514 90 511 q 75 571 75 524 q 74 604 75 583 q 63 649 72 631 q 58 658 58 657 z "},"*":{"ha":444,"x_min":28,"x_max":438,"o":"m 221 500 q 236 497 222 504 q 258 478 250 489 q 268 461 263 472 q 281 372 285 425 q 278 340 279 349 q 276 331 276 332 q 336 353 281 328 q 397 401 376 372 q 404 408 403 408 q 410 381 411 406 q 396 340 408 361 q 304 265 374 301 l 290 257 l 325 224 q 369 181 358 189 q 404 161 383 171 q 433 151 425 151 q 438 150 438 151 q 426 141 438 147 q 404 132 414 135 q 336 139 375 122 q 253 193 296 156 l 244 200 l 242 189 q 233 157 239 176 q 221 97 222 119 q 229 36 219 61 q 228 33 231 33 q 215 39 225 33 q 185 67 194 51 q 168 143 168 99 q 174 208 168 200 l 174 210 q 136 196 171 210 q 93 178 101 182 q 38 132 56 158 q 29 131 31 121 q 28 146 28 135 q 29 172 28 165 q 82 239 42 210 q 146 276 111 260 l 160 283 l 129 314 q 42 374 79 364 q 33 385 25 378 q 64 399 44 394 q 88 399 74 400 q 149 379 118 396 q 200 343 176 364 q 206 340 204 340 q 224 410 208 343 q 228 443 226 424 q 222 492 228 472 q 221 500 219 500 z "},"+":{"ha":472,"x_min":28,"x_max":460,"o":"m 328 496 q 347 496 344 497 q 342 488 350 494 q 321 457 331 475 q 300 376 306 426 q 294 325 297 350 q 291 299 290 300 q 344 299 292 299 l 397 297 l 408 301 q 450 322 436 310 q 458 326 457 326 q 460 319 460 325 q 457 305 460 314 q 451 289 454 296 q 358 224 429 239 q 299 214 328 215 l 281 214 l 276 194 q 244 100 265 138 q 174 38 217 49 q 142 35 147 31 q 144 43 139 38 q 156 58 150 49 q 183 136 178 90 q 193 214 194 213 q 152 217 192 215 q 103 217 113 218 q 63 207 83 215 q 33 189 42 199 q 28 192 28 183 q 40 232 28 207 q 132 292 61 276 q 192 300 165 300 l 204 300 l 206 311 q 264 463 221 415 q 328 496 290 492 z "},",":{"ha":208,"x_min":-32,"x_max":168,"o":"m 67 144 q 103 144 89 147 q 129 131 117 140 q 144 114 142 122 q 133 83 150 93 l 132 81 q 154 94 139 81 l 165 106 l 168 93 q 167 24 178 58 q 83 -74 144 -43 q 13 -92 49 -92 q -16 -88 0 -92 q -32 -82 -32 -85 q -26 -79 -32 -81 q 42 -51 10 -71 q 68 -25 58 -40 q 86 10 78 -11 q 86 82 106 60 q 60 94 75 96 q 35 76 44 92 q 33 64 29 68 q 56 65 42 56 q 78 60 74 78 q 74 28 82 42 q 43 0 67 14 q 22 -10 31 -8 q -7 1 7 -11 q -25 33 -21 14 q 1 111 -33 72 q 67 144 28 140 z "},"-":{"ha":389,"x_min":28,"x_max":369,"o":"m 363 310 q 368 314 367 314 q 369 305 369 313 q 365 286 368 297 q 360 268 363 275 q 333 233 351 249 q 294 213 317 219 q 183 201 254 199 q 117 203 150 203 q 75 201 85 204 q 33 178 49 193 l 28 172 l 28 179 q 39 222 28 199 q 83 268 51 253 q 128 283 101 278 q 249 286 154 289 q 329 289 311 283 q 363 310 351 297 z "},".":{"ha":208,"x_min":-28,"x_max":160,"o":"m 156 144 q 160 147 158 149 q 154 119 164 144 q 118 60 142 83 q 92 40 106 47 q 46 32 67 28 q 28 39 33 33 q 22 56 24 44 q 26 74 22 65 q 51 92 33 89 l 60 96 l 53 96 q 21 68 31 93 q 28 35 13 46 q 53 28 38 28 q 108 47 82 28 q 139 78 126 60 l 143 82 q 146 83 146 83 l 146 79 q 131 47 142 65 q 58 1 104 10 q 8 4 31 -3 q -28 40 -22 14 q -26 88 -33 63 q 3 132 -17 119 q 86 136 25 147 q 132 132 117 131 q 156 144 149 135 z "},"/":{"ha":278,"x_min":-57,"x_max":322,"o":"m 286 647 q 322 649 315 653 q 319 640 325 646 q 281 589 303 625 q 249 521 260 553 q 218 428 243 504 q 149 213 165 260 q 111 122 132 167 q 53 17 79 51 q -10 -39 18 -28 q -46 -44 -32 -47 q -54 -44 -50 -43 q -57 -39 -61 -46 q -47 -28 -54 -35 q 15 81 -8 17 q 54 203 21 97 q 124 413 104 360 q 171 519 143 465 q 247 626 207 594 q 286 647 268 643 z "},":":{"ha":306,"x_min":42,"x_max":282,"o":"m 225 206 q 231 210 229 211 q 225 181 235 206 q 160 101 203 122 q 108 97 132 89 q 94 111 97 100 q 99 139 90 126 q 124 154 107 151 l 129 157 q 125 158 129 158 q 94 137 107 158 q 94 101 82 115 q 121 90 103 92 q 175 106 149 89 q 211 142 194 119 q 217 146 215 147 q 207 121 219 143 q 132 65 183 75 q 89 64 108 60 q 46 96 57 71 q 42 122 42 103 q 46 154 42 142 q 68 190 54 179 q 110 204 83 204 q 160 197 124 204 q 225 206 208 189 m 278 486 q 282 485 282 493 q 278 463 282 476 q 235 395 263 419 q 175 372 207 371 q 151 380 158 374 q 144 400 144 386 q 156 425 144 414 q 179 435 164 432 l 181 436 q 153 426 167 440 q 140 393 139 411 q 168 369 142 374 q 208 375 185 367 q 261 418 233 386 q 267 422 267 424 q 238 372 263 397 q 213 354 225 360 q 161 342 188 342 q 107 360 124 340 q 93 410 89 379 q 147 482 100 472 q 201 478 161 485 q 256 474 243 471 q 278 486 272 478 z "},";":{"ha":306,"x_min":44,"x_max":283,"o":"m 142 150 q 196 144 175 154 q 221 119 217 133 q 210 89 226 100 q 208 86 204 86 q 214 88 210 86 q 231 100 218 89 l 242 111 l 243 106 q 246 93 244 99 q 249 49 253 74 q 213 -26 242 8 q 144 -75 185 -60 q 53 -81 97 -94 q 44 -76 44 -78 q 50 -74 44 -75 q 121 -43 89 -64 q 161 14 146 -26 q 168 76 176 50 q 146 99 164 94 q 111 82 125 104 q 110 69 106 74 q 131 71 118 61 q 150 74 144 81 q 155 56 154 69 q 151 35 156 43 q 140 21 149 29 q 67 11 96 -19 q 51 39 56 22 q 83 122 42 81 q 142 150 107 146 m 278 486 q 283 486 282 492 l 283 481 q 258 421 279 453 q 217 382 242 396 q 171 372 193 368 q 151 379 156 374 q 146 397 146 385 q 149 414 144 407 q 176 433 157 429 l 182 435 q 176 436 181 436 q 153 424 163 436 q 142 394 142 410 q 144 381 142 385 q 172 368 153 369 q 260 415 218 365 q 268 424 267 424 q 268 420 269 424 q 265 411 267 417 q 260 400 263 406 q 160 340 229 340 q 97 374 113 340 q 94 400 94 382 q 104 446 94 426 q 161 482 122 482 q 203 476 174 482 q 260 474 246 469 q 278 486 274 478 z "},"<":{"ha":417,"x_min":0,"x_max":418,"o":"m 411 432 q 418 435 417 438 q 417 432 418 433 q 411 392 414 404 q 394 358 406 369 q 372 346 389 351 q 227 278 321 325 q 101 208 133 231 l 93 203 l 101 199 q 208 131 122 192 q 357 43 311 58 q 362 41 361 42 q 351 32 363 40 q 332 19 340 24 q 281 11 303 3 q 118 110 233 29 q 7 176 25 175 q 0 178 0 176 q 22 217 0 183 q 58 251 33 236 q 269 360 117 289 q 411 432 392 415 z "},"=":{"ha":458,"x_min":29,"x_max":453,"o":"m 414 244 q 424 247 424 251 q 413 214 424 233 q 379 182 403 196 q 308 160 354 167 q 140 158 285 157 l 86 158 l 72 156 q 35 138 47 147 l 31 135 q 29 138 29 135 q 30 145 29 140 q 32 154 31 150 q 67 199 42 182 q 111 217 86 211 q 263 226 161 229 q 333 225 306 225 q 375 228 361 225 q 414 244 403 236 m 444 357 q 453 361 451 361 q 453 356 454 361 q 443 325 451 339 q 413 296 432 307 q 344 274 388 281 q 201 271 313 268 q 117 271 129 272 q 64 249 81 264 l 60 246 l 60 250 q 72 286 60 267 q 118 322 86 310 q 165 335 135 329 q 286 339 201 342 q 406 340 388 336 q 444 357 432 347 z "},">":{"ha":444,"x_min":0,"x_max":446,"o":"m 110 411 q 108 438 108 429 q 108 446 107 446 q 117 438 108 446 q 221 368 139 414 q 369 276 326 307 q 426 222 411 246 q 446 186 446 190 l 442 188 q 269 108 422 190 q 81 17 125 33 q 44 18 64 10 q 17 33 33 22 q 0 46 0 43 q 10 50 0 47 q 169 125 47 61 q 347 211 328 207 l 353 211 l 336 225 q 144 344 229 307 q 126 354 131 350 q 110 411 114 364 z "},"?":{"ha":417,"x_min":28,"x_max":413,"o":"m 200 117 q 204 115 204 124 q 185 65 204 94 q 147 31 169 42 q 106 28 124 21 q 92 44 93 32 q 94 58 92 53 q 114 75 101 72 l 121 78 l 118 78 q 93 60 103 78 q 93 31 83 42 q 122 22 103 21 q 158 36 140 24 q 188 64 174 46 q 192 68 192 69 q 179 39 196 64 q 100 0 153 -1 q 54 25 67 1 q 50 47 50 33 q 82 111 50 94 q 140 111 97 118 q 175 107 165 107 q 200 117 193 108 m 217 640 q 286 638 254 644 q 363 603 331 628 q 406 544 394 579 q 413 474 417 513 q 389 406 408 436 q 283 314 354 349 q 196 264 218 283 q 158 213 165 236 q 165 161 151 188 q 167 156 167 157 q 154 160 165 154 q 138 172 143 167 q 125 188 129 179 q 119 208 121 196 q 133 263 118 232 q 168 313 144 289 q 213 353 179 325 q 276 415 264 396 q 301 494 299 453 q 286 569 304 536 q 236 604 268 601 q 186 582 208 606 q 179 573 183 579 q 172 562 175 567 q 170 556 169 557 q 176 553 171 556 q 194 535 188 547 q 203 508 201 522 q 199 489 203 497 q 144 463 183 457 q 61 535 100 469 q 28 608 32 582 q 28 611 28 611 q 42 605 29 611 q 62 597 54 599 q 87 594 69 594 q 110 594 104 593 q 132 607 115 596 q 172 629 156 624 q 217 640 192 638 z "},"@":{"ha":860,"x_min":-28,"x_max":864,"o":"m 475 451 q 546 447 526 457 q 558 433 554 443 q 560 419 560 431 l 560 403 q 554 405 558 400 q 542 414 550 410 q 491 415 522 421 q 428 392 460 410 q 344 311 379 363 q 294 196 308 260 q 294 147 289 165 q 324 124 303 124 q 361 135 338 124 q 401 161 385 147 q 404 168 408 168 q 397 172 400 168 q 393 181 393 175 q 406 200 394 192 q 450 236 444 225 q 451 225 454 243 q 426 150 446 188 q 388 100 415 128 q 269 53 339 53 q 220 65 238 53 q 194 106 203 76 q 194 163 189 126 q 211 232 199 199 q 267 321 229 275 q 350 400 304 367 q 475 451 413 444 m 517 647 q 614 646 556 651 q 771 593 706 636 q 857 483 836 550 q 864 353 876 426 q 781 175 849 261 q 704 100 747 132 q 633 61 665 72 q 564 50 600 50 q 511 57 532 50 q 424 64 485 68 q 368 57 386 61 q 359 55 360 54 q 360 63 358 56 q 388 86 364 78 q 406 98 400 92 q 421 119 413 104 q 472 204 433 142 q 517 283 501 251 q 529 303 525 297 q 569 322 538 313 q 599 338 594 331 q 596 339 601 343 q 574 331 590 333 q 550 331 557 328 q 549 376 531 338 q 600 419 563 406 q 667 439 640 435 q 701 444 676 442 q 727 445 726 446 q 719 440 728 444 q 683 408 701 432 q 589 219 665 385 q 549 135 554 146 q 522 94 535 107 l 514 88 l 522 88 q 547 85 532 88 q 596 85 581 79 q 631 100 606 88 q 668 121 656 113 q 790 258 747 174 q 824 442 842 361 q 746 556 807 515 q 539 608 661 611 q 221 490 361 603 q 153 425 182 460 q 46 194 68 322 q 52 80 36 136 q 107 -11 68 24 q 267 -87 171 -69 q 468 -83 360 -104 q 683 -6 607 -58 q 696 1 694 1 q 685 -26 699 -3 q 672 -44 681 -33 l 664 -54 l 633 -69 q 386 -136 514 -129 q 230 -124 310 -140 q 97 -76 150 -107 q -28 78 -3 -17 q -28 222 -44 143 q 101 458 -3 354 q 447 639 247 604 q 517 647 478 644 z "},"A":{"ha":708,"x_min":-14,"x_max":782,"o":"m 518 335 q 524 335 524 340 q 521 324 524 332 q 492 289 515 299 q 424 281 475 281 l 381 281 l 374 278 q 361 269 365 274 l 358 267 q 357 269 357 267 q 358 276 357 272 q 360 285 358 281 q 394 319 368 310 l 406 322 l 453 322 l 500 322 l 508 326 q 518 335 515 331 m 744 669 q 757 672 756 672 l 758 671 q 753 668 758 669 q 726 628 733 657 q 722 607 724 621 q 701 497 714 533 q 679 458 693 474 q 638 428 665 443 q 632 422 631 424 q 671 433 646 421 q 681 437 681 438 q 677 416 682 436 q 669 388 672 396 q 618 331 660 357 l 606 322 l 618 324 q 649 335 636 328 l 656 338 l 656 336 q 650 311 654 333 q 641 274 646 285 q 625 251 636 263 q 586 229 614 242 l 614 232 q 628 235 628 236 q 626 228 629 235 q 603 144 619 207 q 585 96 593 111 q 511 21 558 43 q 429 13 478 6 q 406 17 406 15 q 414 24 406 18 q 464 85 449 46 q 535 339 474 108 q 576 492 572 481 q 610 507 579 497 q 653 531 647 519 l 651 533 q 630 522 646 525 q 606 521 614 518 q 594 556 589 528 q 615 597 600 578 q 694 651 635 621 q 744 669 725 667 m 625 763 q 692 760 661 767 q 740 750 728 750 q 774 757 757 750 q 782 760 781 760 q 771 732 783 757 q 736 689 760 711 q 640 635 689 643 q 622 635 628 633 q 594 661 599 640 q 593 667 594 667 q 583 660 592 667 q 569 650 574 653 q 496 551 546 625 q 388 358 446 476 q 267 118 294 169 q 236 65 243 75 q 217 44 229 54 q 159 17 197 28 q 89 10 121 7 q 47 18 69 11 q -8 11 13 28 l -14 8 l -14 18 q 3 85 -14 53 q 47 135 21 117 q 93 147 69 147 q 117 143 107 147 q 136 117 135 135 q 135 103 136 108 q 124 81 132 90 q 106 71 115 72 q 103 68 103 69 q 117 67 106 65 q 135 74 128 69 q 154 100 140 78 q 276 331 201 179 q 388 539 357 490 q 499 683 431 611 q 571 743 526 713 q 625 763 597 760 z "},"B":{"ha":611,"x_min":14,"x_max":624,"o":"m 313 400 l 308 403 l 322 403 q 417 381 356 400 q 458 363 446 371 q 499 326 494 342 q 494 293 503 313 l 493 289 q 510 310 500 293 q 515 317 514 317 q 526 301 517 317 q 540 276 536 286 q 557 228 553 253 q 558 207 558 221 q 557 186 558 193 q 506 146 553 161 q 494 140 494 142 q 511 138 494 138 q 543 144 531 138 q 549 144 547 146 q 541 123 550 143 q 524 90 532 103 q 474 40 507 64 q 411 7 442 15 q 324 14 365 -8 q 279 44 296 28 q 240 69 258 67 l 231 72 l 238 75 q 276 86 256 83 q 308 78 294 88 q 321 57 322 69 q 322 51 319 53 q 331 51 324 50 q 386 93 361 57 q 418 177 410 128 q 415 264 426 226 q 381 330 407 294 q 328 388 356 365 q 313 400 317 396 m 318 665 q 350 671 346 671 l 356 671 l 350 667 q 328 639 338 657 q 318 614 321 625 q 260 367 304 558 q 210 160 218 189 q 197 121 203 131 q 175 97 188 106 q 143 86 158 86 l 139 86 l 142 82 q 171 68 151 72 q 217 67 183 64 q 241 64 231 67 q 261 54 251 61 q 285 33 272 47 q 303 8 299 18 l 301 6 q 299 7 301 7 q 286 14 293 10 q 251 22 271 24 q 203 8 231 21 q 149 0 185 0 q 111 4 121 1 q 17 111 47 26 q 15 124 14 122 q 22 125 15 125 q 75 164 56 125 q 133 394 82 178 q 164 515 161 511 q 197 532 172 524 q 218 540 215 538 l 219 543 l 214 540 q 192 539 203 535 q 175 556 181 543 q 185 608 164 576 q 219 635 194 622 q 318 665 254 651 m 78 760 q 83 764 82 767 q 82 760 83 763 q 85 750 82 754 q 138 736 97 736 q 267 744 188 736 q 328 753 279 746 q 399 763 378 760 q 447 764 419 764 q 485 761 475 764 q 559 729 526 753 q 592 685 592 706 q 578 658 592 672 l 569 649 l 578 653 q 594 665 586 657 q 604 674 603 674 q 614 650 606 674 q 624 607 621 633 q 624 565 626 581 q 609 535 621 546 q 569 514 597 524 l 561 511 l 575 510 q 608 514 592 510 l 613 514 l 610 506 q 544 422 589 451 q 456 390 500 393 q 347 415 406 385 l 342 418 l 350 419 q 433 453 407 426 q 465 497 451 471 q 483 653 503 575 q 451 701 474 692 q 419 707 433 710 q 361 690 414 707 q 196 643 229 650 q 132 638 163 636 q 67 692 72 642 q 69 728 65 704 q 78 760 74 751 z "},"C":{"ha":625,"x_min":42,"x_max":715,"o":"m 454 771 q 494 773 467 774 q 536 769 522 772 q 590 739 561 763 q 627 715 615 721 q 654 710 639 710 q 704 736 679 711 l 715 747 l 715 736 q 686 621 715 679 q 625 568 664 575 q 595 572 610 565 q 575 592 581 579 q 572 629 567 608 q 589 654 579 650 l 593 657 l 581 668 q 524 703 554 693 q 419 688 483 715 q 254 540 333 649 q 201 435 219 494 q 181 293 181 369 q 193 196 181 233 q 289 86 217 122 q 414 78 349 57 q 453 97 435 85 q 497 139 479 115 l 501 144 l 494 144 q 458 176 465 146 q 469 231 453 204 q 522 281 488 261 q 572 308 571 310 q 569 299 572 307 q 565 253 564 281 q 564 185 568 207 q 519 76 556 121 q 475 35 500 51 q 378 1 436 8 q 319 0 364 0 q 260 3 275 0 q 136 53 188 11 q 96 96 110 75 q 71 147 82 118 q 47 221 47 211 q 50 222 47 222 q 101 239 90 231 l 103 240 q 97 239 101 240 q 78 238 90 238 q 61 239 67 238 q 50 246 56 240 q 42 289 42 254 q 47 342 43 310 q 54 375 51 374 q 70 372 56 375 q 92 368 85 368 l 97 368 l 89 371 q 61 386 69 375 q 58 403 58 390 q 74 458 58 417 q 85 492 85 486 q 87 497 86 497 q 96 492 88 497 q 122 479 128 474 q 115 485 119 481 q 97 508 100 496 q 115 556 94 528 q 147 594 143 594 l 157 579 l 169 561 q 168 567 169 563 q 161 594 161 582 q 181 632 161 608 q 239 683 199 654 q 340 739 279 714 q 454 771 401 764 z "},"D":{"ha":681,"x_min":14,"x_max":672,"o":"m 318 665 q 350 671 346 671 l 356 671 l 350 667 q 328 639 338 657 q 318 614 321 625 q 260 367 304 558 q 210 160 218 189 q 197 121 203 131 q 175 97 188 106 q 143 86 158 86 l 139 86 l 142 82 q 171 68 151 72 q 217 67 183 64 q 241 64 231 67 q 261 54 251 61 q 285 33 272 47 q 303 8 299 18 l 301 6 q 299 7 301 7 q 286 14 293 10 q 251 22 271 24 q 203 8 231 21 q 149 0 185 0 q 111 4 121 1 q 17 111 47 26 q 15 124 14 122 q 22 125 15 125 q 75 164 56 125 q 133 394 82 178 q 164 515 161 511 q 197 532 172 524 q 218 540 215 538 l 219 543 l 214 540 q 192 539 203 535 q 175 556 181 543 q 185 608 164 576 q 219 635 194 622 q 318 665 254 651 m 78 760 q 83 764 82 767 q 82 760 83 763 q 85 750 82 754 q 138 736 97 736 q 267 744 189 736 q 328 753 279 746 q 447 764 407 764 q 513 753 483 764 q 615 669 574 731 q 657 574 651 617 q 631 521 658 550 l 622 511 q 657 533 633 511 q 665 538 664 539 q 669 510 665 538 q 672 461 672 483 q 663 413 671 431 q 614 368 653 392 l 604 360 l 606 361 q 653 375 629 365 q 661 378 661 379 q 649 303 661 358 q 620 233 639 257 q 563 196 601 210 q 553 192 554 193 q 592 196 550 189 q 611 199 610 199 q 599 172 611 197 q 578 132 588 147 q 474 26 536 64 q 396 3 440 7 q 281 44 326 -3 q 240 69 258 67 l 231 72 l 238 75 q 272 85 253 82 q 304 81 290 88 q 321 56 324 72 q 324 51 319 51 q 381 96 340 51 q 449 189 425 144 q 488 292 474 233 q 510 430 500 346 q 518 556 519 514 q 497 650 514 614 q 429 704 475 693 l 417 707 l 358 690 q 178 640 208 644 q 142 638 164 638 q 111 640 119 639 q 67 692 71 650 q 69 728 65 704 q 78 760 74 751 z "},"E":{"ha":667,"x_min":14,"x_max":738,"o":"m 453 265 q 458 274 457 274 q 463 267 458 274 q 514 236 472 244 q 588 206 558 228 q 629 111 632 172 q 599 33 626 68 q 572 10 586 17 q 472 8 532 -11 q 421 36 447 15 q 317 78 368 75 q 297 79 297 78 q 319 90 297 83 q 372 90 340 96 q 447 68 394 86 q 486 61 468 63 q 546 78 522 60 q 562 106 558 88 q 560 144 565 125 q 544 164 554 160 q 533 167 533 169 q 536 163 532 165 q 544 153 540 160 q 547 133 547 146 q 536 101 547 113 q 510 94 526 94 q 489 100 499 94 q 459 129 472 108 q 440 174 446 150 q 439 199 439 183 q 440 225 439 215 q 453 265 444 246 m 549 475 q 554 479 553 479 q 555 472 556 478 q 551 456 554 465 q 547 440 549 446 q 506 400 535 414 q 421 386 471 383 q 369 388 411 386 q 317 388 326 389 q 283 369 297 382 l 275 363 l 275 368 q 285 404 275 383 q 304 431 290 418 q 354 453 319 444 q 398 456 367 456 q 469 455 429 456 q 518 457 510 454 q 549 475 539 464 m 319 665 l 353 672 q 347 665 357 672 q 321 625 331 653 q 260 369 315 606 q 203 136 208 149 q 147 88 189 94 l 139 85 l 144 81 q 208 56 167 65 q 272 50 249 46 q 283 52 282 51 q 282 56 283 53 q 290 68 279 61 q 339 65 306 75 q 403 33 372 56 q 417 23 410 29 q 430 12 425 17 q 433 7 435 7 q 419 11 432 7 q 354 22 385 25 q 285 8 307 15 q 186 1 261 1 q 114 4 124 0 q 28 86 60 21 q 14 122 14 115 q 25 125 14 125 q 74 163 57 128 q 131 381 81 176 q 163 514 161 510 q 196 532 168 522 q 219 543 221 540 q 214 540 218 543 q 191 540 203 535 q 175 556 179 544 q 175 587 169 568 q 194 619 181 606 q 257 650 210 635 q 319 665 278 657 m 79 763 q 83 767 82 767 q 83 760 83 767 q 88 747 83 753 q 117 738 97 740 q 199 740 133 735 q 333 753 267 744 q 469 763 417 763 q 601 751 547 763 q 656 728 624 746 q 703 710 692 708 q 728 722 717 713 q 737 731 736 731 q 736 722 738 731 q 718 633 733 676 q 683 572 703 589 q 636 553 663 553 q 590 569 610 553 q 579 583 583 576 q 576 605 575 590 q 579 628 576 619 q 593 649 585 643 l 597 651 l 594 656 q 553 688 583 674 q 486 708 524 701 q 408 703 456 713 q 303 674 374 696 q 158 639 197 642 q 97 645 118 636 q 68 678 76 654 q 68 725 63 696 q 79 763 74 754 z "},"F":{"ha":639,"x_min":14,"x_max":760,"o":"m 579 475 q 585 479 583 479 q 585 470 586 478 q 581 451 583 463 q 575 436 578 440 q 560 417 571 428 q 542 403 549 406 q 503 389 525 393 q 394 388 479 383 q 347 388 357 389 q 313 369 326 382 l 306 363 l 306 368 q 315 404 306 383 q 379 451 331 439 q 415 456 399 456 q 508 454 431 457 q 549 457 539 454 q 579 475 569 464 m 349 665 q 382 672 381 672 q 378 667 383 671 q 368 658 372 663 q 350 624 358 647 q 288 356 342 600 q 221 81 231 101 q 113 3 190 19 q 33 3 79 -4 l 32 4 l 14 8 q 21 14 15 10 l 22 15 q 76 79 60 40 q 179 464 106 147 q 193 517 190 514 q 226 532 201 525 q 246 542 243 538 l 250 544 l 244 542 q 220 540 235 535 q 201 558 206 546 q 208 599 197 576 q 242 632 218 619 q 349 665 281 651 m 110 763 q 113 767 113 767 q 113 760 114 767 q 118 749 113 754 q 147 738 126 740 q 228 740 164 735 q 353 751 297 744 q 481 764 439 763 q 635 750 569 767 q 689 726 657 744 q 719 711 711 714 q 760 724 754 703 q 754 731 761 731 l 754 729 l 754 725 l 754 718 q 747 628 750 632 q 710 569 731 585 q 664 553 690 553 q 629 564 646 553 q 608 589 613 575 q 608 623 603 604 q 624 649 614 642 l 628 651 l 622 658 q 583 688 610 675 q 471 708 528 715 q 324 671 426 703 q 188 639 226 642 q 119 650 140 636 q 97 719 90 668 q 110 763 103 753 z "},"G":{"ha":681,"x_min":42,"x_max":715,"o":"m 396 385 q 400 389 397 396 q 417 369 400 385 q 443 344 433 353 q 478 326 463 331 q 528 318 494 321 q 579 308 564 314 q 635 206 629 289 q 625 142 636 175 q 617 82 615 110 q 644 10 619 35 l 654 0 l 643 0 q 601 13 622 3 q 556 92 553 36 q 572 150 557 107 q 579 182 578 168 q 568 229 581 206 l 560 240 l 560 239 q 553 217 558 225 q 510 203 543 201 q 463 224 481 206 q 430 270 447 239 q 403 331 413 301 q 396 385 392 367 m 454 771 q 494 773 467 774 q 536 769 522 772 q 590 739 561 763 q 627 715 615 721 q 654 710 639 710 q 704 736 679 711 l 715 747 l 715 736 q 686 621 715 679 q 625 568 664 575 q 595 572 610 565 q 575 592 581 579 q 572 629 567 608 q 589 654 579 650 l 593 657 l 581 668 q 524 703 554 693 q 464 701 500 710 q 393 674 428 693 q 285 579 338 640 q 235 513 250 539 q 183 346 194 444 q 182 292 182 331 q 183 243 182 254 q 240 122 194 165 q 346 75 282 82 q 433 78 401 69 q 492 113 471 88 l 496 118 l 493 122 q 489 142 486 131 q 521 176 492 161 q 561 211 551 193 q 565 218 564 218 q 568 189 569 218 q 547 112 568 150 q 493 49 526 74 q 388 4 446 17 q 328 0 374 1 q 240 6 271 0 q 114 74 169 18 q 96 96 101 88 q 71 147 82 118 q 47 221 47 211 q 50 222 47 222 q 101 239 90 231 l 103 240 q 97 239 101 240 q 78 238 90 238 q 61 239 67 238 q 50 246 56 240 q 42 289 42 254 q 47 342 43 310 q 54 375 51 374 q 70 372 56 375 q 92 368 85 368 l 97 368 l 89 371 q 61 386 69 375 q 58 403 58 390 q 74 458 58 417 q 85 492 85 486 q 87 497 86 497 q 96 492 88 497 q 122 479 128 474 q 115 485 119 481 q 97 508 100 496 q 115 556 94 528 q 147 594 143 594 l 157 579 l 169 561 q 168 567 169 563 q 161 594 161 582 q 181 632 161 608 q 239 683 199 654 q 340 739 279 714 q 454 771 401 764 z "},"H":{"ha":681,"x_min":15,"x_max":744,"o":"m 501 439 q 507 439 507 446 q 504 428 507 436 q 494 403 501 414 q 451 374 481 382 q 369 369 429 368 q 301 364 317 372 q 289 356 294 361 q 283 351 283 350 q 283 364 282 351 q 344 422 293 410 q 440 425 360 426 l 475 425 l 486 431 q 501 439 497 436 m 696 763 l 744 764 q 736 758 744 763 q 717 735 724 750 q 703 675 711 722 q 681 586 692 610 q 632 538 668 560 q 613 525 614 526 q 631 528 611 525 q 664 540 647 531 l 671 543 q 663 493 674 540 q 645 459 657 472 q 607 429 633 446 l 592 419 l 600 419 q 636 429 619 422 q 646 433 644 435 q 639 386 647 432 q 622 347 635 363 q 582 322 607 332 l 576 319 l 572 318 l 571 318 q 607 322 574 315 q 622 326 622 326 q 608 265 622 325 q 572 114 583 168 q 546 47 563 68 q 392 4 500 -12 l 375 8 l 378 8 q 418 43 403 13 q 458 197 424 54 q 518 439 504 379 q 557 601 553 593 q 593 618 560 607 q 633 639 625 629 l 638 646 l 635 644 q 611 633 628 636 q 576 643 583 626 q 579 693 567 663 q 636 749 594 733 q 696 763 658 758 m 347 764 q 361 765 351 765 l 379 765 l 388 764 l 382 761 q 353 722 363 751 q 344 676 350 713 q 294 456 338 632 q 228 175 263 326 q 203 75 207 83 q 139 11 185 28 q 78 1 114 1 q 15 7 22 0 l 19 8 q 60 43 44 13 q 74 88 65 56 q 106 218 81 118 q 157 431 143 368 q 199 600 193 590 q 231 617 201 607 q 276 642 271 631 l 275 644 q 255 633 269 638 q 231 632 240 629 q 218 642 222 635 q 221 693 208 661 q 278 749 238 733 q 347 764 303 760 z "},"I":{"ha":319,"x_min":15,"x_max":401,"o":"m 293 765 q 350 767 299 767 q 401 765 401 767 q 399 763 401 764 q 360 717 378 751 q 342 660 349 697 q 321 583 332 607 q 303 560 314 569 q 263 531 288 544 q 255 526 254 526 q 264 526 256 525 q 304 539 285 529 q 313 540 313 543 q 310 521 313 538 q 292 467 301 483 q 253 432 282 451 l 233 419 l 243 419 q 276 429 261 422 q 286 435 286 433 l 288 429 q 283 403 286 424 q 278 375 281 383 q 218 319 267 338 l 211 317 l 218 318 q 261 326 243 319 l 264 326 q 249 265 264 325 q 213 110 224 163 q 193 56 204 74 q 115 4 168 15 q 33 3 82 -4 q 15 7 17 6 l 19 8 q 60 43 44 13 q 74 88 65 56 q 106 218 81 118 q 157 431 143 367 q 199 599 193 592 q 222 610 201 604 q 279 654 272 626 q 281 661 281 657 l 281 669 l 279 674 l 278 672 q 271 657 278 668 q 260 642 264 646 q 214 625 244 625 q 169 669 169 625 q 179 711 169 689 q 232 751 194 740 q 293 765 256 760 z "},"J":{"ha":528,"x_min":14,"x_max":610,"o":"m 492 763 q 556 765 503 765 q 610 765 610 765 q 601 758 610 764 q 575 726 589 750 q 551 661 557 697 q 531 583 542 607 q 514 560 525 571 q 475 532 500 547 l 467 525 l 468 525 q 514 538 488 525 q 522 542 521 542 q 517 517 522 542 q 503 467 510 481 q 461 431 493 451 q 446 419 447 421 l 460 419 q 489 429 476 424 q 495 433 494 433 q 493 410 496 432 q 489 381 490 388 q 431 321 481 340 q 428 317 422 317 q 452 321 433 317 q 472 324 471 325 q 463 278 472 324 q 449 214 453 233 q 403 107 431 149 q 285 10 349 26 q 207 1 249 1 q 156 4 171 0 q 93 29 119 11 q 44 91 65 47 q 14 185 22 135 q 17 268 8 229 q 54 342 28 313 q 108 378 71 358 q 208 443 176 413 q 222 456 221 457 q 232 396 229 444 q 226 315 233 346 q 196 258 221 283 q 128 243 163 226 q 107 279 111 250 q 111 307 104 300 q 110 310 113 310 q 86 281 96 310 q 85 167 67 232 q 172 85 106 92 q 283 138 243 78 q 306 183 297 160 q 367 433 322 235 q 390 535 376 475 q 406 595 403 588 q 425 607 410 603 q 453 619 438 611 q 488 651 483 633 q 489 671 492 663 l 488 675 l 486 671 q 468 640 481 653 q 424 624 453 624 q 382 644 393 624 q 381 689 374 663 q 439 750 393 735 q 492 763 458 757 z "},"K":{"ha":694,"x_min":15,"x_max":785,"o":"m 299 375 q 353 368 332 378 q 390 333 374 358 q 438 222 410 303 q 481 113 464 140 q 524 75 499 85 q 544 72 531 72 q 608 103 593 72 q 612 120 613 110 q 608 135 611 131 l 607 139 l 604 131 q 564 94 599 99 q 529 117 542 93 q 527 172 518 140 q 561 226 536 203 q 614 261 586 250 q 644 269 642 271 q 642 261 644 268 q 649 204 631 239 q 669 150 663 175 q 672 116 672 139 q 668 82 671 93 q 586 7 649 28 q 533 0 565 0 q 439 33 471 3 q 390 147 403 67 q 368 250 379 214 q 335 322 354 292 q 293 367 317 349 l 288 374 q 299 375 288 375 m 347 764 q 361 765 351 765 l 379 765 l 388 764 l 382 761 q 353 722 363 751 q 344 676 350 713 q 294 456 338 632 q 228 175 263 326 q 203 75 207 83 q 139 11 185 28 q 78 1 114 1 q 15 7 22 0 l 19 8 q 60 43 44 13 q 74 88 65 56 q 106 218 81 118 q 157 431 143 368 q 199 600 193 590 q 231 617 201 607 q 276 642 271 631 l 275 644 q 255 633 269 638 q 231 632 240 629 q 218 642 222 635 q 221 693 208 661 q 278 749 238 733 q 347 764 303 760 m 779 761 q 785 764 783 767 q 782 711 789 753 q 748 614 771 658 q 703 558 725 569 q 667 551 689 551 q 632 556 646 550 q 614 589 613 564 q 615 599 614 597 q 615 601 617 601 q 581 583 604 600 q 496 478 550 560 q 468 439 476 447 q 336 382 425 393 l 288 378 q 300 382 288 379 q 356 413 326 392 q 406 460 383 432 q 446 522 426 483 q 483 585 465 560 q 572 669 528 646 q 644 688 593 679 q 735 718 706 696 q 779 761 765 740 z "},"L":{"ha":653,"x_min":14,"x_max":629,"o":"m 453 265 q 458 274 457 274 q 463 267 458 274 q 514 236 472 244 q 588 206 558 228 q 629 111 632 172 q 599 33 626 68 q 572 10 586 17 q 472 8 532 -11 q 421 36 447 15 q 317 78 368 75 q 297 79 297 78 q 319 90 297 83 q 372 90 340 96 q 447 68 394 86 q 486 61 467 63 q 546 78 522 60 q 562 106 558 86 q 560 144 565 125 q 544 164 554 160 q 533 167 533 169 q 536 163 532 165 q 544 153 540 160 q 547 133 547 146 q 536 101 547 113 q 510 94 526 94 q 489 100 499 94 q 459 129 472 108 q 440 174 446 150 q 440 224 436 199 q 453 265 444 244 m 331 763 q 363 765 344 765 l 381 765 l 375 761 q 338 681 344 744 q 299 507 332 638 q 233 240 261 358 q 199 122 210 139 q 144 86 179 92 l 139 86 l 143 82 q 188 61 156 71 q 250 50 221 51 q 283 51 278 47 q 282 56 283 53 q 290 68 279 61 q 339 65 306 75 q 403 33 372 56 q 417 23 410 29 q 430 12 425 17 q 433 7 435 7 q 419 11 432 7 q 354 22 385 25 q 285 8 307 15 q 186 1 261 1 q 114 4 124 0 q 28 86 60 21 q 14 124 14 115 q 22 125 14 125 q 71 147 50 125 q 85 169 81 157 q 100 222 89 181 q 150 436 136 369 q 190 600 186 593 q 207 611 193 606 q 258 631 253 628 q 271 646 271 639 l 268 644 q 231 631 257 631 q 218 633 224 631 q 206 660 207 639 q 217 701 206 681 q 276 751 236 738 q 331 763 300 760 z "},"M":{"ha":847,"x_min":14,"x_max":907,"o":"m 881 668 l 896 669 q 889 665 894 668 q 868 640 876 657 q 854 589 860 625 q 836 489 847 531 q 811 439 826 457 q 769 408 797 425 l 756 397 q 799 407 769 396 q 813 414 811 413 q 814 414 814 414 l 814 411 l 814 406 l 810 396 q 785 333 799 349 q 749 306 775 321 l 733 297 l 746 297 q 782 307 768 299 q 790 309 789 310 q 785 282 790 308 q 769 228 779 243 q 735 204 760 214 q 719 199 722 200 l 746 199 l 747 200 q 763 203 758 201 l 767 203 l 761 186 q 740 110 749 147 q 706 46 732 74 q 549 3 649 -11 q 524 8 524 7 q 532 14 524 10 q 588 82 569 39 q 678 404 596 103 q 699 475 696 471 q 728 489 701 479 q 781 519 775 506 l 782 522 l 779 518 q 756 506 772 510 q 728 507 739 503 q 717 544 710 514 q 739 589 724 568 q 822 646 757 613 q 881 668 856 663 m 899 768 l 907 772 l 907 765 q 864 689 901 726 q 806 646 836 660 q 760 638 778 633 q 743 649 751 640 q 735 665 735 658 q 729 664 735 668 q 697 631 717 656 q 610 447 654 574 q 533 250 561 304 q 472 163 507 197 q 447 142 457 147 q 415 129 438 136 q 346 92 371 117 q 338 84 338 82 q 339 97 338 86 q 381 192 346 161 q 403 201 392 201 q 410 197 408 201 l 413 193 l 421 203 q 524 422 464 249 q 596 606 568 549 q 676 724 639 690 q 768 767 711 756 q 828 765 794 772 q 899 768 874 756 m 83 771 q 85 774 85 774 q 86 767 86 774 q 90 756 86 760 q 125 744 100 747 q 194 746 142 743 q 303 758 264 751 q 365 765 346 765 q 403 754 385 764 q 461 694 436 738 q 514 489 508 617 q 508 422 515 453 q 490 358 506 413 q 475 301 475 303 l 475 306 l 474 317 l 474 332 q 454 500 471 408 q 408 636 438 590 q 378 668 394 656 l 372 671 l 367 665 q 358 657 360 661 q 324 519 356 651 q 288 356 317 486 q 221 81 231 101 q 113 3 190 19 q 33 3 79 -4 l 32 4 l 14 8 q 21 14 15 10 l 22 15 q 76 79 60 40 q 179 464 106 147 q 193 517 190 514 q 226 532 201 525 q 246 542 243 538 l 247 543 q 221 540 235 535 q 201 558 207 544 q 208 599 197 576 q 240 632 218 619 q 350 668 282 653 q 369 673 369 672 q 363 676 369 674 q 283 668 342 685 q 158 642 192 643 q 69 696 78 639 q 75 749 67 717 q 83 771 79 767 z "},"N":{"ha":750,"x_min":14,"x_max":833,"o":"m 819 769 q 833 772 833 772 q 832 770 833 771 q 822 764 831 769 q 801 735 811 754 q 792 689 796 721 q 769 578 782 615 q 747 539 760 553 q 707 508 733 525 q 689 497 690 499 l 708 500 q 743 511 724 503 q 751 514 751 515 q 738 464 751 500 q 719 431 729 442 q 683 406 710 419 l 669 397 l 681 399 q 719 407 704 400 q 728 408 726 410 q 722 382 726 406 q 706 330 715 344 q 669 301 697 315 l 656 293 q 693 301 669 293 q 703 303 701 304 l 683 242 q 661 175 669 196 q 643 119 643 131 q 653 82 643 100 q 674 58 660 67 q 678 54 678 56 q 650 32 678 51 q 601 7 625 14 q 514 8 553 -8 q 505 14 507 11 q 492 24 503 17 q 431 108 446 50 q 433 249 414 165 q 454 308 440 276 q 479 381 472 351 q 492 458 489 424 l 492 472 l 496 464 q 508 414 504 444 q 521 325 521 338 q 510 299 519 304 q 502 299 506 297 q 497 294 499 301 q 503 183 486 250 q 524 133 511 150 q 532 126 526 131 q 539 122 538 122 q 535 131 539 124 q 528 171 528 147 q 546 261 528 188 q 594 435 558 308 q 633 572 629 561 q 668 590 636 581 q 697 601 688 597 q 718 619 718 611 q 715 619 718 622 q 703 611 713 615 q 660 611 672 597 q 664 669 643 628 q 696 708 675 692 q 763 747 717 724 q 819 769 794 764 m 83 771 q 85 774 85 774 q 86 767 86 774 q 90 756 86 760 q 125 744 100 747 q 194 746 142 743 q 303 758 264 751 q 369 764 353 767 q 474 650 449 754 q 486 517 485 606 q 481 422 486 451 q 462 357 476 411 q 446 301 447 303 l 446 306 l 446 315 l 446 331 q 442 442 446 389 q 429 561 436 522 q 379 665 417 636 l 372 672 l 364 664 q 356 651 357 657 q 344 603 354 646 l 326 529 l 289 363 q 221 81 231 101 q 113 3 190 19 q 33 3 79 -4 l 32 4 l 14 8 q 21 14 15 10 l 22 15 q 76 79 60 40 q 179 464 106 147 q 193 517 190 514 q 226 532 201 525 q 246 542 243 538 l 247 543 q 221 540 235 535 q 201 558 207 544 q 208 599 197 576 q 240 632 218 619 q 350 668 282 653 q 369 673 369 672 q 363 676 369 674 q 283 668 342 685 q 158 642 192 643 q 69 696 78 639 q 75 749 67 717 q 83 771 79 767 z "},"O":{"ha":694,"x_min":42,"x_max":706,"o":"m 378 797 q 399 799 383 799 q 515 767 460 799 q 647 656 611 710 q 667 617 661 636 q 657 547 678 586 l 653 536 q 682 565 665 543 l 689 572 q 703 517 694 567 q 706 461 708 481 q 663 396 700 425 q 658 390 656 390 q 667 393 660 390 q 697 410 682 399 q 705 415 704 415 q 705 411 706 415 q 700 375 704 407 q 681 292 692 317 q 622 240 667 263 q 604 233 606 233 q 604 232 603 233 q 622 231 606 229 q 650 238 639 233 q 658 238 657 239 q 653 225 658 238 q 536 78 610 140 q 381 3 468 19 q 330 0 367 0 q 281 3 293 0 q 133 86 193 21 q 67 200 90 133 q 42 365 40 278 q 71 522 44 447 q 203 713 114 636 q 378 797 288 788 m 443 707 q 364 692 401 714 q 328 661 350 683 q 290 617 306 639 q 210 444 249 557 q 193 368 200 415 q 210 154 176 244 q 239 97 224 117 q 278 67 254 78 q 368 67 325 44 q 465 158 417 90 q 533 292 501 208 q 565 386 556 351 q 564 599 594 508 q 526 664 549 640 q 443 707 492 699 z "},"P":{"ha":625,"x_min":15,"x_max":649,"o":"m 325 664 q 361 671 357 671 q 357 664 365 671 q 329 614 339 649 q 232 203 308 539 q 201 75 206 83 q 182 42 194 57 q 32 4 136 -12 l 15 8 l 18 8 q 57 39 42 13 q 82 126 65 53 q 138 368 104 225 q 174 514 172 511 q 208 532 181 524 q 231 543 231 539 q 225 540 229 543 q 199 542 213 533 q 190 599 169 557 q 249 643 204 626 q 325 664 279 654 m 89 761 q 93 760 94 769 q 147 736 90 736 q 282 746 204 736 q 342 753 300 747 q 453 764 417 764 q 497 761 483 764 q 568 731 536 753 q 599 700 590 715 q 588 657 608 679 l 582 650 l 585 650 q 610 669 603 660 q 615 672 614 675 q 628 645 617 671 q 643 613 640 619 q 646 576 650 593 q 617 547 642 561 l 604 540 l 608 540 q 639 549 621 540 q 648 551 647 551 q 645 522 649 550 q 640 488 642 493 q 618 443 633 456 q 579 425 607 433 l 564 421 l 572 419 l 596 419 l 611 421 l 608 417 q 574 376 596 397 q 426 310 515 325 q 314 319 356 297 q 278 343 278 339 q 305 344 278 344 q 346 347 332 344 q 463 424 424 364 q 501 532 488 460 q 500 656 517 614 q 461 704 486 692 q 440 708 453 708 q 374 692 426 707 q 189 640 222 644 q 153 638 175 638 q 122 640 131 639 q 76 703 76 653 q 81 734 76 714 q 89 761 85 754 z "},"Q":{"ha":694,"x_min":42,"x_max":706,"o":"m 278 222 q 328 219 293 228 q 429 172 408 203 q 438 133 439 157 q 410 104 436 104 q 403 103 404 104 q 408 92 403 101 q 488 28 425 67 q 529 0 519 8 q 572 -93 561 -29 q 575 -124 578 -126 q 572 -117 574 -124 q 517 -46 557 -78 q 467 -17 497 -31 q 375 44 410 10 q 339 117 349 71 q 318 181 331 163 q 281 218 299 207 q 278 222 275 221 m 376 790 q 406 790 386 792 q 522 756 467 789 q 668 607 643 681 q 658 542 676 579 q 651 528 651 529 q 668 542 651 525 q 682 558 676 550 q 689 567 688 567 q 700 518 692 563 q 706 481 704 500 q 694 425 708 447 q 664 389 682 403 l 657 383 l 660 383 q 697 403 675 386 l 706 408 l 706 404 q 700 367 704 399 q 688 303 694 321 q 664 261 679 276 q 618 232 649 246 q 603 224 604 225 q 614 224 603 224 q 651 229 633 224 q 658 232 657 232 q 642 197 660 229 q 579 124 615 153 q 486 79 536 88 q 431 88 454 74 l 425 92 l 435 97 q 526 258 476 117 q 565 381 554 339 q 577 525 583 457 q 540 639 571 593 q 499 677 526 660 q 440 700 471 694 q 390 697 415 706 q 329 656 360 686 q 257 550 288 614 q 201 406 214 467 q 188 282 188 343 q 210 147 188 206 q 239 86 224 110 q 292 47 261 53 q 303 51 300 44 q 317 56 306 58 q 360 31 328 53 q 401 6 396 6 q 399 1 410 6 q 394 0 396 1 q 274 -3 339 -15 q 156 58 210 10 q 75 169 101 106 q 42 358 40 261 q 100 576 44 475 q 222 722 146 664 q 376 790 297 781 z "},"R":{"ha":653,"x_min":15,"x_max":649,"o":"m 274 308 q 268 315 267 315 q 321 299 279 315 q 385 246 368 282 q 403 186 394 229 q 443 89 421 111 q 497 72 465 68 q 547 96 532 76 q 554 108 553 104 q 551 136 557 122 l 549 142 l 547 132 q 531 104 546 117 q 505 95 519 96 q 482 103 490 94 q 476 190 450 133 q 565 264 501 244 q 583 268 579 268 l 588 269 l 583 263 q 591 202 574 239 q 614 136 608 165 q 613 97 617 117 q 583 40 607 64 q 522 4 558 17 q 481 0 510 0 q 442 6 453 0 q 403 28 418 14 q 375 67 388 43 q 356 138 364 92 q 325 235 344 199 q 274 308 306 271 m 325 664 q 361 671 357 671 q 357 664 365 671 q 329 614 339 649 q 232 203 308 539 q 201 75 206 83 q 182 42 194 57 q 32 4 136 -12 l 15 8 l 18 8 q 57 39 42 13 q 82 126 65 53 q 138 368 104 225 q 174 514 172 511 q 208 532 181 524 q 231 543 231 539 q 225 540 229 543 q 199 542 213 533 q 190 599 169 557 q 249 643 204 626 q 325 664 279 654 m 89 761 q 93 760 94 769 q 147 736 90 736 q 282 746 204 736 q 342 753 300 747 q 453 764 417 764 q 497 761 483 764 q 568 731 536 753 q 599 700 590 715 q 588 657 608 679 l 582 650 l 585 650 q 610 669 603 660 q 615 672 614 675 q 628 645 617 671 q 643 613 640 619 q 646 576 650 593 q 617 547 642 561 l 604 540 l 608 540 q 639 549 621 540 q 648 551 647 551 q 645 522 649 550 q 640 488 642 493 q 618 443 633 456 q 579 425 607 433 l 564 421 l 572 419 l 596 419 l 611 421 l 608 417 q 574 376 596 397 q 426 310 515 325 q 314 319 356 297 q 278 343 278 339 q 305 344 278 344 q 346 347 332 344 q 463 424 424 364 q 501 532 488 460 q 500 656 517 614 q 461 704 486 692 q 440 708 453 708 q 374 692 426 707 q 189 640 222 644 q 153 638 175 638 q 122 640 131 639 q 76 703 76 653 q 81 734 76 714 q 89 761 85 754 z "},"S":{"ha":611,"x_min":14,"x_max":760,"o":"m 497 807 q 590 792 544 811 q 633 767 611 783 q 672 740 660 744 q 703 736 686 735 q 749 763 725 739 q 760 771 758 771 q 754 717 764 767 q 725 636 743 667 q 688 600 710 611 q 662 594 675 594 q 642 597 649 594 q 618 617 626 604 q 615 636 614 625 q 632 679 615 668 l 636 683 l 622 701 q 571 749 596 736 q 489 758 528 768 q 432 724 453 750 q 408 676 414 701 q 426 583 401 633 q 501 486 444 544 q 581 394 571 414 q 583 364 590 378 q 561 338 578 351 q 554 329 553 331 q 572 337 557 329 q 592 350 586 344 q 596 354 594 354 q 598 346 597 354 q 603 314 599 338 q 603 254 608 275 q 590 231 600 239 q 560 214 581 222 l 547 207 q 565 207 551 206 q 586 211 579 208 q 596 214 594 214 q 583 183 597 213 q 561 142 569 154 q 340 8 496 36 q 225 1 271 -4 q 128 38 172 10 q 57 107 83 65 q 14 250 14 172 q 36 353 14 307 q 88 416 54 389 q 158 451 122 443 q 217 449 189 457 q 258 419 236 442 q 296 360 286 394 q 228 219 318 283 q 196 175 197 199 q 194 165 196 165 q 178 179 192 165 q 161 200 165 193 q 136 278 136 238 q 144 324 136 304 q 170 351 154 342 q 200 354 186 360 q 221 332 213 347 q 222 299 231 311 q 219 293 219 294 q 232 303 224 292 q 236 317 236 308 q 214 369 236 350 q 172 385 197 385 q 147 381 157 385 q 126 371 136 378 q 75 281 90 346 q 126 100 50 178 q 247 44 178 49 q 353 69 300 42 q 427 131 397 92 q 465 218 457 171 q 464 307 475 265 q 383 446 449 368 q 329 531 344 493 q 311 608 311 569 q 347 721 311 672 q 390 763 364 743 q 497 807 442 801 z "},"T":{"ha":514,"x_min":69,"x_max":739,"o":"m 360 674 q 358 678 360 674 q 352 687 356 682 q 350 692 349 692 q 385 688 356 692 q 419 683 415 683 q 482 633 463 672 q 482 572 496 603 q 458 547 474 554 q 436 542 449 542 q 407 553 418 542 q 403 554 403 557 q 404 549 403 553 q 426 532 408 542 q 454 513 451 517 q 457 486 460 504 q 425 425 450 444 q 397 408 417 418 q 381 399 381 400 q 394 399 381 397 q 429 410 414 403 q 438 413 438 414 q 433 392 439 413 q 425 361 428 371 q 406 329 417 340 q 372 306 396 318 l 358 297 l 371 297 q 407 307 393 299 l 414 310 l 414 304 q 386 221 403 236 q 350 201 374 208 q 344 199 344 200 q 351 197 346 197 q 364 199 356 197 q 379 201 372 200 q 390 202 389 203 q 385 182 390 201 q 365 111 372 144 q 332 47 357 75 q 247 3 300 14 q 169 3 217 -3 l 147 8 l 149 10 q 178 32 160 14 q 205 67 196 50 q 225 122 214 83 q 324 483 260 238 q 360 622 357 614 q 363 649 363 631 q 360 674 364 667 m 724 781 q 724 785 722 785 q 735 758 728 785 q 739 720 739 743 q 735 689 739 697 q 672 629 719 642 q 611 642 628 618 q 607 654 607 647 q 617 672 608 669 q 617 676 625 676 q 597 664 610 676 q 588 657 592 658 q 553 658 581 653 q 501 671 525 663 q 463 686 492 674 q 401 710 421 706 q 357 715 382 715 q 267 703 313 715 q 201 664 213 688 q 204 663 199 657 q 228 675 213 672 q 258 671 244 678 q 278 631 278 661 q 258 581 278 599 q 203 560 239 563 q 113 600 142 557 q 84 669 99 621 q 69 743 69 717 l 69 750 l 76 743 q 119 732 96 724 q 150 747 126 733 q 181 763 174 760 q 331 782 232 782 q 465 764 379 782 q 606 747 538 750 q 706 754 686 744 q 724 781 725 765 z "},"U":{"ha":597,"x_min":15,"x_max":667,"o":"m 272 768 q 300 769 300 769 q 294 764 300 768 q 264 719 272 751 q 256 674 261 708 q 210 472 250 639 q 166 288 169 304 q 154 240 163 271 q 139 140 139 181 q 142 106 139 117 q 159 72 147 83 q 193 54 171 60 q 263 53 225 46 q 325 85 304 63 q 353 136 340 100 q 386 246 365 168 q 404 307 392 267 q 435 431 422 369 q 476 603 472 592 q 500 617 481 610 q 545 634 535 628 q 558 649 556 640 l 556 647 q 535 636 549 640 q 511 635 521 632 q 496 647 500 638 q 494 680 490 660 q 510 715 499 700 q 596 763 533 750 q 624 766 606 764 q 653 769 642 768 q 667 768 665 769 q 661 764 667 767 q 642 746 647 757 q 622 678 631 731 q 608 606 615 625 q 588 567 600 581 q 539 532 575 554 l 533 529 l 542 529 q 579 540 560 531 q 592 544 592 546 q 582 496 593 539 q 531 435 572 461 q 522 428 526 431 q 517 425 518 426 l 514 422 q 525 424 515 422 q 561 435 549 428 q 566 438 565 438 q 567 433 567 438 q 563 408 565 429 q 555 371 560 382 q 538 347 550 360 q 497 322 526 335 l 525 325 l 529 325 q 545 328 544 329 q 538 306 546 328 q 506 200 522 263 q 459 88 485 125 q 386 28 433 51 q 243 0 329 0 q 132 17 181 0 q 18 122 39 49 q 15 165 15 138 q 32 267 14 203 q 44 318 43 308 q 78 469 49 342 q 110 603 107 596 q 143 619 114 610 q 190 649 188 636 q 190 650 192 651 l 186 646 q 172 638 181 640 q 144 635 154 632 q 126 665 126 639 q 140 710 126 688 q 171 743 153 732 q 272 768 207 764 z "},"V":{"ha":694,"x_min":69,"x_max":854,"o":"m 844 758 q 853 760 853 763 q 849 746 854 758 q 750 632 814 657 q 719 633 726 624 l 717 636 l 714 633 q 686 592 701 624 q 643 486 663 539 q 622 426 633 458 q 525 183 581 313 q 485 94 503 133 q 460 61 474 75 q 403 28 429 31 q 369 17 389 25 q 339 3 349 10 q 331 4 332 -1 q 329 19 331 8 q 343 104 325 68 q 394 138 361 138 q 411 125 407 138 q 406 93 419 104 q 403 89 401 89 q 421 103 408 89 q 481 236 454 142 q 510 325 496 290 q 532 382 519 350 q 656 672 592 544 q 683 719 675 711 q 717 741 697 735 q 771 747 736 747 q 844 758 818 747 m 69 767 l 69 772 l 76 767 q 149 735 100 747 q 178 732 161 732 q 250 742 199 733 q 353 747 331 754 q 410 696 389 736 q 425 646 419 678 q 453 522 432 614 q 486 356 476 422 q 485 272 492 308 q 455 196 475 229 q 411 151 435 163 q 385 146 396 144 q 381 151 381 147 q 383 169 382 154 q 325 461 385 225 q 300 579 306 538 q 274 660 293 636 q 265 671 265 671 q 264 659 264 671 q 261 642 264 647 q 231 622 253 628 q 203 619 218 619 q 139 647 164 622 q 72 750 88 697 q 69 767 69 761 z "},"W":{"ha":931,"x_min":69,"x_max":1088,"o":"m 643 571 q 648 576 647 576 q 647 564 649 575 q 654 481 640 521 q 697 339 674 428 q 710 278 710 292 q 690 204 710 242 q 647 149 672 167 q 638 143 638 142 q 639 149 638 144 q 644 203 649 174 q 629 253 643 213 q 597 356 603 332 q 589 417 590 381 q 603 506 588 475 q 643 571 626 553 m 661 615 q 664 615 663 617 l 661 614 l 656 607 l 649 599 q 589 506 603 550 q 581 383 581 476 q 579 293 581 308 q 510 124 568 222 q 472 75 490 93 q 403 28 431 33 q 339 3 358 17 q 331 4 332 -1 q 329 19 331 8 q 343 104 325 68 q 394 138 361 138 q 411 125 407 138 q 406 93 419 104 q 403 89 401 89 q 440 127 414 89 q 482 207 465 165 q 524 376 508 268 q 547 492 535 454 q 583 564 558 529 q 619 596 596 582 q 661 615 640 608 m 1078 758 q 1088 761 1086 763 q 1072 722 1089 756 q 982 632 1038 651 q 953 633 960 624 l 950 636 l 947 633 q 919 592 935 624 q 867 460 894 536 q 808 307 846 399 q 724 106 753 167 l 707 75 l 693 61 q 636 26 663 31 q 601 17 622 25 q 572 3 581 10 q 564 4 565 -1 q 563 19 564 8 q 576 104 558 68 q 628 138 594 138 q 647 115 643 138 q 646 102 649 108 q 639 92 643 96 q 636 89 635 89 q 654 103 642 89 q 714 238 689 143 q 740 317 728 286 q 763 376 749 340 q 889 672 825 544 q 917 719 908 711 q 950 740 931 735 q 1004 747 969 747 q 1078 758 1051 747 m 69 767 l 69 772 l 76 767 q 149 735 100 747 q 178 732 161 732 q 250 742 199 733 q 353 747 331 754 q 410 696 389 736 q 425 646 419 678 q 453 522 432 614 q 486 356 476 422 q 485 272 492 308 q 455 196 475 229 q 411 151 435 163 q 385 146 396 144 q 381 151 381 147 q 383 169 382 154 q 325 461 385 225 q 300 579 306 538 q 274 660 293 636 q 265 671 265 671 q 264 659 264 671 q 261 642 264 647 q 231 622 253 628 q 203 619 218 619 q 139 647 164 622 q 72 750 88 697 q 69 767 69 761 z "},"X":{"ha":875,"x_min":14,"x_max":981,"o":"m 156 450 q 185 452 167 453 q 217 449 204 451 q 258 419 238 440 q 296 360 286 394 q 228 219 318 283 q 196 175 197 199 q 194 165 196 165 q 178 179 192 165 q 161 200 165 193 q 136 278 136 238 q 144 324 136 304 q 170 351 154 342 q 200 354 186 360 q 221 332 213 347 q 222 299 231 311 q 219 293 219 294 q 232 303 224 292 q 236 317 236 308 q 214 369 236 350 q 172 385 197 385 q 147 382 158 385 q 93 329 115 371 q 69 222 65 276 q 106 125 72 168 q 151 79 126 97 q 275 46 208 38 q 357 65 318 51 q 456 150 417 89 q 499 228 467 167 q 522 285 521 268 q 524 293 522 293 q 532 274 525 293 q 542 247 539 256 q 535 200 546 228 q 465 75 506 119 q 357 13 422 31 q 225 1 288 -7 q 128 38 172 10 q 57 107 83 65 q 14 250 14 172 q 36 353 14 307 q 87 415 54 388 q 156 450 119 442 m 867 768 q 910 765 878 769 q 971 768 947 761 q 981 769 979 769 q 958 728 983 767 q 906 673 936 694 q 851 651 875 651 q 831 665 831 651 q 826 667 831 668 q 794 653 814 664 q 772 633 785 647 q 711 553 747 606 q 657 464 675 500 q 650 451 651 451 q 638 475 646 451 q 634 496 635 483 q 642 526 633 508 q 785 732 697 654 q 867 768 818 761 m 219 764 l 219 772 l 224 769 q 286 739 239 754 q 322 733 301 733 q 400 742 343 733 q 482 750 457 750 q 538 725 514 749 q 574 654 564 700 q 638 457 583 613 q 728 193 683 324 q 776 54 772 63 q 800 24 786 33 q 824 14 811 15 l 831 13 l 825 11 q 801 6 818 10 q 752 1 783 1 q 710 3 721 0 q 625 47 651 15 q 601 97 611 64 q 535 304 586 150 q 464 525 482 463 q 450 586 451 567 q 438 639 446 621 q 417 669 429 658 l 413 672 l 414 664 q 401 631 418 643 q 353 619 385 618 q 290 647 317 622 q 242 707 261 674 q 219 764 222 740 z "},"Y":{"ha":694,"x_min":15,"x_max":861,"o":"m 310 -192 q 418 -101 379 -161 q 574 276 454 -47 q 625 410 599 344 q 676 542 651 475 q 703 605 697 593 q 718 626 710 617 q 725 629 724 631 q 740 624 731 624 q 776 636 756 624 q 814 669 797 649 q 844 715 832 689 q 861 756 861 749 q 850 753 861 757 q 778 742 828 743 q 731 738 740 740 q 692 715 707 731 l 681 704 l 650 642 q 553 425 581 503 q 506 289 542 393 q 385 -24 428 64 q 278 -153 338 -129 q 200 -164 239 -168 q 122 -137 139 -158 q 74 1 74 -82 q 90 76 74 43 q 178 142 124 143 q 200 136 192 142 q 236 75 235 119 q 233 60 236 64 q 221 49 226 49 q 222 54 219 49 q 222 88 231 69 q 189 111 210 111 q 159 98 172 111 q 139 63 146 85 q 138 33 138 53 q 149 -19 138 7 q 181 -67 160 -46 l 194 -81 l 197 -69 q 205 -46 199 -54 q 231 -22 211 -37 q 300 86 300 32 q 238 193 300 151 q 194 208 219 206 q 81 164 138 214 q 25 78 42 131 l 21 57 l 15 14 q 18 -53 11 -14 q 44 -117 22 -78 q 117 -189 68 -156 q 217 -217 163 -215 q 310 -192 253 -217 m 76 760 l 75 767 l 81 763 q 147 731 99 746 q 179 728 158 728 q 212 729 200 728 q 258 736 224 731 q 339 744 315 744 q 396 717 369 743 q 417 688 410 704 q 435 625 426 669 q 451 553 440 601 q 493 347 483 414 q 490 271 499 303 q 439 153 482 239 l 417 111 l 413 129 q 347 397 404 188 q 311 536 315 515 q 307 575 310 546 q 293 633 301 617 q 274 661 286 650 l 269 665 l 269 653 q 267 635 269 639 q 235 615 257 621 q 185 618 211 610 q 140 646 161 625 q 76 760 83 707 z "},"Z":{"ha":750,"x_min":83,"x_max":819,"o":"m 544 265 q 549 274 549 274 q 554 267 550 274 q 606 236 564 244 q 679 206 650 228 q 721 111 724 172 q 690 33 718 68 q 664 10 678 17 q 564 8 624 -11 q 513 36 539 15 q 408 78 460 75 q 389 79 389 78 q 410 90 389 83 q 464 90 432 96 q 539 68 486 86 q 578 61 558 63 q 638 78 614 60 q 653 106 650 86 q 651 144 657 125 q 636 164 646 160 q 625 167 625 169 q 628 163 624 165 q 635 153 632 160 q 639 133 639 146 q 628 101 639 113 q 601 94 618 94 q 581 100 590 94 q 551 129 564 108 q 532 174 538 150 q 532 224 528 199 q 544 265 536 244 m 583 636 q 653 631 613 640 q 683 622 661 629 q 722 609 704 615 q 739 603 740 603 q 727 599 738 601 q 703 589 717 597 q 646 544 675 576 q 604 488 624 521 q 556 419 581 449 q 464 314 535 396 q 283 110 310 133 q 236 86 263 90 l 231 86 l 235 82 q 280 61 247 71 q 342 50 313 51 q 375 51 369 47 q 374 56 375 53 q 382 68 371 61 q 431 65 397 75 q 494 33 464 56 q 509 23 501 29 q 522 12 517 17 q 525 7 526 7 q 511 11 524 7 q 446 22 476 25 q 376 8 399 15 q 279 1 353 1 q 208 4 217 0 q 111 86 154 22 q 83 144 83 129 q 100 147 83 147 q 150 160 126 149 q 200 200 172 171 q 388 414 260 263 q 463 503 460 500 q 485 506 467 506 q 515 513 515 507 q 511 515 515 514 q 494 535 499 521 q 500 581 489 558 q 531 615 508 600 q 583 636 556 632 m 97 765 q 99 776 97 776 q 114 760 100 776 q 146 732 132 739 q 172 724 161 724 q 203 717 188 724 q 226 692 215 710 q 231 685 231 686 q 228 700 232 685 q 222 716 225 710 q 218 723 218 722 q 233 724 218 724 q 311 743 256 725 q 425 764 385 765 q 665 703 497 761 q 731 693 706 689 q 793 749 786 703 q 794 758 794 757 q 797 756 796 758 q 800 750 799 754 l 806 742 l 808 733 l 811 726 q 819 675 819 700 q 814 650 818 658 q 790 626 807 635 q 728 621 768 617 q 664 639 700 625 q 515 667 586 668 q 400 650 456 667 q 359 641 368 642 q 333 644 350 640 q 306 649 314 651 q 290 635 297 647 l 296 638 q 325 638 310 643 q 353 616 342 633 q 363 582 364 599 q 346 551 361 568 q 282 526 318 525 q 250 535 269 528 q 200 557 213 547 q 187 568 194 561 q 179 576 179 575 q 189 578 179 578 q 208 582 199 578 l 215 586 q 185 596 203 586 q 154 639 163 606 q 136 679 147 665 q 97 765 100 728 z "},"[":{"ha":333,"x_min":-69,"x_max":429,"o":"m 160 -57 q 122 -64 129 -53 q 119 -74 118 -68 l 121 -78 l 113 -78 q 75 -75 99 -78 q 63 -74 67 -74 q 42 -58 49 -69 q 44 -3 36 -46 q 122 290 47 13 q 201 583 196 568 q 224 633 214 618 q 271 658 238 654 q 311 661 294 661 l 319 661 l 318 660 q 318 654 318 657 q 361 636 329 638 q 403 644 390 633 q 429 703 431 674 q 421 732 428 724 q 417 729 417 739 q 394 721 417 724 q 319 717 382 719 q 210 710 233 715 q 168 694 182 703 q 107 625 131 672 q 15 292 103 617 q -65 -13 -57 22 q -69 -65 -74 -49 q -56 -97 -67 -81 q -33 -118 -44 -112 q 22 -132 -14 -129 q 97 -136 56 -135 q 203 -150 183 -140 q 207 -156 206 -151 l 207 -157 l 211 -147 q 214 -99 219 -118 q 160 -57 204 -67 z "},"\\":{"ha":417,"x_min":-28,"x_max":410,"o":"m -22 628 l -15 629 q 3 627 -12 629 q 24 624 18 625 q 62 598 39 618 q 101 557 85 578 q 194 394 154 486 q 274 208 217 346 q 325 88 318 103 q 399 -17 356 25 q 410 -29 410 -28 q 394 -33 410 -32 q 367 -32 378 -33 q 306 7 339 -26 q 226 118 267 46 q 110 374 190 181 q 51 510 63 485 q 19 564 39 536 q -28 619 -12 611 q -22 628 -40 625 z "},"]":{"ha":335,"x_min":-158,"x_max":335,"o":"m -51 -57 q -106 -42 -72 -31 q -149 -72 -140 -54 q -158 -108 -154 -86 q -153 -137 -160 -126 l -149 -147 l -146 -143 q -126 -133 -140 -135 q -61 -131 -112 -131 q 58 -121 29 -128 q 114 -99 94 -112 q 156 -47 136 -83 q 249 292 163 -35 q 335 631 335 619 q 311 685 335 661 q 278 703 300 696 q 158 714 258 708 q 83 720 103 717 q 61 733 63 724 l 58 731 q 56 678 42 707 q 90 642 67 651 q 121 635 107 635 q 150 650 147 635 q 149 653 151 651 l 161 656 q 204 650 182 656 q 224 636 221 644 q 224 614 225 632 q 221 581 224 596 q 144 286 218 563 q 64 -3 69 10 q 36 -56 43 -50 q -8 -72 22 -69 q -47 -74 -54 -75 q -46 -71 -46 -74 q -51 -57 -44 -64 z "},"^":{"ha":472,"x_min":15,"x_max":469,"o":"m 342 607 q 361 610 356 610 l 367 610 l 368 594 q 397 464 368 563 q 467 269 444 308 l 469 264 l 456 264 q 392 288 401 264 q 379 325 389 293 q 325 521 328 481 l 325 533 l 297 506 q 199 398 256 464 q 114 292 143 332 q 99 274 104 278 q 83 267 93 269 q 58 264 75 264 q 15 268 19 264 q 15 269 14 268 l 19 272 l 24 276 q 128 397 44 294 q 271 564 224 517 q 308 594 294 586 q 342 607 321 603 z "},"_":{"ha":500,"x_min":-43,"x_max":508,"o":"m 494 -71 q 508 -67 508 -62 q 497 -101 508 -78 q 461 -137 488 -121 q 393 -165 435 -156 q 132 -176 329 -181 q 24 -179 50 -174 q -39 -204 -19 -187 l -42 -207 l -43 -203 q -32 -168 -43 -192 q -17 -147 -28 -157 q 133 -93 25 -106 q 329 -93 172 -89 q 442 -90 417 -96 q 494 -71 475 -82 z "},"`":{"ha":461,"x_min":169,"x_max":432,"o":"m 389 683 l 196 831 q 169 875 169 850 q 183 908 169 894 q 218 922 197 922 q 271 892 246 922 l 432 683 l 389 683 z "},"a":{"ha":472,"x_min":21,"x_max":483,"o":"m 213 354 q 256 353 239 358 q 286 303 285 343 l 286 286 l 282 292 q 263 307 276 300 q 212 305 242 317 q 154 265 182 293 q 129 228 135 246 q 118 132 110 174 q 142 94 124 103 q 186 103 161 86 q 218 136 204 114 q 222 150 226 150 q 213 157 217 150 q 211 174 210 164 q 229 200 213 183 q 253 233 247 221 q 258 238 257 242 q 258 207 258 232 q 256 167 257 182 q 244 113 250 131 q 210 47 232 76 q 143 3 182 11 q 96 3 119 -3 q 61 19 75 7 q 22 94 32 43 q 21 133 21 107 q 32 200 22 169 q 77 279 46 243 q 150 336 108 315 q 213 354 179 351 m 456 510 q 481 513 474 513 q 483 511 482 511 q 449 447 454 492 q 426 336 440 372 q 407 301 418 314 q 369 274 397 289 q 354 263 356 264 l 378 267 q 397 274 388 269 q 408 277 407 278 q 404 257 408 276 q 397 231 400 238 q 382 201 390 213 q 340 169 372 189 l 331 164 l 340 165 q 375 175 361 167 q 381 177 379 178 q 381 172 382 176 q 376 139 379 165 q 368 82 372 97 q 346 44 360 50 q 342 42 342 43 q 356 38 342 40 q 424 44 392 29 q 435 49 433 49 q 425 31 436 46 q 385 4 408 10 q 304 7 364 0 q 213 4 244 14 q 200 1 201 1 q 199 10 199 1 q 204 28 199 21 q 225 46 210 36 q 238 60 235 53 q 250 99 242 68 l 271 189 q 303 331 300 325 q 333 347 307 339 q 379 374 376 361 q 376 373 381 376 q 365 365 372 369 q 344 361 358 361 q 328 365 331 361 q 321 392 319 372 q 344 461 321 435 q 392 490 357 474 q 456 510 424 506 m 197 526 q 318 517 207 529 q 389 515 365 511 q 406 521 397 517 q 415 524 415 525 q 408 516 415 522 q 396 507 400 510 q 371 489 390 504 q 319 457 336 464 q 238 464 297 449 q 147 464 178 478 q 129 446 129 456 q 135 444 129 443 q 144 440 142 444 q 133 406 156 426 q 83 381 113 385 q 74 379 76 381 l 71 381 l 74 383 q 92 401 86 389 q 92 421 93 407 q 97 461 90 446 q 197 526 125 515 z "},"b":{"ha":458,"x_min":-29,"x_max":436,"o":"m 285 510 q 325 508 300 514 q 368 489 350 501 q 400 458 388 475 q 404 435 407 450 q 392 410 401 421 q 390 406 389 407 q 398 413 390 406 q 410 425 406 419 l 415 432 l 419 424 q 431 376 431 397 q 427 353 431 363 q 412 333 424 344 q 403 324 400 322 q 424 333 413 326 q 434 338 433 340 q 435 311 435 335 q 435 278 436 288 q 403 240 429 253 l 397 236 q 422 243 408 236 q 431 245 431 246 q 429 238 432 244 q 422 215 426 232 q 344 44 399 101 q 283 3 313 11 q 259 0 274 0 q 233 6 244 0 q 185 57 203 21 q 171 131 171 86 q 175 158 171 146 q 185 208 183 188 l 186 222 l 194 203 q 211 153 211 169 q 196 126 211 131 q 194 118 190 126 q 232 76 210 88 q 267 76 250 68 q 304 124 289 88 q 335 261 324 169 q 332 417 349 367 q 313 450 326 438 q 282 465 299 463 q 249 456 265 467 q 242 451 243 451 q 250 476 239 454 q 285 510 261 501 m 297 765 q 314 766 307 765 q 324 767 321 767 q 328 765 328 767 q 322 763 328 764 q 299 736 307 754 q 285 672 292 721 q 232 444 278 631 q 167 169 203 326 q 146 83 151 100 q 131 49 140 65 q 100 17 118 26 q 21 0 69 -3 q -29 7 -25 3 l -24 8 q 13 36 -3 13 q 20 51 17 42 q 61 214 24 60 q 118 450 103 383 q 156 601 151 594 q 193 619 160 608 q 233 640 226 631 l 236 647 l 233 646 q 210 633 226 638 q 183 633 193 629 q 172 658 172 639 q 179 699 171 678 q 242 754 200 740 q 297 765 268 763 z "},"c":{"ha":403,"x_min":28,"x_max":428,"o":"m 265 506 q 297 508 278 508 q 328 503 318 507 q 354 485 338 500 q 390 467 376 467 q 418 482 403 467 l 428 492 l 426 478 q 408 403 424 436 q 372 372 394 375 q 343 388 353 369 q 342 408 340 394 q 349 428 343 421 l 354 432 l 349 438 q 336 450 344 443 q 283 457 308 471 q 185 339 228 425 q 150 196 150 271 q 163 118 150 147 q 188 81 171 100 q 219 56 204 63 q 246 51 235 49 q 283 75 263 56 q 299 93 299 92 q 293 94 299 94 q 275 128 274 99 q 279 147 275 139 q 304 179 288 167 q 326 194 311 185 q 342 202 342 203 q 341 195 343 201 q 339 158 339 189 q 331 88 339 113 q 301 38 321 58 q 269 14 285 21 q 186 0 242 0 q 139 4 151 1 q 79 40 104 14 q 49 82 61 58 q 32 133 38 106 q 28 183 28 147 q 32 235 29 218 q 74 358 43 300 q 140 444 103 413 q 265 506 193 489 z "},"d":{"ha":472,"x_min":21,"x_max":554,"o":"m 239 522 q 272 523 250 524 q 303 519 293 522 q 321 502 315 513 q 329 468 326 492 q 328 456 329 456 q 326 458 326 456 q 306 475 324 467 q 283 478 297 478 q 243 468 264 478 q 146 358 179 438 q 113 203 117 288 q 128 108 110 136 q 150 93 139 93 q 211 133 179 93 q 222 151 228 154 q 211 157 217 150 q 210 182 204 168 q 226 203 213 188 q 253 239 250 228 q 254 243 253 243 q 256 226 256 240 q 254 192 256 213 q 251 158 253 171 q 229 89 244 119 q 199 39 214 56 q 160 11 183 22 q 108 0 135 0 q 83 3 92 1 q 24 96 39 18 q 21 150 22 110 q 29 247 21 206 q 135 458 53 368 q 239 522 182 511 m 493 761 q 526 767 501 764 q 552 771 550 771 q 554 769 554 771 q 550 767 554 768 q 518 704 524 751 q 496 593 508 626 q 476 558 488 571 q 438 529 464 544 l 425 521 q 428 521 425 519 q 467 531 449 522 q 478 536 476 536 q 465 483 481 532 q 449 451 460 463 q 417 428 439 439 l 406 421 l 408 421 q 442 432 426 424 l 451 436 l 451 432 q 450 418 450 429 q 425 339 444 356 q 392 319 413 328 l 385 317 l 388 317 q 415 319 396 314 q 426 322 425 322 q 403 217 428 319 q 343 50 368 75 l 336 43 l 349 40 q 376 37 363 38 q 403 40 390 36 q 424 47 415 43 q 431 50 431 51 q 425 38 432 49 q 385 7 408 13 q 306 8 361 1 q 206 6 240 17 q 196 3 197 3 l 196 7 l 197 17 l 199 24 q 221 46 201 33 q 235 60 231 53 q 275 207 239 67 q 319 378 311 350 q 349 498 326 407 q 375 592 372 589 q 406 606 379 597 q 433 617 426 613 q 449 631 447 624 q 444 629 450 633 q 411 618 431 617 q 394 626 397 619 q 390 653 390 632 q 425 728 393 706 q 458 747 433 735 q 493 761 483 758 z "},"e":{"ha":431,"x_min":32,"x_max":424,"o":"m 263 506 q 287 506 268 507 q 314 504 306 506 q 386 464 365 496 q 376 429 399 444 l 369 424 q 388 433 376 424 q 399 442 397 442 q 415 411 401 442 q 392 350 435 372 q 381 346 383 346 q 379 344 379 346 q 383 343 379 343 q 394 344 388 343 q 404 347 400 346 q 417 353 411 350 q 423 357 422 357 q 424 349 424 357 q 423 331 424 340 q 422 315 422 321 q 385 249 414 268 q 304 231 363 233 q 260 231 275 229 q 189 249 229 233 q 167 256 169 256 q 161 243 165 256 q 158 97 140 153 q 221 39 175 47 q 266 47 240 36 q 313 79 292 57 l 324 90 l 318 93 q 307 115 307 99 q 319 153 307 131 q 357 190 331 172 q 374 201 374 201 q 373 191 375 201 q 374 169 371 181 q 381 128 381 146 q 367 76 382 99 q 263 8 328 22 q 161 1 206 -6 q 57 64 92 11 q 33 125 42 88 q 32 204 28 157 q 108 415 43 326 q 164 469 133 449 q 247 504 204 499 q 263 506 261 506 m 286 468 q 272 468 279 469 q 224 411 251 461 q 178 306 192 356 l 175 296 l 178 294 q 222 281 200 286 q 249 278 231 279 q 294 288 276 278 q 333 357 333 307 q 315 438 333 399 q 286 468 303 463 z "},"f":{"ha":389,"x_min":-15,"x_max":492,"o":"m 343 760 q 376 760 353 761 q 411 758 400 760 q 486 694 456 747 q 492 608 507 656 q 460 554 483 582 q 446 534 450 543 q 442 514 442 525 l 443 501 l 439 504 q 415 526 429 510 q 393 557 401 543 q 383 601 383 578 q 392 638 382 624 q 419 653 403 653 q 439 626 439 653 q 440 617 439 618 q 443 621 442 615 q 444 649 449 631 q 408 708 435 697 q 347 692 375 721 q 313 624 335 681 q 278 522 290 568 q 261 454 260 456 q 279 451 261 453 q 354 460 325 444 l 365 465 l 363 449 q 361 444 363 446 q 347 422 357 433 q 328 408 336 411 q 263 392 299 392 q 249 390 251 392 q 244 382 246 389 q 222 297 236 342 q 190 174 215 271 q 158 64 165 78 q 46 0 128 0 q -7 7 26 0 l -15 10 q -11 11 -14 11 q 22 35 7 11 q 49 111 31 49 q 83 237 61 160 q 115 357 104 314 q 128 401 126 400 l 124 404 q 96 407 118 406 q 36 394 61 410 q 28 390 29 390 l 28 394 l 31 403 l 35 414 q 126 464 56 458 q 144 466 143 465 q 164 532 146 467 q 188 611 182 597 q 269 728 219 692 q 343 760 303 751 z "},"g":{"ha":389,"x_min":-71,"x_max":464,"o":"m 207 507 q 233 507 218 508 q 315 469 282 501 l 324 463 l 332 471 q 383 489 353 494 q 406 482 394 486 q 424 475 419 475 q 438 482 428 475 q 456 497 447 489 l 464 504 l 464 497 q 448 448 464 475 q 414 411 432 421 q 378 411 396 403 q 364 432 365 417 l 364 444 l 358 436 q 353 410 350 422 q 358 347 360 386 q 349 281 357 311 q 314 203 338 238 q 286 172 304 189 q 253 149 268 156 q 208 138 242 142 q 150 117 165 131 q 133 86 133 101 q 181 33 133 65 q 257 -11 213 13 q 349 -69 319 -44 q 396 -137 383 -99 q 397 -218 410 -179 q 318 -303 378 -274 q 264 -321 296 -312 l 247 -325 l 178 -326 q 94 -324 108 -326 q -43 -253 -4 -304 q -71 -187 -67 -224 q -47 -103 -76 -146 q -6 -61 -35 -85 q 25 -12 25 -36 q 26 -4 25 -4 q 53 -28 32 -4 q 79 -68 69 -46 q 90 -114 89 -90 q 56 -190 93 -172 q 15 -187 33 -201 q 2 -165 6 -181 q 3 -142 -1 -150 l 6 -136 l 1 -140 q -8 -162 -8 -149 q 1 -199 -8 -179 q 22 -231 10 -218 q 42 -244 29 -236 q 123 -285 85 -275 q 208 -290 161 -296 q 267 -262 247 -285 q 283 -197 292 -236 q 253 -140 278 -165 q 194 -100 235 -122 q 42 57 35 -8 q 47 75 43 67 q 103 128 65 107 q 115 136 115 135 q 96 151 115 138 q 49 194 65 172 q 25 247 33 215 q 31 363 11 303 q 93 458 50 424 q 207 507 147 501 m 254 451 q 217 447 239 458 q 147 381 169 424 q 124 269 122 331 q 133 210 124 236 q 153 181 142 186 q 183 185 164 175 q 239 227 214 200 q 275 285 264 254 q 283 343 283 308 q 282 383 283 371 q 254 451 274 440 z "},"h":{"ha":486,"x_min":-28,"x_max":497,"o":"m 471 443 q 493 447 490 447 l 497 447 l 492 443 q 476 425 482 436 q 472 396 474 417 q 446 288 468 332 q 394 242 433 264 l 385 233 q 421 243 399 233 q 435 249 433 247 q 436 247 436 249 l 436 244 l 436 240 l 433 232 q 415 179 425 194 q 379 147 406 164 q 363 136 365 139 q 365 135 361 135 l 369 135 q 406 146 390 138 q 414 149 413 149 q 403 100 415 146 q 382 57 394 75 q 347 24 367 38 q 290 1 322 7 q 254 0 281 0 q 217 1 228 0 l 206 4 l 213 7 q 225 14 219 11 q 246 31 232 18 q 264 53 260 44 q 286 110 274 67 q 343 303 339 294 q 369 318 346 310 q 404 336 397 329 q 408 344 408 342 q 404 343 408 346 q 381 332 396 335 q 358 343 368 331 q 351 368 350 353 q 363 397 353 382 q 414 429 374 415 q 471 443 444 439 m 311 503 q 347 501 326 506 q 400 478 371 494 q 432 463 424 465 q 464 457 440 460 q 471 456 468 457 q 476 456 474 456 q 478 454 478 456 q 466 451 476 454 q 439 440 456 447 q 379 422 396 424 q 351 428 360 421 l 347 432 l 351 433 q 356 438 356 435 q 340 446 356 440 q 311 453 324 451 q 288 450 297 453 q 244 424 272 444 q 226 413 226 410 q 244 451 226 422 q 274 483 260 474 q 311 503 293 499 m 281 763 q 298 765 286 764 q 318 765 310 765 q 328 764 326 765 l 322 761 q 293 722 303 751 q 285 676 290 713 q 235 456 278 632 q 168 175 203 326 q 133 53 144 74 q 72 4 113 15 q -8 3 42 -4 q -28 7 -26 6 l -24 8 q 17 43 1 13 q 31 88 22 56 q 63 218 38 118 q 114 431 100 368 q 156 600 150 590 q 188 617 158 607 q 233 642 228 631 l 232 644 q 212 633 226 638 q 188 632 197 629 q 175 642 179 635 q 188 711 160 669 q 222 745 203 735 q 281 763 240 756 z "},"i":{"ha":292,"x_min":-28,"x_max":317,"o":"m 257 507 q 286 511 281 511 l 292 511 l 286 507 q 265 483 272 497 q 254 439 258 469 q 233 336 244 371 q 211 297 225 313 q 167 265 197 282 q 163 261 158 261 q 199 271 176 261 q 213 276 210 275 l 213 268 q 211 261 213 265 q 183 194 201 213 q 156 174 172 185 l 139 163 l 147 163 q 182 174 168 165 q 188 176 186 176 q 178 131 189 174 q 158 93 171 107 q 126 72 149 82 l 117 65 q 129 66 118 65 q 147 69 140 67 q 154 71 153 71 q 146 58 154 69 q 132 42 138 47 q 57 1 100 10 q 7 1 42 0 q -28 4 -28 1 q -17 11 -28 6 q 11 33 -6 17 q 39 74 32 54 q 65 167 42 82 q 111 332 107 326 q 140 346 115 338 q 182 367 174 357 q 186 372 186 371 l 183 371 q 160 360 175 360 q 136 372 146 360 q 125 401 126 383 q 135 444 124 422 q 182 488 149 471 q 257 507 210 501 m 311 656 q 317 660 317 661 q 315 644 319 658 q 304 617 311 631 q 266 575 290 589 q 221 569 242 561 q 207 586 208 574 q 231 617 206 610 l 239 618 l 232 618 q 218 613 225 618 q 205 592 208 604 q 210 572 201 579 q 233 564 217 564 q 269 575 250 564 q 292 594 276 579 l 300 603 l 306 608 l 307 610 q 294 582 307 601 q 247 546 278 556 q 189 549 217 536 q 169 567 178 553 q 167 589 167 575 q 174 625 167 610 q 197 651 182 644 q 254 651 213 658 q 286 647 279 647 q 311 656 303 647 z "},"j":{"ha":375,"x_min":-14,"x_max":403,"o":"m 349 508 q 365 510 358 510 q 374 511 371 511 q 378 510 378 511 q 372 507 378 510 q 346 468 353 496 q 340 439 343 460 q 319 336 331 371 q 299 300 311 314 q 263 271 288 286 l 249 261 q 290 272 258 258 q 301 276 300 276 q 297 258 301 275 q 268 194 286 211 q 233 168 257 183 l 225 163 l 233 163 q 268 174 254 165 q 274 176 272 176 q 254 106 276 172 q 181 14 233 40 q 111 0 153 0 q 17 42 44 0 q -14 142 -14 86 q 10 217 -14 186 q 51 246 19 229 q 110 285 92 267 l 121 294 q 126 272 124 294 q 127 237 128 261 q 125 203 126 213 q 112 176 122 190 q 92 157 101 163 q 61 157 75 149 q 49 173 53 160 q 47 194 44 186 l 47 199 q 36 186 42 197 q 31 118 19 154 q 72 63 44 75 q 90 58 78 58 q 111 64 103 58 q 144 125 136 82 q 156 170 146 132 q 180 268 165 208 q 197 332 194 328 q 226 346 201 338 q 268 367 260 357 q 272 372 272 371 l 269 371 q 246 360 261 360 q 222 372 232 360 q 211 401 213 383 q 221 444 210 424 q 250 478 232 465 q 349 508 286 500 m 397 656 q 403 660 401 661 q 401 644 406 658 q 390 618 397 631 q 358 579 378 593 q 317 567 338 565 q 303 571 307 568 q 296 599 288 579 q 317 617 300 613 l 325 618 l 317 618 q 304 613 310 617 q 291 592 293 604 q 296 572 289 579 q 319 564 303 564 q 356 575 336 564 q 378 595 363 579 q 393 607 393 611 q 347 551 381 568 q 300 542 324 540 q 264 557 276 543 q 253 589 253 568 q 269 640 253 621 q 294 655 279 653 q 340 651 308 657 q 372 647 365 647 q 397 656 389 647 z "},"k":{"ha":486,"x_min":-29,"x_max":501,"o":"m 269 329 q 319 326 299 333 q 390 231 379 311 q 381 133 394 196 q 378 89 372 100 q 394 74 383 78 q 438 82 411 68 q 444 85 443 85 q 435 58 446 82 q 386 11 418 28 q 335 0 360 0 q 312 6 321 1 q 292 21 303 10 q 269 75 269 43 q 296 175 269 100 q 303 247 311 219 q 285 276 296 265 q 249 300 275 286 q 220 315 229 310 q 215 322 211 321 q 269 329 224 325 m 496 513 q 499 515 497 515 q 501 497 501 515 q 500 465 501 479 q 485 416 496 439 q 463 388 475 393 q 428 385 447 379 q 407 400 411 390 q 404 421 400 413 q 401 422 406 424 q 353 392 371 415 q 300 347 328 360 q 224 328 267 331 l 211 328 l 218 331 q 317 433 275 356 q 372 476 333 465 q 413 479 382 479 l 442 481 l 457 488 q 496 513 492 506 m 297 765 q 308 766 300 765 q 322 767 317 767 l 328 767 q 318 760 328 765 q 296 729 303 749 q 283 669 290 717 q 233 453 278 635 q 169 178 201 318 q 142 72 147 83 q 72 6 118 17 q -12 6 40 -3 q -28 7 -26 7 q -28 8 -29 7 q -24 10 -28 10 q 3 25 -12 10 q 32 97 18 40 q 63 217 42 138 q 114 428 97 356 q 156 601 150 590 q 190 619 158 608 q 235 646 232 633 q 235 647 236 649 q 232 644 233 647 q 197 633 219 633 q 175 644 181 633 q 174 679 168 658 q 235 750 186 732 q 297 765 261 760 z "},"l":{"ha":292,"x_min":-28,"x_max":328,"o":"m 296 764 q 306 765 299 765 l 321 765 l 328 764 l 322 761 q 293 722 301 750 q 285 674 290 711 q 261 583 274 607 q 244 560 254 569 q 203 531 228 544 q 194 526 194 526 q 204 526 194 525 q 244 539 225 529 q 253 540 253 543 q 250 521 253 538 q 232 467 242 483 q 193 432 222 451 l 175 419 l 183 419 q 217 429 201 422 q 226 435 226 433 l 228 429 q 224 403 226 424 q 218 375 221 383 q 158 319 207 338 l 150 317 l 158 318 q 201 326 183 319 l 204 326 q 189 265 204 325 q 153 110 164 163 q 133 53 144 75 q 72 4 113 15 q -8 3 42 -4 q -28 7 -26 6 l -24 8 q 17 43 1 13 q 31 88 22 56 q 63 218 38 118 q 114 431 100 368 q 156 600 150 590 q 188 617 158 607 q 233 642 228 631 l 232 644 q 212 633 226 638 q 188 632 197 629 q 175 642 179 635 q 175 685 167 658 q 201 729 183 711 q 268 758 222 747 q 296 764 292 764 z "},"m":{"ha":597,"x_min":-28,"x_max":611,"o":"m 592 444 q 603 447 599 446 q 609 447 607 447 q 611 447 611 447 q 606 443 611 446 q 590 419 594 435 q 586 392 588 414 q 561 289 582 332 q 542 265 554 275 q 501 236 531 254 q 500 233 497 233 q 543 246 518 233 q 551 249 550 249 q 540 204 554 246 q 524 171 535 183 q 488 143 513 158 l 478 135 l 479 135 q 524 147 504 135 q 528 149 526 149 q 524 126 529 149 q 514 93 518 104 q 481 40 504 64 q 406 1 449 8 q 356 1 390 0 q 322 4 322 1 q 333 11 322 6 q 371 42 351 21 q 400 106 386 60 q 456 300 450 285 q 485 318 458 308 q 522 344 519 332 l 524 346 q 519 343 524 347 q 506 335 514 338 q 478 339 488 329 q 472 390 456 356 q 492 413 481 404 q 532 431 504 421 q 592 444 557 439 m 304 508 q 333 506 318 511 q 365 475 357 500 q 366 420 369 460 q 353 350 363 381 q 324 278 347 332 q 300 224 301 224 q 299 226 299 224 q 311 294 304 240 q 317 375 317 339 q 308 433 317 415 q 290 453 301 449 q 278 453 283 454 q 232 415 258 447 q 221 403 222 403 q 223 412 219 403 q 231 433 226 421 q 240 453 236 444 q 268 490 253 478 q 304 508 285 506 m 481 510 q 513 507 497 513 q 550 481 521 504 q 594 461 568 467 l 610 457 q 601 454 608 456 q 576 449 592 453 q 510 425 558 443 q 472 417 481 414 q 467 428 461 419 q 467 433 469 432 q 457 431 464 436 q 440 413 450 426 q 418 382 429 400 q 365 276 403 357 q 317 181 333 208 q 299 160 307 167 q 269 143 292 154 q 239 126 243 131 l 235 122 q 244 158 232 125 q 275 196 257 192 q 288 192 283 199 l 289 186 l 293 192 q 344 317 301 200 q 404 457 383 425 q 439 492 417 478 q 481 510 461 507 m 222 540 q 240 542 228 542 q 260 543 251 543 q 269 542 268 543 l 264 539 q 235 500 244 529 q 226 454 232 490 q 214 386 221 418 q 192 285 201 338 q 164 160 182 239 q 143 72 146 81 q 115 26 131 42 q 72 4 99 11 q -8 3 42 -4 q -28 7 -26 6 l -24 8 q 22 57 8 14 q 78 294 29 79 q 97 378 94 372 q 129 394 100 385 q 175 419 169 408 l 174 422 q 151 410 165 413 q 126 414 138 408 q 107 435 114 421 q 103 456 103 443 q 107 478 103 469 q 164 525 122 510 q 222 540 185 533 z "},"n":{"ha":486,"x_min":-28,"x_max":497,"o":"m 471 443 q 493 447 490 447 l 497 447 l 492 443 q 476 425 482 436 q 472 396 474 417 q 446 288 468 332 q 394 242 433 264 l 385 233 q 421 243 399 233 q 435 249 433 247 q 436 247 436 249 l 436 244 l 436 240 l 433 232 q 415 179 425 194 q 379 147 406 164 q 363 136 365 139 q 365 135 361 135 l 369 135 q 406 146 390 138 q 414 149 413 149 q 403 100 415 146 q 382 57 394 75 q 347 24 367 38 q 290 1 322 7 q 254 0 281 0 q 217 1 228 0 l 206 4 l 213 7 q 225 14 219 11 q 246 31 232 18 q 264 53 260 44 q 286 110 274 67 q 343 303 339 294 q 369 318 346 310 q 404 336 397 329 q 408 344 408 342 q 404 343 408 346 q 381 332 396 335 q 358 343 368 331 q 351 368 350 353 q 363 397 353 382 q 414 429 374 415 q 471 443 444 439 m 311 503 q 347 501 326 506 q 400 478 371 494 q 432 463 424 465 q 464 457 440 460 q 471 456 468 457 q 476 456 474 456 q 478 454 478 456 q 466 451 476 454 q 439 440 456 447 q 379 422 396 424 q 351 428 360 421 l 347 432 l 351 433 q 356 438 356 435 q 340 446 356 440 q 311 453 324 451 q 288 450 297 453 q 244 424 272 444 q 226 413 226 410 q 244 451 226 422 q 274 483 260 474 q 311 503 293 499 m 222 540 q 240 542 228 542 q 260 543 251 543 q 269 542 268 543 l 264 539 q 235 500 244 529 q 226 454 232 490 q 214 386 221 418 q 192 285 201 338 q 164 160 182 239 q 143 72 146 81 q 115 26 131 42 q 72 4 99 11 q -8 3 42 -4 q -28 7 -26 6 l -24 8 q 22 57 8 14 q 78 294 29 79 q 97 378 94 372 q 129 394 100 385 q 175 419 169 408 l 174 422 q 151 410 165 413 q 126 414 138 408 q 107 435 114 421 q 103 456 103 443 q 107 478 103 469 q 164 525 122 510 q 222 540 185 533 z "},"o":{"ha":444,"x_min":43,"x_max":456,"o":"m 267 504 q 303 506 279 507 q 339 504 326 506 q 403 472 381 494 q 421 440 419 456 q 399 407 422 425 l 392 401 l 397 401 q 425 418 414 404 q 433 423 432 425 q 442 401 433 421 q 449 353 454 368 q 415 322 443 332 l 408 319 l 417 319 q 447 328 432 319 l 454 332 l 456 313 q 449 263 457 278 q 417 242 440 247 l 408 239 l 418 239 q 435 240 426 239 q 445 241 444 242 q 442 231 446 240 q 436 211 439 222 q 385 92 421 142 q 331 38 361 58 q 250 4 294 14 q 144 7 193 -8 q 89 43 114 17 q 53 106 64 69 q 43 186 42 138 q 54 288 43 233 q 100 392 68 349 q 149 444 118 418 q 206 483 179 471 q 267 504 233 499 m 314 451 q 286 454 303 456 q 225 422 253 451 q 175 346 204 401 q 129 222 142 282 q 144 89 114 151 q 175 60 157 65 q 215 61 193 53 q 290 138 258 79 q 328 247 317 183 q 340 339 336 289 q 342 406 344 389 q 314 451 336 440 z "},"p":{"ha":472,"x_min":-75,"x_max":456,"o":"m 304 508 q 332 507 315 510 q 390 485 368 503 q 422 453 415 467 q 413 408 433 432 q 410 405 410 406 q 424 417 411 404 l 436 429 l 439 422 q 451 365 456 386 q 432 332 449 349 q 422 321 421 321 q 444 332 429 321 l 454 339 l 456 326 l 456 297 l 453 269 l 442 253 l 425 239 l 417 235 l 424 235 q 451 244 433 236 q 450 238 453 244 q 442 210 447 231 q 379 58 419 113 q 310 3 344 15 q 229 18 267 -14 q 189 94 197 46 q 189 157 182 133 q 199 208 199 188 l 200 221 q 219 181 203 221 q 225 142 229 157 q 211 125 221 128 l 206 125 l 208 117 q 232 86 217 100 q 289 78 258 60 q 324 122 308 89 q 356 258 343 160 q 353 415 369 364 q 332 447 347 433 q 300 463 317 460 q 268 456 286 464 q 256 450 257 450 q 257 455 256 450 q 261 466 258 460 q 265 476 264 472 q 304 508 279 503 m 258 517 l 281 517 q 274 511 281 515 q 246 474 254 500 q 238 428 243 464 q 186 206 231 382 q 119 -78 156 76 q 99 -165 104 -147 q 85 -200 94 -182 q 46 -236 69 -225 q -49 -246 10 -254 l -75 -240 q -69 -239 -74 -240 q -26 -196 -39 -232 q 17 -28 -24 -189 q 69 192 57 140 q 107 351 103 340 q 138 368 111 358 q 186 393 182 383 q 188 399 190 399 q 183 394 188 397 q 160 384 176 388 q 135 385 143 381 q 124 412 124 392 q 135 453 124 432 q 153 478 140 465 q 192 501 169 494 q 258 517 226 514 z "},"q":{"ha":472,"x_min":21,"x_max":474,"o":"m 447 507 q 464 508 454 508 q 474 507 474 508 q 467 503 474 506 q 446 481 453 496 q 431 418 439 467 q 407 325 419 349 q 349 274 393 299 q 343 268 343 269 q 389 281 358 265 q 399 285 397 285 l 397 275 l 394 254 l 389 235 q 367 196 383 211 q 326 165 353 182 l 319 161 l 328 163 q 365 172 349 164 l 374 178 l 374 171 q 371 147 372 163 q 343 85 365 104 q 310 64 329 72 l 300 60 l 308 60 q 333 65 317 61 q 349 67 349 68 q 332 -10 350 67 q 299 -150 310 -100 q 285 -194 292 -179 q 257 -233 272 -219 q 193 -257 235 -253 q 161 -257 176 -258 l 118 -250 q 124 -249 119 -249 q 150 -232 135 -249 q 178 -165 165 -217 q 208 -42 186 -128 q 261 181 246 106 q 301 342 296 331 q 333 358 304 350 q 379 382 372 372 l 382 389 l 379 388 q 339 374 367 372 q 321 386 326 375 q 322 432 311 403 q 356 478 333 461 q 392 494 369 489 q 447 507 426 506 m 256 525 q 326 489 317 531 q 328 476 328 485 q 329 463 329 468 q 328 457 329 458 q 326 458 326 457 q 320 467 326 461 q 308 475 314 472 q 256 475 286 486 q 156 381 194 454 q 113 204 117 307 q 122 119 110 147 q 142 96 131 103 q 181 106 156 89 q 222 150 206 124 q 222 153 225 154 q 210 160 215 150 q 208 172 208 164 q 210 185 208 179 q 225 203 213 189 q 253 240 250 228 q 256 238 254 250 l 256 222 q 242 119 256 161 q 211 57 233 90 q 175 22 199 36 q 107 1 142 0 q 67 13 82 3 q 40 49 51 24 q 22 108 28 74 q 22 169 21 128 q 25 228 22 210 q 83 389 39 313 q 218 517 142 490 q 256 525 235 524 z "},"r":{"ha":444,"x_min":-28,"x_max":457,"o":"m 211 485 q 228 487 217 486 q 249 488 240 488 q 258 486 257 488 l 253 483 q 224 444 233 474 q 215 399 221 435 q 201 326 210 364 q 188 267 192 289 q 143 72 153 99 q 115 26 131 42 q 72 4 99 11 q -8 3 42 -4 q -28 7 -26 6 l -24 8 q 22 57 8 14 q 69 253 31 79 q 86 322 83 317 q 118 339 89 329 q 164 364 158 353 l 163 367 q 140 355 154 357 q 115 358 126 353 q 96 379 103 365 q 92 401 92 388 q 96 422 92 414 q 153 469 111 454 q 211 485 174 478 m 438 497 q 442 503 440 503 q 454 464 449 500 q 457 424 457 449 q 456 390 457 399 q 424 338 447 361 q 371 315 399 314 q 338 336 346 317 q 331 365 331 350 q 336 386 331 379 q 336 390 339 389 q 303 394 324 399 q 268 376 283 390 q 204 294 246 356 l 196 283 q 200 300 196 285 q 244 408 217 361 q 306 474 272 454 q 344 485 322 483 q 381 479 360 485 q 414 475 406 471 q 438 497 425 481 z "},"s":{"ha":403,"x_min":-14,"x_max":433,"o":"m 217 518 q 278 515 256 522 q 322 482 293 511 q 351 458 346 461 q 372 456 356 456 q 421 465 400 456 l 426 468 l 431 469 l 433 471 q 428 458 433 469 q 390 392 414 424 q 347 350 367 360 q 311 340 328 339 q 283 353 294 342 q 275 378 274 364 q 285 403 276 390 q 303 419 293 415 q 307 436 310 422 q 236 476 297 479 q 213 471 221 475 q 174 431 182 457 q 175 394 169 414 q 238 308 183 375 q 298 227 281 257 q 321 165 315 197 q 265 43 332 93 q 186 6 228 15 q 128 0 160 0 q 26 26 61 0 q -4 67 7 43 q -14 104 -14 85 q 28 186 -14 140 q 53 243 53 215 q 54 253 53 253 q 65 238 56 253 q 81 214 75 222 q 94 149 100 176 q 67 104 88 115 q 46 101 58 101 l 33 100 l 35 97 q 67 60 39 75 q 124 50 94 46 q 185 75 153 56 q 226 113 218 94 q 229 131 231 119 q 219 165 229 149 q 181 213 210 181 q 117 285 132 264 q 83 350 94 315 q 107 468 61 419 q 217 518 146 510 z "},"t":{"ha":361,"x_min":21,"x_max":360,"o":"m 283 636 q 319 636 322 639 q 308 628 318 635 q 292 607 297 618 q 282 567 288 596 q 265 503 278 542 q 253 463 253 464 q 275 460 253 461 q 350 469 321 454 q 360 474 358 474 l 360 471 l 358 464 l 354 454 q 335 426 347 438 q 249 400 307 401 l 235 400 l 233 394 q 199 253 229 376 q 168 121 169 131 q 167 99 167 111 q 171 76 167 86 q 203 49 182 56 q 243 56 225 43 q 269 83 257 65 q 282 114 282 101 q 281 122 282 119 q 279 122 281 124 l 279 118 q 267 98 276 104 q 247 96 258 92 q 230 115 235 101 q 228 144 225 129 q 257 194 236 175 q 300 222 276 211 q 324 229 321 231 q 319 219 324 228 q 321 175 311 203 q 332 132 331 150 q 317 57 336 92 q 292 30 310 44 q 258 8 274 15 q 210 0 239 0 q 136 10 163 0 q 90 44 110 19 q 60 115 65 76 q 63 183 56 144 q 99 342 71 232 q 115 413 115 411 q 81 415 111 415 q 56 414 64 415 q 25 400 28 407 q 22 399 24 399 q 22 406 19 400 q 28 423 24 413 q 38 439 32 433 q 86 468 54 458 q 133 474 111 474 q 141 485 136 474 q 150 503 146 497 l 154 508 l 167 508 q 185 511 181 508 q 188 515 190 515 l 183 515 q 161 522 171 511 q 150 551 151 532 q 157 586 149 571 q 283 636 178 628 z "},"u":{"ha":444,"x_min":21,"x_max":458,"o":"m 444 510 q 456 511 451 511 q 458 510 460 511 q 453 507 457 508 q 433 483 440 497 q 422 439 426 469 q 401 336 413 371 q 381 299 393 313 q 339 268 368 286 l 328 261 l 335 261 q 371 272 351 264 l 382 276 q 372 229 385 274 q 326 175 363 200 q 308 164 311 167 q 311 163 307 163 l 315 163 q 349 174 335 165 q 355 176 354 176 q 354 167 356 175 q 350 131 353 158 q 321 43 342 56 l 314 40 l 328 36 q 356 33 340 33 q 397 43 376 33 q 410 47 408 47 q 396 25 411 44 q 367 4 383 11 q 283 4 344 -3 q 188 3 219 13 q 174 0 176 0 q 174 6 172 0 q 176 15 174 11 q 177 17 178 17 q 168 14 176 17 q 103 3 131 -4 q 65 24 83 7 q 35 63 46 40 q 21 146 21 94 q 39 264 21 186 q 72 408 67 376 q 58 482 76 436 q 51 501 51 499 q 68 503 51 503 q 114 494 92 501 q 150 472 136 488 q 171 400 171 453 q 147 278 171 364 q 114 132 114 161 q 121 90 114 110 q 143 68 126 74 q 199 76 176 57 q 200 82 206 82 q 188 93 190 82 q 219 138 185 110 q 236 156 232 147 l 239 161 l 240 153 q 233 104 240 142 q 219 56 225 67 q 186 22 211 39 l 210 32 q 222 44 218 36 q 231 82 225 53 q 272 301 254 186 q 281 333 276 328 q 308 346 285 338 q 350 367 342 357 q 354 372 357 374 q 350 371 353 372 q 311 360 335 356 q 299 367 301 361 q 296 389 296 372 q 347 482 296 456 q 444 510 378 499 z "},"v":{"ha":458,"x_min":29,"x_max":490,"o":"m 485 497 q 490 497 490 500 q 472 451 490 488 q 453 424 463 432 q 421 413 435 407 l 417 415 l 410 410 q 394 379 404 403 q 335 225 376 339 q 288 108 306 140 q 240 47 271 76 q 199 19 214 22 q 156 3 167 11 q 149 1 150 0 q 146 17 147 3 q 153 64 144 44 q 176 89 163 83 q 197 86 192 93 q 197 61 210 72 q 196 58 194 58 q 214 78 200 58 q 265 174 239 110 q 296 272 283 215 q 339 419 317 374 q 371 468 354 454 q 438 489 392 489 q 472 493 461 490 q 485 497 482 496 m 29 504 l 29 514 l 35 510 q 74 490 49 497 q 99 490 85 488 q 136 496 114 492 q 181 496 168 503 q 222 447 204 485 q 254 339 232 429 q 271 207 276 243 q 240 129 263 161 q 211 103 226 110 q 194 99 194 94 l 200 110 q 193 188 208 133 q 156 306 186 210 q 134 379 138 358 q 135 414 131 400 q 136 440 140 431 l 132 444 l 132 439 q 124 421 135 428 q 75 418 101 406 q 45 452 58 426 q 29 504 32 478 z "},"w":{"ha":556,"x_min":29,"x_max":592,"o":"m 326 347 q 338 369 333 363 q 344 376 343 376 q 347 363 346 376 q 353 331 347 349 q 381 231 364 300 q 388 181 386 203 q 376 126 388 149 q 365 108 372 118 q 353 91 358 97 q 348 86 349 85 q 349 93 347 88 q 343 138 353 110 q 315 232 324 196 q 313 269 313 244 q 326 347 313 314 m 342 403 l 343 404 q 353 408 353 408 q 344 396 353 407 l 342 393 q 313 342 321 367 q 306 250 306 321 q 293 136 306 174 q 269 84 285 111 q 240 49 253 57 q 208 28 233 43 q 172 6 182 13 q 162 1 163 0 q 161 24 161 1 q 164 58 161 47 q 194 92 174 92 q 204 89 201 92 q 207 64 214 78 q 206 61 204 60 l 210 65 q 250 143 232 89 q 272 244 264 182 q 297 356 282 325 q 342 403 313 389 m 585 496 q 592 497 592 500 q 585 472 592 492 q 574 442 578 451 q 544 413 561 418 q 526 415 529 408 q 524 414 526 417 q 476 272 508 400 q 438 150 461 207 q 368 36 403 61 q 318 11 342 19 q 303 4 310 8 l 294 0 q 290 22 292 0 q 290 54 288 43 q 302 81 293 71 q 324 90 311 90 q 339 81 335 90 q 338 64 343 71 l 338 61 q 358 86 344 65 q 381 129 371 107 q 407 208 396 168 q 415 263 411 225 q 436 381 426 343 q 481 472 453 446 q 539 489 497 489 q 585 496 574 490 m 29 501 l 29 511 l 35 507 q 72 488 47 494 q 121 490 89 482 q 183 490 168 501 q 214 448 203 475 q 246 325 225 421 q 261 217 263 253 q 241 133 258 167 q 197 93 224 99 l 193 93 l 196 97 q 203 135 204 114 q 188 200 201 157 q 167 265 183 215 q 132 390 133 368 q 135 410 132 401 q 138 424 138 418 q 133 440 140 435 q 132 442 131 443 l 132 438 q 124 418 135 425 q 93 411 113 411 q 63 424 75 413 q 29 501 33 451 z "},"x":{"ha":528,"x_min":-29,"x_max":529,"o":"m 15 233 l 15 250 l 26 239 q 69 167 64 199 q 71 135 74 150 q 29 97 63 97 q 21 97 22 97 q 21 94 19 96 q 44 68 25 78 q 89 58 63 58 q 131 67 113 58 q 167 101 151 76 q 193 150 175 114 q 226 233 219 203 q 229 244 228 244 q 235 234 231 244 q 240 218 239 224 q 233 167 243 204 q 150 14 203 42 q 96 3 128 3 q 61 6 75 3 q 8 35 32 14 q -25 81 -15 56 q -28 108 -28 90 q -26 135 -29 126 q -3 178 -19 153 q 15 233 17 206 m 519 501 q 529 503 529 504 l 521 486 q 485 438 503 449 q 458 429 471 429 q 440 440 444 429 q 435 444 439 446 q 356 396 397 438 q 318 346 328 367 q 313 339 314 339 q 300 356 310 336 q 295 377 293 367 q 311 408 297 388 q 390 483 338 454 q 481 499 432 508 q 519 501 503 494 m 28 500 q 32 503 26 508 q 69 488 38 496 q 97 485 83 485 q 122 489 110 486 q 192 500 175 500 q 215 494 206 500 q 247 464 235 483 q 256 442 251 456 q 354 247 265 413 q 474 40 447 74 q 503 13 489 21 l 511 10 l 506 8 q 451 0 476 0 q 353 33 386 0 q 319 89 342 44 q 217 281 281 163 l 171 365 l 171 390 q 164 433 172 422 l 158 439 l 158 431 q 149 411 157 418 q 120 403 138 404 q 90 410 103 403 q 42 460 64 422 q 28 500 31 479 z "},"y":{"ha":458,"x_min":-153,"x_max":497,"o":"m 490 481 q 497 483 497 485 q 492 465 497 482 q 447 399 471 410 q 424 399 435 393 l 419 400 l 413 393 q 383 338 400 379 q 288 61 367 293 q 258 -26 264 -8 q 183 -168 226 -114 q 136 -219 164 -192 q 93 -257 108 -247 q 10 -292 53 -283 q -43 -293 -15 -297 q -128 -249 -100 -283 q -148 -209 -140 -233 q -153 -165 -156 -185 q -135 -123 -150 -140 q -85 -86 -121 -106 q -64 -69 -74 -78 q -46 -37 -49 -54 q -39 -43 -43 -28 q -28 -100 -29 -74 q -36 -147 -28 -128 q -64 -176 -47 -169 q -99 -175 -81 -183 q -106 -171 -106 -171 q -107 -182 -107 -171 q -79 -226 -106 -206 q -15 -247 -50 -247 q 65 -221 25 -247 q 138 -142 99 -199 q 203 -18 176 -85 q 275 211 226 44 q 306 315 300 299 q 340 411 325 383 q 370 447 351 429 q 406 469 389 464 q 442 474 414 472 q 490 481 476 475 m 35 490 l 35 499 l 42 493 q 81 474 57 481 q 119 476 94 469 q 168 483 154 483 q 186 481 179 483 q 224 435 210 471 q 242 367 229 421 q 261 282 256 313 q 264 225 267 254 q 244 129 260 174 l 228 92 q 226 103 228 94 q 204 167 224 113 q 144 346 156 301 q 142 403 135 383 q 143 424 147 414 q 140 429 142 428 q 139 426 139 431 l 139 422 q 135 410 139 414 q 113 399 128 401 q 86 400 99 396 q 53 432 68 407 q 35 490 39 457 z "},"z":{"ha":431,"x_min":-14,"x_max":451,"o":"m 394 411 q 407 413 406 413 l 397 406 q 346 364 363 389 l 332 336 q 265 229 317 303 q 157 88 178 106 q 88 56 124 58 q 77 54 78 56 q 92 46 76 53 q 129 35 114 35 q 140 36 138 35 q 142 40 143 38 q 144 48 142 46 q 146 50 147 50 q 140 47 144 49 l 139 47 q 144 54 139 50 q 176 69 157 65 q 203 71 183 71 q 268 51 243 71 q 290 40 281 42 q 315 51 306 38 q 315 56 321 58 q 296 53 306 49 q 288 60 292 54 q 285 76 285 67 q 296 97 286 92 q 340 107 306 101 q 394 117 378 111 q 403 119 403 121 q 390 75 403 114 q 368 31 381 47 q 338 7 356 15 q 303 2 318 -1 q 254 25 288 6 q 178 56 206 54 l 164 56 l 181 53 q 232 36 207 49 l 247 26 l 244 26 q 217 31 228 31 q 168 15 206 31 q 100 0 128 0 q 13 43 57 0 q -14 79 -14 71 q -6 82 -14 81 q 36 93 18 83 q 63 122 44 99 q 171 264 115 186 q 194 295 192 294 q 203 297 196 296 q 215 299 211 297 q 215 303 218 301 q 209 320 210 306 q 213 344 208 335 q 242 375 219 358 q 356 408 278 401 q 394 411 386 410 m 33 492 l 33 499 l 33 503 l 33 506 q 40 500 35 506 q 97 471 61 478 q 183 479 122 465 q 257 490 231 490 q 350 475 303 490 q 410 465 388 463 q 444 475 429 468 q 451 477 450 478 q 448 472 451 476 q 438 463 444 468 q 428 454 432 457 q 385 432 413 443 q 336 417 357 421 q 261 425 304 413 q 203 433 226 435 q 163 422 176 431 q 158 415 153 415 q 169 404 163 415 q 176 357 183 382 q 156 333 172 343 q 135 328 147 329 q 114 331 122 328 q 60 385 79 343 q 33 492 38 435 z "},"{":{"ha":208,"x_min":-28,"x_max":324,"o":"m 274 700 q 293 701 281 701 q 315 701 306 701 q 324 700 324 701 q 318 699 322 699 q 278 669 306 696 q 259 653 263 654 q 250 653 256 653 q 239 644 244 654 q 186 494 221 614 q 147 397 163 419 q 96 346 126 368 q 85 338 86 339 q 88 325 85 338 q 101 203 106 263 q 83 126 99 172 q 47 -22 50 22 l 47 -39 l 56 -37 q 72 -46 68 -37 q 78 -83 76 -53 q 93 -137 79 -121 q 96 -142 96 -142 q 90 -140 96 -143 q 77 -132 85 -136 q 63 -122 69 -128 q 3 -71 21 -96 q -28 17 -22 -37 q -26 56 -29 38 q -5 153 -24 75 q 17 248 14 232 q 15 278 19 264 q -7 328 7 308 q -12 338 -12 336 q 11 356 -12 339 q 56 400 47 383 q 92 506 60 410 q 144 636 131 617 q 183 675 161 660 q 228 693 203 688 q 274 700 249 699 z "},"|":{"ha":222,"x_min":42,"x_max":182,"o":"m 165 619 q 182 622 182 625 q 178 614 182 619 q 156 547 164 592 q 153 414 150 515 q 153 197 157 240 q 107 32 142 83 q 72 0 93 11 q 42 -8 46 -12 q 47 7 42 -7 q 68 72 61 36 q 69 207 72 97 q 69 415 65 375 q 117 585 81 535 q 165 619 133 608 z "},"}":{"ha":208,"x_min":-121,"x_max":207,"o":"m 100 699 q 94 706 94 706 q 100 705 94 707 q 114 700 106 703 q 128 694 122 697 q 197 638 181 672 q 207 551 213 604 q 189 469 206 529 q 178 410 178 425 q 194 351 178 378 q 200 338 200 340 q 178 315 200 336 q 138 267 146 285 q 100 141 135 260 q 61 3 65 22 q 10 -87 47 -56 q -83 -131 -21 -112 q -121 -139 -118 -140 q -115 -133 -121 -137 q -97 -103 -106 -126 q -69 -54 -85 -69 q -42 -50 -56 -42 q -37 -51 -37 -51 q -22 25 -35 -47 q 7 157 -8 104 q 40 254 26 222 q 106 339 64 303 l 114 347 l 110 354 q 94 396 100 369 q 92 431 92 407 q 104 494 92 464 q 143 625 143 604 q 139 625 143 625 q 126 635 129 628 q 117 667 122 643 q 100 699 111 689 z "},"~":{"ha":485,"x_min":6,"x_max":469,"o":"m 399 229 q 332 210 372 210 q 274 231 300 210 l 231 267 l 231 265 l 229 267 l 229 267 l 229 268 l 228 267 l 158 324 q 147 332 153 329 l 142 335 q 105 346 124 347 q 69 334 86 344 q 40 308 53 324 q 22 272 28 292 l 17 247 q 6 278 7 261 q 9 311 4 294 q 25 344 14 328 q 50 375 36 361 l 76 394 q 143 414 103 414 q 201 393 175 414 l 244 357 l 244 358 l 246 357 l 246 357 l 246 356 l 247 357 l 315 300 q 328 292 321 294 l 333 289 q 370 278 351 276 q 406 290 389 279 q 435 317 422 300 q 453 351 447 333 l 457 376 q 469 346 467 363 q 465 313 471 329 q 449 279 460 296 q 424 249 439 263 l 399 229 z "},"":{"ha":381,"x_min":0,"x_max":0,"o":""},"":{"ha":539,"x_min":82,"x_max":446,"o":"m 311 397 l 336 390 q 233 -124 268 93 q 197 -247 219 -208 q 139 -285 175 -285 q 82 -214 82 -285 q 94 -144 82 -181 q 128 -60 106 -107 q 201 113 150 -14 q 311 397 253 239 m 322 638 q 333 649 322 638 q 375 660 344 660 q 426 638 406 660 q 446 582 446 615 q 424 533 446 556 q 375 511 403 511 q 322 533 344 511 q 299 586 299 556 q 322 638 299 615 z "},"":{"ha":693,"x_min":108,"x_max":656,"o":"m 535 489 q 545 526 535 504 q 556 556 556 547 q 507 583 556 581 l 318 40 q 350 35 331 35 q 448 60 403 35 q 551 146 493 85 l 574 135 q 451 19 511 56 q 315 -17 390 -17 q 299 -14 306 -17 l 233 -200 l 192 -200 l 257 -10 q 179 25 204 3 q 108 196 108 78 q 165 394 108 299 q 318 553 221 490 q 474 610 382 597 l 533 778 l 576 778 l 517 610 q 623 573 590 606 q 656 500 656 540 q 637 453 656 472 q 588 435 618 435 q 549 449 564 435 q 535 489 535 464 m 281 57 l 464 579 q 374 535 410 563 q 306 456 339 508 q 226 193 226 336 q 281 57 226 101 z "},"":{"ha":693,"x_min":14,"x_max":718,"o":"m 549 443 l 375 443 q 334 290 350 335 q 272 144 318 244 q 496 92 418 92 q 607 128 554 92 l 618 139 l 635 126 q 438 -8 581 -8 q 344 10 386 -8 q 238 79 301 28 q 169 10 197 28 q 104 -8 142 -8 q 39 17 64 -8 q 14 82 14 42 q 50 149 14 122 q 144 175 86 175 q 222 161 167 175 l 257 443 l 100 443 l 113 500 l 264 500 q 313 690 286 622 q 393 826 340 758 q 588 929 469 929 q 682 901 646 929 q 718 826 718 872 q 664 769 718 769 q 629 781 639 769 q 614 831 619 793 q 557 892 604 892 q 466 814 500 892 q 389 500 432 736 l 560 500 l 549 443 m 203 101 q 119 136 153 136 q 65 119 86 136 q 44 74 44 103 q 62 37 44 51 q 104 22 79 22 q 162 44 135 22 q 203 101 189 67 z "},"":{"ha":693,"x_min":-31,"x_max":724,"o":"m -31 143 l 106 276 q 49 451 49 361 q 106 626 49 550 l -31 763 l 39 831 l 174 696 q 347 751 257 751 q 522 696 442 751 l 660 831 l 724 763 l 592 626 q 644 454 644 546 q 592 276 644 357 l 724 143 l 660 74 l 522 210 q 347 153 443 153 q 174 210 257 153 l 39 74 l -31 143 m 351 661 q 204 601 265 661 q 143 454 143 540 q 203 303 143 365 q 347 242 263 242 q 492 303 433 242 q 551 454 551 365 q 493 601 551 540 q 351 661 435 661 z "},"":{"ha":693,"x_min":36,"x_max":838,"o":"m 671 842 q 665 862 671 854 q 645 874 660 869 q 617 880 631 878 q 576 885 603 882 l 576 907 l 838 907 l 838 885 q 785 856 803 869 q 736 800 768 842 l 485 489 l 693 489 l 678 433 l 442 433 l 433 424 l 401 310 l 651 310 l 633 253 l 382 253 q 340 79 340 121 q 345 52 340 63 q 365 36 350 42 q 390 29 379 31 q 428 26 401 28 q 468 22 454 24 l 468 0 l 74 0 l 78 22 q 178 50 143 28 q 231 124 213 72 l 267 253 l 36 253 l 56 310 l 283 310 l 314 419 l 310 433 l 83 433 l 100 489 l 294 489 l 207 793 q 172 862 189 849 q 86 885 154 875 l 86 907 l 417 907 l 417 885 q 333 869 351 879 q 314 835 314 860 q 367 621 314 801 l 407 482 q 456 538 410 485 q 528 624 503 592 q 593 706 554 657 q 651 790 632 756 q 671 842 671 824 z "},"":{"ha":379,"x_min":146,"x_max":238,"o":"m 146 -25 l 146 356 l 238 356 l 238 -25 l 146 -25 m 146 543 l 146 925 l 238 925 l 238 543 l 146 543 z "},"":{"ha":693,"x_min":122,"x_max":750,"o":"m 693 393 q 632 243 693 313 q 481 174 571 174 l 453 174 q 538 21 538 81 q 468 -132 538 -58 q 279 -206 399 -206 q 165 -175 208 -206 q 122 -96 122 -144 q 152 -22 122 -53 q 222 8 182 8 q 261 -4 246 8 q 276 -36 276 -17 q 238 -97 276 -67 q 200 -133 200 -126 q 227 -163 200 -150 q 289 -176 254 -176 q 401 -134 358 -176 q 443 -39 443 -92 q 361 89 443 21 q 238 221 276 161 q 199 340 199 281 q 265 497 199 429 q 414 564 331 564 q 446 561 436 564 q 378 647 397 614 q 358 715 358 681 q 427 869 358 797 q 607 940 496 940 q 711 910 672 940 q 750 835 750 881 q 722 760 750 792 q 656 728 694 728 q 617 740 632 728 q 603 772 603 753 q 621 818 603 799 q 658 850 639 838 q 676 872 676 863 q 656 899 676 889 q 600 910 635 910 q 494 871 536 910 q 451 782 451 832 q 476 713 451 738 l 622 556 q 693 393 693 481 m 604 318 q 537 458 604 383 q 411 533 469 533 q 325 494 363 533 q 288 404 288 456 q 322 318 288 369 q 403 229 368 256 q 479 203 439 203 q 565 239 525 203 q 604 318 604 275 z "},"":{"ha":461,"x_min":149,"x_max":561,"o":"m 218 842 q 265 821 244 842 q 285 774 285 800 q 265 726 285 746 q 218 706 246 706 q 169 726 189 706 q 149 775 149 746 q 169 822 149 803 q 218 842 189 842 m 496 842 q 542 821 522 842 q 561 774 561 800 q 542 726 561 746 q 494 706 522 706 q 447 726 467 706 q 428 775 428 746 q 448 822 428 803 q 496 842 468 842 z "},"":{"ha":972,"x_min":42,"x_max":942,"o":"m 589 544 q 622 540 608 546 q 639 528 628 538 q 663 513 654 513 q 688 524 674 513 q 696 529 694 531 q 683 490 697 524 q 661 453 672 464 q 631 440 646 438 q 617 458 617 442 q 621 473 617 464 q 628 483 625 482 l 631 486 l 626 492 q 593 510 613 510 q 511 465 557 510 q 461 404 481 433 q 431 338 443 376 q 419 269 419 300 q 444 203 419 228 q 476 189 458 189 q 533 215 506 189 q 540 225 544 225 q 528 246 526 225 q 547 281 529 263 q 574 299 557 290 q 591 308 590 308 q 589 301 592 307 q 582 265 586 294 q 551 194 575 224 q 490 154 526 164 q 451 152 482 153 q 411 154 421 151 q 346 222 360 167 q 343 281 339 250 q 432 464 356 378 q 506 519 461 497 q 589 544 553 542 m 578 744 q 625 746 593 746 q 815 708 739 746 q 942 454 969 633 q 863 279 926 361 q 801 214 836 244 q 739 171 765 183 q 651 146 707 156 q 575 146 608 142 q 607 167 593 153 l 618 178 l 632 178 q 711 199 675 181 q 823 292 772 226 q 894 431 874 357 q 890 572 915 510 q 790 672 864 636 q 628 706 721 706 q 264 558 415 706 q 131 332 163 461 q 119 229 115 271 q 253 40 131 100 q 618 31 399 -31 q 758 90 706 54 q 771 99 771 99 q 763 69 775 94 q 738 43 754 54 q 661 7 711 26 q 506 -35 588 -24 q 385 -37 446 -43 q 172 22 256 -26 q 61 142 93 69 q 42 250 42 186 q 172 551 42 415 q 359 684 251 633 q 578 744 467 735 z "},"":{"ha":382,"x_min":58,"x_max":489,"o":"m 415 933 l 489 938 q 413 656 429 731 l 408 635 l 408 625 q 413 614 408 614 q 417 617 417 614 l 428 621 l 458 649 q 476 669 460 653 l 486 656 q 411 581 433 597 q 363 564 389 564 q 318 600 318 564 q 342 686 318 629 q 253 589 290 614 q 167 564 217 564 q 88 590 117 564 q 58 661 58 617 q 144 849 58 757 q 321 940 231 940 q 403 892 394 940 l 413 932 l 415 933 m 375 861 q 340 914 375 914 q 224 828 288 914 q 161 667 161 742 q 173 628 161 646 q 200 610 185 610 q 316 703 257 610 q 375 861 375 797 z "},"":{"ha":693,"x_min":74,"x_max":618,"o":"m 393 549 q 360 492 393 531 q 264 391 326 453 q 176 301 201 329 l 203 246 q 290 61 290 88 q 281 51 290 51 q 248 77 269 51 q 201 139 226 103 q 167 183 175 175 q 74 299 94 265 l 74 314 l 124 350 q 244 449 179 393 q 342 532 308 504 q 382 560 375 560 q 393 549 393 560 m 401 301 q 438 231 407 289 q 492 124 468 174 q 515 61 515 74 q 507 51 515 51 q 476 74 496 51 q 428 136 456 97 q 393 183 400 175 q 299 299 332 251 l 299 314 l 347 350 q 474 454 432 415 q 608 560 600 560 q 618 549 618 560 q 492 394 618 511 q 401 301 460 368 z "},"":{"ha":935,"x_min":119,"x_max":819,"o":"m 728 150 l 728 443 l 119 443 l 119 538 l 819 538 l 819 150 l 728 150 z "},"":{"ha":935,"x_min":119,"x_max":819,"o":"m 819 306 l 119 306 l 119 397 l 819 397 l 819 306 z "},"":{"ha":972,"x_min":42,"x_max":942,"o":"m 460 304 q 453 317 451 317 q 465 313 454 317 q 499 294 492 306 q 508 250 507 282 q 518 208 511 221 q 539 197 525 196 q 556 199 547 197 q 573 210 567 203 q 576 226 579 218 l 575 231 l 575 225 q 566 213 574 218 q 550 207 558 207 q 535 226 535 207 q 547 258 535 242 q 581 285 560 275 q 607 293 604 296 q 604 289 607 293 q 603 263 597 279 q 606 214 611 232 q 588 183 601 196 q 535 160 565 161 q 492 178 504 158 q 481 228 482 192 q 460 304 478 276 m 510 489 q 530 493 528 493 q 524 485 532 493 q 511 467 515 478 q 438 289 497 439 q 394 190 401 200 q 315 161 369 154 l 300 165 l 301 165 q 325 182 314 165 q 343 221 331 189 q 425 417 418 411 q 436 422 429 419 l 443 426 l 442 426 q 435 431 439 426 q 443 463 425 440 q 510 489 456 478 m 399 531 l 406 539 l 406 536 q 414 526 403 529 q 511 531 432 521 q 588 539 569 539 q 622 531 606 539 q 638 521 631 526 q 658 466 656 503 q 647 394 661 429 q 560 321 624 342 q 506 311 531 311 q 483 315 492 311 q 467 324 475 318 l 458 331 l 475 331 q 524 343 500 332 q 550 363 538 350 q 582 414 569 383 q 593 496 606 471 q 576 509 586 508 q 526 499 565 510 q 413 476 436 472 q 393 489 397 479 q 399 531 386 503 m 578 743 q 625 744 593 744 q 815 707 739 744 q 942 453 969 632 q 863 278 926 360 q 801 213 836 243 q 739 169 765 182 q 651 144 707 154 q 575 144 608 140 q 607 165 593 151 l 618 176 l 632 176 q 711 197 675 179 q 823 290 772 225 q 894 429 874 356 q 890 571 915 508 q 790 671 864 635 q 628 704 721 704 q 264 557 415 704 q 131 331 163 460 q 119 228 115 269 q 253 39 131 99 q 618 29 399 -32 q 758 89 706 53 q 771 97 771 97 q 763 68 775 93 q 738 42 754 53 q 661 6 711 25 q 506 -36 588 -25 q 385 -39 446 -44 q 172 21 256 -28 q 61 140 93 68 q 42 249 42 185 q 172 550 42 414 q 359 683 251 632 q 578 743 467 733 z "},"":{"ha":461,"x_min":139,"x_max":572,"o":"m 572 810 l 556 739 l 139 739 l 153 810 l 572 810 z "},"":{"ha":554,"x_min":140,"x_max":538,"o":"m 340 940 q 480 881 422 940 q 538 740 538 822 q 479 599 538 657 q 336 542 421 542 q 198 600 256 542 q 140 740 140 658 q 199 882 140 824 q 340 940 257 940 m 340 892 q 238 847 281 892 q 196 740 196 803 q 238 633 196 679 q 338 588 279 588 q 441 633 397 588 q 485 740 485 678 q 441 847 485 801 q 340 892 397 892 z "},"":{"ha":935,"x_min":119,"x_max":819,"o":"m 119 0 l 119 92 l 819 92 l 819 0 l 119 0 m 424 485 l 424 789 l 515 789 l 515 485 l 819 485 l 819 393 l 515 393 l 515 169 l 424 169 l 424 393 l 119 393 l 119 485 l 424 485 z "},"":{"ha":414,"x_min":47,"x_max":450,"o":"m 397 496 l 413 486 l 367 376 l 47 376 l 47 401 l 231 582 q 360 775 360 706 q 328 841 360 814 q 253 868 297 868 q 126 796 185 868 l 108 806 q 169 893 133 863 q 294 940 224 940 q 404 899 358 940 q 450 800 450 857 q 426 729 450 763 q 314 610 403 696 l 154 458 l 157 450 l 307 450 q 362 460 343 450 q 397 496 381 469 z "},"":{"ha":414,"x_min":58,"x_max":469,"o":"m 101 465 q 157 440 118 465 q 214 415 196 415 q 297 452 264 415 q 329 546 329 489 q 305 629 329 594 q 238 674 281 664 q 174 679 222 679 l 174 692 q 378 822 378 728 q 358 875 378 854 q 310 896 339 896 q 207 844 263 896 l 193 854 q 340 940 240 940 q 432 910 394 940 q 469 835 469 879 q 440 767 469 793 q 329 713 411 742 q 395 669 374 694 q 417 590 417 643 q 345 433 417 494 q 161 372 274 372 q 58 428 58 372 q 71 454 58 443 q 101 465 83 465 z "},"":{"ha":461,"x_min":250,"x_max":560,"o":"m 250 686 l 474 907 q 511 922 489 922 q 545 907 531 922 q 560 872 560 892 q 538 835 560 844 l 299 686 l 250 686 z "},"":{"ha":693,"x_min":-40,"x_max":690,"o":"m 690 594 l 582 128 q 574 82 574 97 q 610 40 574 40 q 688 78 638 40 l 683 65 q 608 3 640 21 q 535 -14 575 -14 q 456 67 456 -14 q 463 113 456 78 q 249 -14 353 -14 q 104 92 143 -14 q 103 56 104 76 q 101 25 101 35 q 104 -32 101 -8 l 104 -92 q 77 -236 104 -182 q 6 -290 50 -290 q -40 -228 -40 -290 q 5 -72 -40 -168 q 58 75 50 25 l 176 594 l 299 594 l 206 200 q 201 158 201 188 q 227 88 201 114 q 297 63 253 63 q 465 161 390 63 l 568 594 l 690 594 z "},"":{"ha":725,"x_min":78,"x_max":857,"o":"m 857 907 l 846 876 q 747 860 768 872 q 713 797 726 849 l 496 -17 q 474 -106 474 -89 q 543 -139 474 -133 q 576 -143 553 -139 l 568 -171 l 363 -171 l 640 876 l 560 876 l 283 -171 l 78 -171 l 83 -143 q 185 -124 165 -133 q 267 119 201 -118 q 340 393 308 278 q 250 403 281 396 q 192 432 219 411 q 128 560 128 479 q 151 691 128 625 q 210 801 174 757 q 324 883 257 858 q 499 907 392 907 l 857 907 m 354 424 l 464 876 q 325 811 379 871 q 259 699 285 768 q 233 564 233 629 q 281 450 233 494 q 354 424 300 429 z "},"":{"ha":346,"x_min":97,"x_max":253,"o":"m 174 432 q 229 408 206 432 q 253 351 253 383 q 229 299 253 321 q 174 276 206 276 q 120 299 143 276 q 97 351 97 321 q 120 408 97 383 q 174 432 143 432 z "},"":{"ha":461,"x_min":-40,"x_max":253,"o":"m 29 -135 l 113 0 l 165 0 l 104 -92 q 139 -87 125 -87 q 222 -112 190 -87 q 253 -181 253 -137 q 206 -268 253 -235 q 88 -301 160 -301 q -40 -272 35 -301 l -18 -232 q 78 -253 36 -253 q 150 -196 150 -253 q 132 -152 150 -169 q 86 -135 114 -135 q 40 -144 76 -135 l 29 -135 z "},"":{"ha":414,"x_min":58,"x_max":394,"o":"m 206 907 q 378 938 367 938 l 382 940 l 386 940 q 394 932 394 940 q 389 910 394 926 l 268 529 q 242 428 242 438 q 249 410 242 417 q 269 402 256 404 q 311 399 282 400 l 311 376 l 58 376 l 58 399 q 126 410 107 403 q 150 433 144 418 l 275 831 q 283 858 283 853 q 257 883 283 883 l 206 883 l 206 907 z "},"":{"ha":429,"x_min":93,"x_max":503,"o":"m 368 940 q 465 907 428 940 q 503 822 503 874 q 417 644 503 725 q 228 564 331 564 q 130 595 167 564 q 93 679 93 626 q 178 859 93 778 q 368 940 263 940 m 249 599 q 355 681 308 599 q 401 842 401 763 q 358 907 401 907 q 249 831 303 913 q 196 661 196 750 q 249 599 196 599 z "},"":{"ha":693,"x_min":78,"x_max":621,"o":"m 301 63 q 340 126 301 82 q 440 231 379 171 q 519 310 501 290 l 490 367 q 404 549 404 521 q 413 560 404 560 q 445 537 425 560 q 494 474 465 514 q 526 428 522 433 q 621 311 592 354 l 621 299 q 443 158 472 185 q 311 51 321 51 q 301 63 301 51 m 397 299 q 219 159 297 224 q 117 73 142 94 q 86 51 93 51 q 78 63 78 51 q 113 124 78 79 q 203 218 149 168 q 293 310 232 242 l 264 367 q 179 549 179 526 q 189 560 179 560 q 220 535 199 560 q 267 474 242 510 q 303 428 293 439 l 397 311 l 397 299 z "},"":{"ha":1040,"x_min":47,"x_max":1021,"o":"m 989 203 l 976 144 l 896 144 l 854 0 l 767 0 l 811 146 l 578 146 l 596 203 l 972 564 l 1021 564 l 914 203 l 989 203 m 907 463 l 644 203 l 824 203 l 907 463 m 901 940 l 268 -14 l 200 -14 l 831 940 l 901 940 m 297 399 l 297 376 l 47 376 l 47 399 q 112 410 94 403 q 136 433 129 417 l 260 831 q 268 858 268 849 q 260 877 268 869 q 242 883 253 885 l 233 883 l 192 883 l 192 907 q 289 925 224 914 q 372 940 368 940 q 378 932 378 940 q 375 910 378 918 l 257 529 q 231 428 231 457 q 237 410 231 415 q 256 402 243 404 q 297 399 268 400 z "},"":{"ha":1040,"x_min":47,"x_max":1039,"o":"m 194 907 q 367 938 356 938 l 371 940 l 375 940 q 383 932 383 940 q 378 910 383 926 l 257 529 q 231 428 231 438 q 238 410 231 417 q 258 402 244 404 q 300 399 271 400 l 300 376 l 47 376 l 47 399 q 115 410 96 403 q 139 433 133 418 l 264 831 q 272 858 272 853 q 246 883 272 883 l 194 883 l 194 907 m 882 940 l 249 -14 l 181 -14 l 811 940 l 882 940 m 986 121 l 1001 111 l 956 1 l 636 1 l 636 26 l 819 207 q 949 400 949 331 q 917 466 949 439 q 842 493 886 493 q 715 421 774 493 l 697 431 q 758 518 722 488 q 883 565 813 565 q 993 524 947 565 q 1039 425 1039 482 q 1015 354 1039 388 q 903 235 992 321 l 743 83 l 746 75 l 896 75 q 951 85 932 75 q 986 121 969 94 z "},"":{"ha":1040,"x_min":32,"x_max":1021,"o":"m 989 203 l 976 144 l 896 144 l 854 0 l 767 0 l 811 146 l 578 146 l 596 203 l 972 564 l 1021 564 l 914 203 l 989 203 m 907 463 l 644 203 l 824 203 l 907 463 m 903 940 l 271 -14 l 200 -14 l 832 940 l 903 940 m 179 844 l 165 854 q 311 940 211 940 q 405 910 367 940 q 443 835 443 879 q 413 767 443 793 q 303 713 383 742 l 310 710 q 363 675 347 690 q 390 590 390 644 q 318 433 390 494 q 135 372 246 372 q 32 428 32 372 q 44 454 32 443 q 74 465 57 465 q 126 442 94 465 q 185 415 165 415 q 269 452 236 415 q 303 546 303 489 q 278 629 303 594 q 210 674 253 664 q 146 679 193 679 l 146 692 q 350 822 350 728 q 330 875 350 854 q 281 896 310 896 q 179 844 232 896 z "},"":{"ha":693,"x_min":39,"x_max":511,"o":"m 350 -187 q 340 -150 350 -172 q 329 -115 329 -128 q 344 -81 329 -94 q 385 -67 360 -67 q 424 -85 410 -67 q 439 -135 439 -103 q 384 -242 439 -200 q 242 -285 329 -285 q 94 -235 150 -285 q 39 -106 39 -186 q 73 3 39 -42 q 226 146 107 49 q 336 254 301 208 q 385 356 371 300 l 394 397 l 417 393 q 374 242 399 290 q 263 93 349 193 q 169 -32 196 18 q 143 -139 143 -82 q 171 -224 143 -193 q 253 -254 199 -254 q 350 -187 350 -254 m 435 657 q 489 635 467 657 q 511 583 511 614 q 490 532 511 553 q 438 511 468 511 q 386 533 408 511 q 364 583 364 556 q 385 635 364 613 q 435 657 407 657 z "},"":{"ha":708,"x_min":-14,"x_max":782,"o":"m 660 978 l 467 1125 q 440 1169 440 1144 q 454 1203 440 1189 q 489 1217 468 1217 q 542 1186 517 1217 l 703 978 l 660 978 m 518 335 q 524 335 524 340 q 521 324 524 332 q 492 289 515 299 q 424 281 475 281 l 381 281 l 374 278 q 361 269 365 274 l 358 267 q 357 269 357 267 q 358 276 357 272 q 360 285 358 281 q 394 319 368 310 l 406 322 l 453 322 l 500 322 l 508 326 q 518 335 515 331 m 744 669 q 757 672 756 672 l 758 671 q 753 668 758 669 q 726 628 733 657 q 722 607 724 621 q 701 497 714 533 q 679 458 693 474 q 638 428 665 443 q 632 422 631 424 q 671 433 646 421 q 681 437 681 438 q 677 416 682 436 q 669 388 672 396 q 618 331 660 357 l 606 322 l 618 324 q 649 335 636 328 l 656 338 l 656 336 q 650 311 654 333 q 641 274 646 285 q 625 251 636 263 q 586 229 614 242 l 614 232 q 628 235 628 236 q 626 228 629 235 q 603 144 619 207 q 585 96 593 111 q 511 21 558 43 q 429 13 478 6 q 406 17 406 15 q 414 24 406 18 q 464 85 449 46 q 535 339 474 108 q 576 492 572 481 q 610 507 579 497 q 653 531 647 519 l 651 533 q 630 522 646 525 q 606 521 614 518 q 594 556 589 528 q 615 597 600 578 q 694 651 635 621 q 744 669 725 667 m 625 763 q 692 760 661 767 q 740 750 728 750 q 774 757 757 750 q 782 760 781 760 q 771 732 783 757 q 736 689 760 711 q 640 635 689 643 q 622 635 628 633 q 594 661 599 640 q 593 667 594 667 q 583 660 592 667 q 569 650 574 653 q 496 551 546 625 q 388 358 446 476 q 267 118 294 169 q 236 65 243 75 q 217 44 229 54 q 159 17 197 28 q 89 10 121 7 q 47 18 69 11 q -8 11 13 28 l -14 8 l -14 18 q 3 85 -14 53 q 47 135 21 117 q 93 147 69 147 q 117 143 107 147 q 136 117 135 135 q 135 103 136 108 q 124 81 132 90 q 106 71 115 72 q 103 68 103 69 q 117 67 106 65 q 135 74 128 69 q 154 100 140 78 q 276 331 201 179 q 388 539 357 490 q 499 683 431 611 q 571 743 526 713 q 625 763 597 760 z "},"":{"ha":708,"x_min":-14,"x_max":825,"o":"m 515 981 l 739 1201 q 776 1217 754 1217 q 810 1201 796 1217 q 825 1167 825 1186 q 803 1129 825 1139 l 564 981 l 515 981 m 518 335 q 524 335 524 340 q 521 324 524 332 q 492 289 515 299 q 424 281 475 281 l 381 281 l 374 278 q 361 269 365 274 l 358 267 q 357 269 357 267 q 358 276 357 272 q 360 285 358 281 q 394 319 368 310 l 406 322 l 453 322 l 500 322 l 508 326 q 518 335 515 331 m 744 669 q 757 672 756 672 l 758 671 q 753 668 758 669 q 726 628 733 657 q 722 607 724 621 q 701 497 714 533 q 679 458 693 474 q 638 428 665 443 q 632 422 631 424 q 671 433 646 421 q 681 437 681 438 q 677 416 682 436 q 669 388 672 396 q 618 331 660 357 l 606 322 l 618 324 q 649 335 636 328 l 656 338 l 656 336 q 650 311 654 333 q 641 274 646 285 q 625 251 636 263 q 586 229 614 242 l 614 232 q 628 235 628 236 q 626 228 629 235 q 603 144 619 207 q 585 96 593 111 q 511 21 558 43 q 429 13 478 6 q 406 17 406 15 q 414 24 406 18 q 464 85 449 46 q 535 339 474 108 q 576 492 572 481 q 610 507 579 497 q 653 531 647 519 l 651 533 q 630 522 646 525 q 606 521 614 518 q 594 556 589 528 q 615 597 600 578 q 694 651 635 621 q 744 669 725 667 m 625 763 q 692 760 661 767 q 740 750 728 750 q 774 757 757 750 q 782 760 781 760 q 771 732 783 757 q 736 689 760 711 q 640 635 689 643 q 622 635 628 633 q 594 661 599 640 q 593 667 594 667 q 583 660 592 667 q 569 650 574 653 q 496 551 546 625 q 388 358 446 476 q 267 118 294 169 q 236 65 243 75 q 217 44 229 54 q 159 17 197 28 q 89 10 121 7 q 47 18 69 11 q -8 11 13 28 l -14 8 l -14 18 q 3 85 -14 53 q 47 135 21 117 q 93 147 69 147 q 117 143 107 147 q 136 117 135 135 q 135 103 136 108 q 124 81 132 90 q 106 71 115 72 q 103 68 103 69 q 117 67 106 65 q 135 74 128 69 q 154 100 140 78 q 276 331 201 179 q 388 539 357 490 q 499 683 431 611 q 571 743 526 713 q 625 763 597 760 z "},"":{"ha":708,"x_min":-14,"x_max":799,"o":"m 676 1213 l 799 978 l 749 978 l 635 1122 l 444 978 l 390 978 l 608 1213 l 676 1213 m 518 335 q 524 335 524 340 q 521 324 524 332 q 492 289 515 299 q 424 281 475 281 l 381 281 l 374 278 q 361 269 365 274 l 358 267 q 357 269 357 267 q 358 276 357 272 q 360 285 358 281 q 394 319 368 310 l 406 322 l 453 322 l 500 322 l 508 326 q 518 335 515 331 m 744 669 q 757 672 756 672 l 758 671 q 753 668 758 669 q 726 628 733 657 q 722 607 724 621 q 701 497 714 533 q 679 458 693 474 q 638 428 665 443 q 632 422 631 424 q 671 433 646 421 q 681 437 681 438 q 677 416 682 436 q 669 388 672 396 q 618 331 660 357 l 606 322 l 618 324 q 649 335 636 328 l 656 338 l 656 336 q 650 311 654 333 q 641 274 646 285 q 625 251 636 263 q 586 229 614 242 l 614 232 q 628 235 628 236 q 626 228 629 235 q 603 144 619 207 q 585 96 593 111 q 511 21 558 43 q 429 13 478 6 q 406 17 406 15 q 414 24 406 18 q 464 85 449 46 q 535 339 474 108 q 576 492 572 481 q 610 507 579 497 q 653 531 647 519 l 651 533 q 630 522 646 525 q 606 521 614 518 q 594 556 589 528 q 615 597 600 578 q 694 651 635 621 q 744 669 725 667 m 625 763 q 692 760 661 767 q 740 750 728 750 q 774 757 757 750 q 782 760 781 760 q 771 732 783 757 q 736 689 760 711 q 640 635 689 643 q 622 635 628 633 q 594 661 599 640 q 593 667 594 667 q 583 660 592 667 q 569 650 574 653 q 496 551 546 625 q 388 358 446 476 q 267 118 294 169 q 236 65 243 75 q 217 44 229 54 q 159 17 197 28 q 89 10 121 7 q 47 18 69 11 q -8 11 13 28 l -14 8 l -14 18 q 3 85 -14 53 q 47 135 21 117 q 93 147 69 147 q 117 143 107 147 q 136 117 135 135 q 135 103 136 108 q 124 81 132 90 q 106 71 115 72 q 103 68 103 69 q 117 67 106 65 q 135 74 128 69 q 154 100 140 78 q 276 331 201 179 q 388 539 357 490 q 499 683 431 611 q 571 743 526 713 q 625 763 597 760 z "},"":{"ha":708,"x_min":-14,"x_max":782,"o":"m 690 1182 l 731 1182 q 676 1067 710 1101 q 585 1033 643 1033 q 475 1066 542 1033 q 383 1099 408 1099 q 311 1033 339 1097 l 272 1033 q 413 1172 301 1172 q 523 1142 456 1172 q 617 1111 590 1111 q 658 1126 642 1111 q 690 1182 674 1142 m 518 335 q 524 335 524 340 q 521 324 524 332 q 492 289 515 299 q 424 281 475 281 l 381 281 l 374 278 q 361 269 365 274 l 358 267 q 357 269 357 267 q 358 276 357 272 q 360 285 358 281 q 394 319 368 310 l 406 322 l 453 322 l 500 322 l 508 326 q 518 335 515 331 m 744 669 q 757 672 756 672 l 758 671 q 753 668 758 669 q 726 628 733 657 q 722 607 724 621 q 701 497 714 533 q 679 458 693 474 q 638 428 665 443 q 632 422 631 424 q 671 433 646 421 q 681 437 681 438 q 677 416 682 436 q 669 388 672 396 q 618 331 660 357 l 606 322 l 618 324 q 649 335 636 328 l 656 338 l 656 336 q 650 311 654 333 q 641 274 646 285 q 625 251 636 263 q 586 229 614 242 l 614 232 q 628 235 628 236 q 626 228 629 235 q 603 144 619 207 q 585 96 593 111 q 511 21 558 43 q 429 13 478 6 q 406 17 406 15 q 414 24 406 18 q 464 85 449 46 q 535 339 474 108 q 576 492 572 481 q 610 507 579 497 q 653 531 647 519 l 651 533 q 630 522 646 525 q 606 521 614 518 q 594 556 589 528 q 615 597 600 578 q 694 651 635 621 q 744 669 725 667 m 625 763 q 692 760 661 767 q 740 750 728 750 q 774 757 757 750 q 782 760 781 760 q 771 732 783 757 q 736 689 760 711 q 640 635 689 643 q 622 635 628 633 q 594 661 599 640 q 593 667 594 667 q 583 660 592 667 q 569 650 574 653 q 496 551 546 625 q 388 358 446 476 q 267 118 294 169 q 236 65 243 75 q 217 44 229 54 q 159 17 197 28 q 89 10 121 7 q 47 18 69 11 q -8 11 13 28 l -14 8 l -14 18 q 3 85 -14 53 q 47 135 21 117 q 93 147 69 147 q 117 143 107 147 q 136 117 135 135 q 135 103 136 108 q 124 81 132 90 q 106 71 115 72 q 103 68 103 69 q 117 67 106 65 q 135 74 128 69 q 154 100 140 78 q 276 331 201 179 q 388 539 357 490 q 499 683 431 611 q 571 743 526 713 q 625 763 597 760 z "},"":{"ha":708,"x_min":-14,"x_max":821,"o":"m 478 1133 q 524 1113 504 1133 q 544 1065 544 1092 q 525 1017 544 1038 q 478 997 506 997 q 428 1017 449 997 q 408 1067 408 1038 q 428 1114 408 1094 q 478 1133 449 1133 m 756 1133 q 801 1113 782 1133 q 821 1065 821 1092 q 801 1017 821 1038 q 754 997 782 997 q 707 1017 726 997 q 688 1067 688 1038 q 708 1114 688 1094 q 756 1133 728 1133 m 518 335 q 524 335 524 340 q 521 324 524 332 q 492 289 515 299 q 424 281 475 281 l 381 281 l 374 278 q 361 269 365 274 l 358 267 q 357 269 357 267 q 358 276 357 272 q 360 285 358 281 q 394 319 368 310 l 406 322 l 453 322 l 500 322 l 508 326 q 518 335 515 331 m 744 669 q 757 672 756 672 l 758 671 q 753 668 758 669 q 726 628 733 657 q 722 607 724 621 q 701 497 714 533 q 679 458 693 474 q 638 428 665 443 q 632 422 631 424 q 671 433 646 421 q 681 437 681 438 q 677 416 682 436 q 669 388 672 396 q 618 331 660 357 l 606 322 l 618 324 q 649 335 636 328 l 656 338 l 656 336 q 650 311 654 333 q 641 274 646 285 q 625 251 636 263 q 586 229 614 242 l 614 232 q 628 235 628 236 q 626 228 629 235 q 603 144 619 207 q 585 96 593 111 q 511 21 558 43 q 429 13 478 6 q 406 17 406 15 q 414 24 406 18 q 464 85 449 46 q 535 339 474 108 q 576 492 572 481 q 610 507 579 497 q 653 531 647 519 l 651 533 q 630 522 646 525 q 606 521 614 518 q 594 556 589 528 q 615 597 600 578 q 694 651 635 621 q 744 669 725 667 m 625 763 q 692 760 661 767 q 740 750 728 750 q 774 757 757 750 q 782 760 781 760 q 771 732 783 757 q 736 689 760 711 q 640 635 689 643 q 622 635 628 633 q 594 661 599 640 q 593 667 594 667 q 583 660 592 667 q 569 650 574 653 q 496 551 546 625 q 388 358 446 476 q 267 118 294 169 q 236 65 243 75 q 217 44 229 54 q 159 17 197 28 q 89 10 121 7 q 47 18 69 11 q -8 11 13 28 l -14 8 l -14 18 q 3 85 -14 53 q 47 135 21 117 q 93 147 69 147 q 117 143 107 147 q 136 117 135 135 q 135 103 136 108 q 124 81 132 90 q 106 71 115 72 q 103 68 103 69 q 117 67 106 65 q 135 74 128 69 q 154 100 140 78 q 276 331 201 179 q 388 539 357 490 q 499 683 431 611 q 571 743 526 713 q 625 763 597 760 z "},"":{"ha":708,"x_min":-14,"x_max":782,"o":"m 403 1232 q 423 1252 403 1232 q 501 1272 443 1272 q 600 1232 558 1272 q 642 1135 642 1192 q 600 1038 642 1079 q 500 997 558 997 q 403 1038 442 997 q 364 1135 364 1079 q 403 1232 364 1192 m 503 1228 q 437 1200 464 1228 q 410 1136 410 1172 q 436 1071 410 1097 q 499 1044 463 1044 q 563 1072 536 1044 q 590 1135 590 1099 q 565 1201 590 1174 q 503 1228 539 1228 m 518 335 q 524 335 524 340 q 521 324 524 332 q 492 289 515 299 q 424 281 475 281 l 381 281 l 374 278 q 361 269 365 274 l 358 267 q 357 269 357 267 q 358 276 357 272 q 360 285 358 281 q 394 319 368 310 l 406 322 l 453 322 l 500 322 l 508 326 q 518 335 515 331 m 744 669 q 757 672 756 672 l 758 671 q 753 668 758 669 q 726 628 733 657 q 722 607 724 621 q 701 497 714 533 q 679 458 693 474 q 638 428 665 443 q 632 422 631 424 q 671 433 646 421 q 681 437 681 438 q 677 416 682 436 q 669 388 672 396 q 618 331 660 357 l 606 322 l 618 324 q 649 335 636 328 l 656 338 l 656 336 q 650 311 654 333 q 641 274 646 285 q 625 251 636 263 q 586 229 614 242 l 614 232 q 628 235 628 236 q 626 228 629 235 q 603 144 619 207 q 585 96 593 111 q 511 21 558 43 q 429 13 478 6 q 406 17 406 15 q 414 24 406 18 q 464 85 449 46 q 535 339 474 108 q 576 492 572 481 q 610 507 579 497 q 653 531 647 519 l 651 533 q 630 522 646 525 q 606 521 614 518 q 594 556 589 528 q 615 597 600 578 q 694 651 635 621 q 744 669 725 667 m 625 763 q 692 760 661 767 q 740 750 728 750 q 774 757 757 750 q 782 760 781 760 q 771 732 783 757 q 736 689 760 711 q 640 635 689 643 q 622 635 628 633 q 594 661 599 640 q 593 667 594 667 q 583 660 592 667 q 569 650 574 653 q 496 551 546 625 q 388 358 446 476 q 267 118 294 169 q 236 65 243 75 q 217 44 229 54 q 159 17 197 28 q 89 10 121 7 q 47 18 69 11 q -8 11 13 28 l -14 8 l -14 18 q 3 85 -14 53 q 47 135 21 117 q 93 147 69 147 q 117 143 107 147 q 136 117 135 135 q 135 103 136 108 q 124 81 132 90 q 106 71 115 72 q 103 68 103 69 q 117 67 106 65 q 135 74 128 69 q 154 100 140 78 q 276 331 201 179 q 388 539 357 490 q 499 683 431 611 q 571 743 526 713 q 625 763 597 760 z "},"":{"ha":1232,"x_min":-36,"x_max":1265,"o":"m 307 325 q 193 180 251 261 q 135 65 135 99 q 151 37 135 46 q 222 22 168 28 l 222 0 l -36 0 l -36 22 q 10 48 -11 29 q 79 128 31 67 l 592 774 q 630 824 624 814 q 636 846 636 835 q 583 883 636 879 q 547 888 568 883 l 547 907 l 1265 907 l 1218 693 l 1196 697 l 1196 747 q 1148 841 1196 821 q 929 861 1100 861 q 867 852 882 861 q 842 810 851 843 l 757 500 q 889 504 849 501 q 963 524 929 507 q 1011 562 997 540 q 1050 636 1025 583 l 1074 631 l 979 310 l 956 314 q 964 386 964 381 q 932 442 964 429 q 800 456 900 456 l 744 456 q 644 86 644 100 q 717 47 644 47 l 758 47 q 991 84 914 47 q 1147 233 1068 121 l 1172 228 l 1085 0 l 393 0 l 393 22 q 473 40 456 29 q 503 89 490 50 l 572 325 l 307 325 m 346 376 l 586 376 l 718 850 l 346 376 z "},"":{"ha":625,"x_min":42,"x_max":715,"o":"m 261 -135 l 344 0 l 397 0 l 336 -92 q 371 -87 357 -87 q 453 -112 422 -87 q 485 -181 485 -137 q 438 -268 485 -235 q 319 -301 392 -301 q 192 -272 267 -301 l 214 -232 q 310 -253 268 -253 q 382 -196 382 -253 q 364 -152 382 -169 q 318 -135 346 -135 q 272 -144 308 -135 l 261 -135 m 454 771 q 494 773 467 774 q 536 769 522 772 q 590 739 561 763 q 627 715 615 721 q 654 710 639 710 q 704 736 679 711 l 715 747 l 715 736 q 686 621 715 679 q 625 568 664 575 q 595 572 610 565 q 575 592 581 579 q 572 629 567 608 q 589 654 579 650 l 593 657 l 581 668 q 524 703 554 693 q 419 688 483 715 q 254 540 333 649 q 201 435 219 494 q 181 293 181 369 q 193 196 181 233 q 289 86 217 122 q 414 78 349 57 q 453 97 435 85 q 497 139 479 115 l 501 144 l 494 144 q 458 176 465 146 q 469 231 453 204 q 522 281 488 261 q 572 308 571 310 q 569 299 572 307 q 565 253 564 281 q 564 185 568 207 q 519 76 556 121 q 475 35 500 51 q 378 1 436 8 q 319 0 364 0 q 260 3 275 0 q 136 53 188 11 q 96 96 110 75 q 71 147 82 118 q 47 221 47 211 q 50 222 47 222 q 101 239 90 231 l 103 240 q 97 239 101 240 q 78 238 90 238 q 61 239 67 238 q 50 246 56 240 q 42 289 42 254 q 47 342 43 310 q 54 375 51 374 q 70 372 56 375 q 92 368 85 368 l 97 368 l 89 371 q 61 386 69 375 q 58 403 58 390 q 74 458 58 417 q 85 492 85 486 q 87 497 86 497 q 96 492 88 497 q 122 479 128 474 q 115 485 119 481 q 97 508 100 496 q 115 556 94 528 q 147 594 143 594 l 157 579 l 169 561 q 168 567 169 563 q 161 594 161 582 q 181 632 161 608 q 239 683 199 654 q 340 739 279 714 q 454 771 401 764 z "},"":{"ha":667,"x_min":14,"x_max":738,"o":"m 582 978 l 389 1125 q 363 1169 363 1144 q 376 1203 363 1189 q 411 1217 390 1217 q 464 1186 439 1217 l 625 978 l 582 978 m 453 265 q 458 274 457 274 q 463 267 458 274 q 514 236 472 244 q 588 206 558 228 q 629 111 632 172 q 599 33 626 68 q 572 10 586 17 q 472 8 532 -11 q 421 36 447 15 q 317 78 368 75 q 297 79 297 78 q 319 90 297 83 q 372 90 340 96 q 447 68 394 86 q 486 61 468 63 q 546 78 522 60 q 562 106 558 88 q 560 144 565 125 q 544 164 554 160 q 533 167 533 169 q 536 163 532 165 q 544 153 540 160 q 547 133 547 146 q 536 101 547 113 q 510 94 526 94 q 489 100 499 94 q 459 129 472 108 q 440 174 446 150 q 439 199 439 183 q 440 225 439 215 q 453 265 444 246 m 549 475 q 554 479 553 479 q 555 472 556 478 q 551 456 554 465 q 547 440 549 446 q 506 400 535 414 q 421 386 471 383 q 369 388 411 386 q 317 388 326 389 q 283 369 297 382 l 275 363 l 275 368 q 285 404 275 383 q 304 431 290 418 q 354 453 319 444 q 398 456 367 456 q 469 455 429 456 q 518 457 510 454 q 549 475 539 464 m 319 665 l 353 672 q 347 665 357 672 q 321 625 331 653 q 260 369 315 606 q 203 136 208 149 q 147 88 189 94 l 139 85 l 144 81 q 208 56 167 65 q 272 50 249 46 q 283 52 282 51 q 282 56 283 53 q 290 68 279 61 q 339 65 306 75 q 403 33 372 56 q 417 23 410 29 q 430 12 425 17 q 433 7 435 7 q 419 11 432 7 q 354 22 385 25 q 285 8 307 15 q 186 1 261 1 q 114 4 124 0 q 28 86 60 21 q 14 122 14 115 q 25 125 14 125 q 74 163 57 128 q 131 381 81 176 q 163 514 161 510 q 196 532 168 522 q 219 543 221 540 q 214 540 218 543 q 191 540 203 535 q 175 556 179 544 q 175 587 169 568 q 194 619 181 606 q 257 650 210 635 q 319 665 278 657 m 79 763 q 83 767 82 767 q 83 760 83 767 q 88 747 83 753 q 117 738 97 740 q 199 740 133 735 q 333 753 267 744 q 469 763 417 763 q 601 751 547 763 q 656 728 624 746 q 703 710 692 708 q 728 722 717 713 q 737 731 736 731 q 736 722 738 731 q 718 633 733 676 q 683 572 703 589 q 636 553 663 553 q 590 569 610 553 q 579 583 583 576 q 576 605 575 590 q 579 628 576 619 q 593 649 585 643 l 597 651 l 594 656 q 553 688 583 674 q 486 708 524 701 q 408 703 456 713 q 303 674 374 696 q 158 639 197 642 q 97 645 118 636 q 68 678 76 654 q 68 725 63 696 q 79 763 74 754 z "},"":{"ha":667,"x_min":14,"x_max":756,"o":"m 446 981 l 669 1201 q 707 1217 685 1217 q 741 1201 726 1217 q 756 1167 756 1186 q 733 1129 756 1139 l 494 981 l 446 981 m 453 265 q 458 274 457 274 q 463 267 458 274 q 514 236 472 244 q 588 206 558 228 q 629 111 632 172 q 599 33 626 68 q 572 10 586 17 q 472 8 532 -11 q 421 36 447 15 q 317 78 368 75 q 297 79 297 78 q 319 90 297 83 q 372 90 340 96 q 447 68 394 86 q 486 61 468 63 q 546 78 522 60 q 562 106 558 88 q 560 144 565 125 q 544 164 554 160 q 533 167 533 169 q 536 163 532 165 q 544 153 540 160 q 547 133 547 146 q 536 101 547 113 q 510 94 526 94 q 489 100 499 94 q 459 129 472 108 q 440 174 446 150 q 439 199 439 183 q 440 225 439 215 q 453 265 444 246 m 549 475 q 554 479 553 479 q 555 472 556 478 q 551 456 554 465 q 547 440 549 446 q 506 400 535 414 q 421 386 471 383 q 369 388 411 386 q 317 388 326 389 q 283 369 297 382 l 275 363 l 275 368 q 285 404 275 383 q 304 431 290 418 q 354 453 319 444 q 398 456 367 456 q 469 455 429 456 q 518 457 510 454 q 549 475 539 464 m 319 665 l 353 672 q 347 665 357 672 q 321 625 331 653 q 260 369 315 606 q 203 136 208 149 q 147 88 189 94 l 139 85 l 144 81 q 208 56 167 65 q 272 50 249 46 q 283 52 282 51 q 282 56 283 53 q 290 68 279 61 q 339 65 306 75 q 403 33 372 56 q 417 23 410 29 q 430 12 425 17 q 433 7 435 7 q 419 11 432 7 q 354 22 385 25 q 285 8 307 15 q 186 1 261 1 q 114 4 124 0 q 28 86 60 21 q 14 122 14 115 q 25 125 14 125 q 74 163 57 128 q 131 381 81 176 q 163 514 161 510 q 196 532 168 522 q 219 543 221 540 q 214 540 218 543 q 191 540 203 535 q 175 556 179 544 q 175 587 169 568 q 194 619 181 606 q 257 650 210 635 q 319 665 278 657 m 79 763 q 83 767 82 767 q 83 760 83 767 q 88 747 83 753 q 117 738 97 740 q 199 740 133 735 q 333 753 267 744 q 469 763 417 763 q 601 751 547 763 q 656 728 624 746 q 703 710 692 708 q 728 722 717 713 q 737 731 736 731 q 736 722 738 731 q 718 633 733 676 q 683 572 703 589 q 636 553 663 553 q 590 569 610 553 q 579 583 583 576 q 576 605 575 590 q 579 628 576 619 q 593 649 585 643 l 597 651 l 594 656 q 553 688 583 674 q 486 708 524 701 q 408 703 456 713 q 303 674 374 696 q 158 639 197 642 q 97 645 118 636 q 68 678 76 654 q 68 725 63 696 q 79 763 74 754 z "},"":{"ha":667,"x_min":14,"x_max":738,"o":"m 607 1213 l 729 978 l 679 978 l 565 1122 l 375 978 l 321 978 l 539 1213 l 607 1213 m 453 265 q 458 274 457 274 q 463 267 458 274 q 514 236 472 244 q 588 206 558 228 q 629 111 632 172 q 599 33 626 68 q 572 10 586 17 q 472 8 532 -11 q 421 36 447 15 q 317 78 368 75 q 297 79 297 78 q 319 90 297 83 q 372 90 340 96 q 447 68 394 86 q 486 61 468 63 q 546 78 522 60 q 562 106 558 88 q 560 144 565 125 q 544 164 554 160 q 533 167 533 169 q 536 163 532 165 q 544 153 540 160 q 547 133 547 146 q 536 101 547 113 q 510 94 526 94 q 489 100 499 94 q 459 129 472 108 q 440 174 446 150 q 439 199 439 183 q 440 225 439 215 q 453 265 444 246 m 549 475 q 554 479 553 479 q 555 472 556 478 q 551 456 554 465 q 547 440 549 446 q 506 400 535 414 q 421 386 471 383 q 369 388 411 386 q 317 388 326 389 q 283 369 297 382 l 275 363 l 275 368 q 285 404 275 383 q 304 431 290 418 q 354 453 319 444 q 398 456 367 456 q 469 455 429 456 q 518 457 510 454 q 549 475 539 464 m 319 665 l 353 672 q 347 665 357 672 q 321 625 331 653 q 260 369 315 606 q 203 136 208 149 q 147 88 189 94 l 139 85 l 144 81 q 208 56 167 65 q 272 50 249 46 q 283 52 282 51 q 282 56 283 53 q 290 68 279 61 q 339 65 306 75 q 403 33 372 56 q 417 23 410 29 q 430 12 425 17 q 433 7 435 7 q 419 11 432 7 q 354 22 385 25 q 285 8 307 15 q 186 1 261 1 q 114 4 124 0 q 28 86 60 21 q 14 122 14 115 q 25 125 14 125 q 74 163 57 128 q 131 381 81 176 q 163 514 161 510 q 196 532 168 522 q 219 543 221 540 q 214 540 218 543 q 191 540 203 535 q 175 556 179 544 q 175 587 169 568 q 194 619 181 606 q 257 650 210 635 q 319 665 278 657 m 79 763 q 83 767 82 767 q 83 760 83 767 q 88 747 83 753 q 117 738 97 740 q 199 740 133 735 q 333 753 267 744 q 469 763 417 763 q 601 751 547 763 q 656 728 624 746 q 703 710 692 708 q 728 722 717 713 q 737 731 736 731 q 736 722 738 731 q 718 633 733 676 q 683 572 703 589 q 636 553 663 553 q 590 569 610 553 q 579 583 583 576 q 576 605 575 590 q 579 628 576 619 q 593 649 585 643 l 597 651 l 594 656 q 553 688 583 674 q 486 708 524 701 q 408 703 456 713 q 303 674 374 696 q 158 639 197 642 q 97 645 118 636 q 68 678 76 654 q 68 725 63 696 q 79 763 74 754 z "},"":{"ha":667,"x_min":14,"x_max":754,"o":"m 411 1133 q 458 1113 438 1133 q 478 1065 478 1092 q 458 1017 478 1038 q 411 997 439 997 q 362 1017 382 997 q 342 1067 342 1038 q 362 1114 342 1094 q 411 1133 382 1133 m 689 1133 q 735 1113 715 1133 q 754 1065 754 1092 q 735 1017 754 1038 q 688 997 715 997 q 640 1017 660 997 q 621 1067 621 1038 q 641 1114 621 1094 q 689 1133 661 1133 m 453 265 q 458 274 457 274 q 463 267 458 274 q 514 236 472 244 q 588 206 558 228 q 629 111 632 172 q 599 33 626 68 q 572 10 586 17 q 472 8 532 -11 q 421 36 447 15 q 317 78 368 75 q 297 79 297 78 q 319 90 297 83 q 372 90 340 96 q 447 68 394 86 q 486 61 468 63 q 546 78 522 60 q 562 106 558 88 q 560 144 565 125 q 544 164 554 160 q 533 167 533 169 q 536 163 532 165 q 544 153 540 160 q 547 133 547 146 q 536 101 547 113 q 510 94 526 94 q 489 100 499 94 q 459 129 472 108 q 440 174 446 150 q 439 199 439 183 q 440 225 439 215 q 453 265 444 246 m 549 475 q 554 479 553 479 q 555 472 556 478 q 551 456 554 465 q 547 440 549 446 q 506 400 535 414 q 421 386 471 383 q 369 388 411 386 q 317 388 326 389 q 283 369 297 382 l 275 363 l 275 368 q 285 404 275 383 q 304 431 290 418 q 354 453 319 444 q 398 456 367 456 q 469 455 429 456 q 518 457 510 454 q 549 475 539 464 m 319 665 l 353 672 q 347 665 357 672 q 321 625 331 653 q 260 369 315 606 q 203 136 208 149 q 147 88 189 94 l 139 85 l 144 81 q 208 56 167 65 q 272 50 249 46 q 283 52 282 51 q 282 56 283 53 q 290 68 279 61 q 339 65 306 75 q 403 33 372 56 q 417 23 410 29 q 430 12 425 17 q 433 7 435 7 q 419 11 432 7 q 354 22 385 25 q 285 8 307 15 q 186 1 261 1 q 114 4 124 0 q 28 86 60 21 q 14 122 14 115 q 25 125 14 125 q 74 163 57 128 q 131 381 81 176 q 163 514 161 510 q 196 532 168 522 q 219 543 221 540 q 214 540 218 543 q 191 540 203 535 q 175 556 179 544 q 175 587 169 568 q 194 619 181 606 q 257 650 210 635 q 319 665 278 657 m 79 763 q 83 767 82 767 q 83 760 83 767 q 88 747 83 753 q 117 738 97 740 q 199 740 133 735 q 333 753 267 744 q 469 763 417 763 q 601 751 547 763 q 656 728 624 746 q 703 710 692 708 q 728 722 717 713 q 737 731 736 731 q 736 722 738 731 q 718 633 733 676 q 683 572 703 589 q 636 553 663 553 q 590 569 610 553 q 579 583 583 576 q 576 605 575 590 q 579 628 576 619 q 593 649 585 643 l 597 651 l 594 656 q 553 688 583 674 q 486 708 524 701 q 408 703 456 713 q 303 674 374 696 q 158 639 197 642 q 97 645 118 636 q 68 678 76 654 q 68 725 63 696 q 79 763 74 754 z "},"":{"ha":319,"x_min":15,"x_max":432,"o":"m 389 978 l 196 1125 q 169 1169 169 1144 q 183 1203 169 1189 q 218 1217 197 1217 q 271 1186 246 1217 l 432 978 l 389 978 m 293 765 q 350 767 299 767 q 401 765 401 767 q 399 763 401 764 q 360 717 378 751 q 342 660 349 697 q 321 583 332 607 q 303 560 314 569 q 263 531 288 544 q 255 526 254 526 q 264 526 256 525 q 304 539 285 529 q 313 540 313 543 q 310 521 313 538 q 292 467 301 483 q 253 432 282 451 l 233 419 l 243 419 q 276 429 261 422 q 286 435 286 433 l 288 429 q 283 403 286 424 q 278 375 281 383 q 218 319 267 338 l 211 317 l 218 318 q 261 326 243 319 l 264 326 q 249 265 264 325 q 213 110 224 163 q 193 56 204 74 q 115 4 168 15 q 33 3 82 -4 q 15 7 17 6 l 19 8 q 60 43 44 13 q 74 88 65 56 q 106 218 81 118 q 157 431 143 367 q 199 599 193 592 q 222 610 201 604 q 279 654 272 626 q 281 661 281 657 l 281 669 l 279 674 l 278 672 q 271 657 278 668 q 260 642 264 646 q 214 625 244 625 q 169 669 169 625 q 179 711 169 689 q 232 751 194 740 q 293 765 256 760 z "},"":{"ha":319,"x_min":15,"x_max":560,"o":"m 250 981 l 474 1201 q 511 1217 489 1217 q 545 1201 531 1217 q 560 1167 560 1186 q 538 1129 560 1139 l 299 981 l 250 981 m 293 765 q 350 767 299 767 q 401 765 401 767 q 399 763 401 764 q 360 717 378 751 q 342 660 349 697 q 321 583 332 607 q 303 560 314 569 q 263 531 288 544 q 255 526 254 526 q 264 526 256 525 q 304 539 285 529 q 313 540 313 543 q 310 521 313 538 q 292 467 301 483 q 253 432 282 451 l 233 419 l 243 419 q 276 429 261 422 q 286 435 286 433 l 288 429 q 283 403 286 424 q 278 375 281 383 q 218 319 267 338 l 211 317 l 218 318 q 261 326 243 319 l 264 326 q 249 265 264 325 q 213 110 224 163 q 193 56 204 74 q 115 4 168 15 q 33 3 82 -4 q 15 7 17 6 l 19 8 q 60 43 44 13 q 74 88 65 56 q 106 218 81 118 q 157 431 143 367 q 199 599 193 592 q 222 610 201 604 q 279 654 272 626 q 281 661 281 657 l 281 669 l 279 674 l 278 672 q 271 657 278 668 q 260 642 264 646 q 214 625 244 625 q 169 669 169 625 q 179 711 169 689 q 232 751 194 740 q 293 765 256 760 z "},"":{"ha":319,"x_min":15,"x_max":535,"o":"m 413 1213 l 535 978 l 485 978 l 371 1122 l 181 978 l 126 978 l 344 1213 l 413 1213 m 293 765 q 350 767 299 767 q 401 765 401 767 q 399 763 401 764 q 360 717 378 751 q 342 660 349 697 q 321 583 332 607 q 303 560 314 569 q 263 531 288 544 q 255 526 254 526 q 264 526 256 525 q 304 539 285 529 q 313 540 313 543 q 310 521 313 538 q 292 467 301 483 q 253 432 282 451 l 233 419 l 243 419 q 276 429 261 422 q 286 435 286 433 l 288 429 q 283 403 286 424 q 278 375 281 383 q 218 319 267 338 l 211 317 l 218 318 q 261 326 243 319 l 264 326 q 249 265 264 325 q 213 110 224 163 q 193 56 204 74 q 115 4 168 15 q 33 3 82 -4 q 15 7 17 6 l 19 8 q 60 43 44 13 q 74 88 65 56 q 106 218 81 118 q 157 431 143 367 q 199 599 193 592 q 222 610 201 604 q 279 654 272 626 q 281 661 281 657 l 281 669 l 279 674 l 278 672 q 271 657 278 668 q 260 642 264 646 q 214 625 244 625 q 169 669 169 625 q 179 711 169 689 q 232 751 194 740 q 293 765 256 760 z "},"":{"ha":319,"x_min":15,"x_max":561,"o":"m 218 1133 q 265 1113 244 1133 q 285 1065 285 1092 q 265 1017 285 1038 q 218 997 246 997 q 169 1017 189 997 q 149 1067 149 1038 q 169 1114 149 1094 q 218 1133 189 1133 m 496 1133 q 542 1113 522 1133 q 561 1065 561 1092 q 542 1017 561 1038 q 494 997 522 997 q 447 1017 467 997 q 428 1067 428 1038 q 448 1114 428 1094 q 496 1133 468 1133 m 293 765 q 350 767 299 767 q 401 765 401 767 q 399 763 401 764 q 360 717 378 751 q 342 660 349 697 q 321 583 332 607 q 303 560 314 569 q 263 531 288 544 q 255 526 254 526 q 264 526 256 525 q 304 539 285 529 q 313 540 313 543 q 310 521 313 538 q 292 467 301 483 q 253 432 282 451 l 233 419 l 243 419 q 276 429 261 422 q 286 435 286 433 l 288 429 q 283 403 286 424 q 278 375 281 383 q 218 319 267 338 l 211 317 l 218 318 q 261 326 243 319 l 264 326 q 249 265 264 325 q 213 110 224 163 q 193 56 204 74 q 115 4 168 15 q 33 3 82 -4 q 15 7 17 6 l 19 8 q 60 43 44 13 q 74 88 65 56 q 106 218 81 118 q 157 431 143 367 q 199 599 193 592 q 222 610 201 604 q 279 654 272 626 q 281 661 281 657 l 281 669 l 279 674 l 278 672 q 271 657 278 668 q 260 642 264 646 q 214 625 244 625 q 169 669 169 625 q 179 711 169 689 q 232 751 194 740 q 293 765 256 760 z "},"":{"ha":1000,"x_min":-10,"x_max":972,"o":"m 67 454 l 83 511 l 207 511 l 272 739 q 288 828 288 786 q 267 867 288 856 q 181 885 246 879 l 181 907 l 568 907 q 863 806 753 907 q 972 533 972 704 q 916 303 972 413 q 758 119 860 194 q 340 0 592 0 l -10 0 l -10 22 q 66 49 49 33 q 101 124 83 65 l 192 454 l 67 454 m 560 511 l 543 454 l 329 454 l 267 226 q 236 93 236 115 q 325 40 236 40 q 665 167 542 40 q 776 345 735 236 q 818 568 818 454 q 713 814 818 735 q 522 865 639 865 q 460 857 479 865 q 435 826 440 849 l 347 511 l 560 511 z "},"":{"ha":750,"x_min":14,"x_max":833,"o":"m 690 1182 l 731 1182 q 676 1067 710 1101 q 585 1033 643 1033 q 475 1066 542 1033 q 383 1099 408 1099 q 311 1033 339 1097 l 272 1033 q 413 1172 301 1172 q 523 1142 456 1172 q 617 1111 590 1111 q 658 1126 642 1111 q 690 1182 674 1142 m 819 769 q 833 772 833 772 q 832 770 833 771 q 822 764 831 769 q 801 735 811 754 q 792 689 796 721 q 769 578 782 615 q 747 539 760 553 q 707 508 733 525 q 689 497 690 499 l 708 500 q 743 511 724 503 q 751 514 751 515 q 738 464 751 500 q 719 431 729 442 q 683 406 710 419 l 669 397 l 681 399 q 719 407 704 400 q 728 408 726 410 q 722 382 726 406 q 706 330 715 344 q 669 301 697 315 l 656 293 q 693 301 669 293 q 703 303 701 304 l 683 242 q 661 175 669 196 q 643 119 643 131 q 653 82 643 100 q 674 58 660 67 q 678 54 678 56 q 650 32 678 51 q 601 7 625 14 q 514 8 553 -8 q 505 14 507 11 q 492 24 503 17 q 431 108 446 50 q 433 249 414 165 q 454 308 440 276 q 479 381 472 351 q 492 458 489 424 l 492 472 l 496 464 q 508 414 504 444 q 521 325 521 338 q 510 299 519 304 q 502 299 506 297 q 497 294 499 301 q 503 183 486 250 q 524 133 511 150 q 532 126 526 131 q 539 122 538 122 q 535 131 539 124 q 528 171 528 147 q 546 261 528 188 q 594 435 558 308 q 633 572 629 561 q 668 590 636 581 q 697 601 688 597 q 718 619 718 611 q 715 619 718 622 q 703 611 713 615 q 660 611 672 597 q 664 669 643 628 q 696 708 675 692 q 763 747 717 724 q 819 769 794 764 m 83 771 q 85 774 85 774 q 86 767 86 774 q 90 756 86 760 q 125 744 100 747 q 194 746 142 743 q 303 758 264 751 q 369 764 353 767 q 474 650 449 754 q 486 517 485 606 q 481 422 486 451 q 462 357 476 411 q 446 301 447 303 l 446 306 l 446 315 l 446 331 q 442 442 446 389 q 429 561 436 522 q 379 665 417 636 l 372 672 l 364 664 q 356 651 357 657 q 344 603 354 646 l 326 529 l 289 363 q 221 81 231 101 q 113 3 190 19 q 33 3 79 -4 l 32 4 l 14 8 q 21 14 15 10 l 22 15 q 76 79 60 40 q 179 464 106 147 q 193 517 190 514 q 226 532 201 525 q 246 542 243 538 l 247 543 q 221 540 235 535 q 201 558 207 544 q 208 599 197 576 q 240 632 218 619 q 350 668 282 653 q 369 673 369 672 q 363 676 369 674 q 283 668 342 685 q 158 642 192 643 q 69 696 78 639 q 75 749 67 717 q 83 771 79 767 z "},"":{"ha":694,"x_min":42,"x_max":706,"o":"m 660 978 l 467 1125 q 440 1169 440 1144 q 454 1203 440 1189 q 489 1217 468 1217 q 542 1186 517 1217 l 703 978 l 660 978 m 378 797 q 399 799 383 799 q 515 767 460 799 q 647 656 611 710 q 667 617 661 636 q 657 547 678 586 l 653 536 q 682 565 665 543 l 689 572 q 703 517 694 567 q 706 461 708 481 q 663 396 700 425 q 658 390 656 390 q 667 393 660 390 q 697 410 682 399 q 705 415 704 415 q 705 411 706 415 q 700 375 704 407 q 681 292 692 317 q 622 240 667 263 q 604 233 606 233 q 604 232 603 233 q 622 231 606 229 q 650 238 639 233 q 658 238 657 239 q 653 225 658 238 q 536 78 610 140 q 381 3 468 19 q 330 0 367 0 q 281 3 293 0 q 133 86 193 21 q 67 200 90 133 q 42 365 40 278 q 71 522 44 447 q 203 713 114 636 q 378 797 288 788 m 443 707 q 364 692 401 714 q 328 661 350 683 q 290 617 306 639 q 210 444 249 557 q 193 368 200 415 q 210 154 176 244 q 239 97 224 117 q 278 67 254 78 q 368 67 325 44 q 465 158 417 90 q 533 292 501 208 q 565 386 556 351 q 564 599 594 508 q 526 664 549 640 q 443 707 492 699 z "},"":{"ha":694,"x_min":42,"x_max":833,"o":"m 524 981 l 747 1201 q 785 1217 763 1217 q 819 1201 804 1217 q 833 1167 833 1186 q 811 1129 833 1139 l 572 981 l 524 981 m 378 797 q 399 799 383 799 q 515 767 460 799 q 647 656 611 710 q 667 617 661 636 q 657 547 678 586 l 653 536 q 682 565 665 543 l 689 572 q 703 517 694 567 q 706 461 708 481 q 663 396 700 425 q 658 390 656 390 q 667 393 660 390 q 697 410 682 399 q 705 415 704 415 q 705 411 706 415 q 700 375 704 407 q 681 292 692 317 q 622 240 667 263 q 604 233 606 233 q 604 232 603 233 q 622 231 606 229 q 650 238 639 233 q 658 238 657 239 q 653 225 658 238 q 536 78 610 140 q 381 3 468 19 q 330 0 367 0 q 281 3 293 0 q 133 86 193 21 q 67 200 90 133 q 42 365 40 278 q 71 522 44 447 q 203 713 114 636 q 378 797 288 788 m 443 707 q 364 692 401 714 q 328 661 350 683 q 290 617 306 639 q 210 444 249 557 q 193 368 200 415 q 210 154 176 244 q 239 97 224 117 q 278 67 254 78 q 368 67 325 44 q 465 158 417 90 q 533 292 501 208 q 565 386 556 351 q 564 599 594 508 q 526 664 549 640 q 443 707 492 699 z "},"":{"ha":694,"x_min":42,"x_max":806,"o":"m 683 1213 l 806 978 l 756 978 l 642 1122 l 451 978 l 397 978 l 615 1213 l 683 1213 m 378 797 q 399 799 383 799 q 515 767 460 799 q 647 656 611 710 q 667 617 661 636 q 657 547 678 586 l 653 536 q 682 565 665 543 l 689 572 q 703 517 694 567 q 706 461 708 481 q 663 396 700 425 q 658 390 656 390 q 667 393 660 390 q 697 410 682 399 q 705 415 704 415 q 705 411 706 415 q 700 375 704 407 q 681 292 692 317 q 622 240 667 263 q 604 233 606 233 q 604 232 603 233 q 622 231 606 229 q 650 238 639 233 q 658 238 657 239 q 653 225 658 238 q 536 78 610 140 q 381 3 468 19 q 330 0 367 0 q 281 3 293 0 q 133 86 193 21 q 67 200 90 133 q 42 365 40 278 q 71 522 44 447 q 203 713 114 636 q 378 797 288 788 m 443 707 q 364 692 401 714 q 328 661 350 683 q 290 617 306 639 q 210 444 249 557 q 193 368 200 415 q 210 154 176 244 q 239 97 224 117 q 278 67 254 78 q 368 67 325 44 q 465 158 417 90 q 533 292 501 208 q 565 386 556 351 q 564 599 594 508 q 526 664 549 640 q 443 707 492 699 z "},"":{"ha":694,"x_min":42,"x_max":731,"o":"m 690 1182 l 731 1182 q 676 1067 710 1101 q 585 1033 643 1033 q 475 1066 542 1033 q 383 1099 408 1099 q 311 1033 339 1097 l 272 1033 q 413 1172 301 1172 q 523 1142 456 1172 q 617 1111 590 1111 q 658 1126 642 1111 q 690 1182 674 1142 m 378 797 q 399 799 383 799 q 515 767 460 799 q 647 656 611 710 q 667 617 661 636 q 657 547 678 586 l 653 536 q 682 565 665 543 l 689 572 q 703 517 694 567 q 706 461 708 481 q 663 396 700 425 q 658 390 656 390 q 667 393 660 390 q 697 410 682 399 q 705 415 704 415 q 705 411 706 415 q 700 375 704 407 q 681 292 692 317 q 622 240 667 263 q 604 233 606 233 q 604 232 603 233 q 622 231 606 229 q 650 238 639 233 q 658 238 657 239 q 653 225 658 238 q 536 78 610 140 q 381 3 468 19 q 330 0 367 0 q 281 3 293 0 q 133 86 193 21 q 67 200 90 133 q 42 365 40 278 q 71 522 44 447 q 203 713 114 636 q 378 797 288 788 m 443 707 q 364 692 401 714 q 328 661 350 683 q 290 617 306 639 q 210 444 249 557 q 193 368 200 415 q 210 154 176 244 q 239 97 224 117 q 278 67 254 78 q 368 67 325 44 q 465 158 417 90 q 533 292 501 208 q 565 386 556 351 q 564 599 594 508 q 526 664 549 640 q 443 707 492 699 z "},"":{"ha":694,"x_min":42,"x_max":832,"o":"m 489 1133 q 535 1113 515 1133 q 556 1065 556 1092 q 536 1017 556 1038 q 489 997 517 997 q 440 1017 460 997 q 419 1067 419 1038 q 440 1114 419 1094 q 489 1133 460 1133 m 767 1133 q 813 1113 793 1133 q 832 1065 832 1092 q 813 1017 832 1038 q 765 997 793 997 q 718 1017 738 997 q 699 1067 699 1038 q 719 1114 699 1094 q 767 1133 739 1133 m 378 797 q 399 799 383 799 q 515 767 460 799 q 647 656 611 710 q 667 617 661 636 q 657 547 678 586 l 653 536 q 682 565 665 543 l 689 572 q 703 517 694 567 q 706 461 708 481 q 663 396 700 425 q 658 390 656 390 q 667 393 660 390 q 697 410 682 399 q 705 415 704 415 q 705 411 706 415 q 700 375 704 407 q 681 292 692 317 q 622 240 667 263 q 604 233 606 233 q 604 232 603 233 q 622 231 606 229 q 650 238 639 233 q 658 238 657 239 q 653 225 658 238 q 536 78 610 140 q 381 3 468 19 q 330 0 367 0 q 281 3 293 0 q 133 86 193 21 q 67 200 90 133 q 42 365 40 278 q 71 522 44 447 q 203 713 114 636 q 378 797 288 788 m 443 707 q 364 692 401 714 q 328 661 350 683 q 290 617 306 639 q 210 444 249 557 q 193 368 200 415 q 210 154 176 244 q 239 97 224 117 q 278 67 254 78 q 368 67 325 44 q 465 158 417 90 q 533 292 501 208 q 565 386 556 351 q 564 599 594 508 q 526 664 549 640 q 443 707 492 699 z "},"":{"ha":782,"x_min":53,"x_max":732,"o":"m 325 351 l 53 625 l 119 690 l 393 417 l 665 690 l 732 625 l 458 351 l 732 78 l 665 10 l 393 285 l 119 10 l 53 78 l 325 351 z "},"":{"ha":1000,"x_min":83,"x_max":971,"o":"m 83 310 q 137 540 83 425 q 273 738 190 654 q 457 873 356 821 q 651 925 558 925 q 796 896 728 925 l 868 1003 l 929 1003 l 840 868 q 971 599 971 774 q 921 369 971 483 q 790 168 871 254 q 603 28 710 82 q 390 -25 497 -25 q 260 4 336 -25 l 157 -146 l 96 -146 l 215 31 q 83 310 83 126 m 644 879 q 466 809 549 879 q 334 636 383 739 q 258 429 285 533 q 231 244 231 325 q 264 104 231 163 l 758 842 q 644 879 708 879 m 408 21 q 560 70 489 21 q 678 194 631 119 q 760 358 725 269 q 810 525 794 447 q 826 660 826 603 q 792 797 826 735 l 299 61 q 408 21 340 21 z "},"":{"ha":597,"x_min":15,"x_max":726,"o":"m 683 978 l 490 1125 q 464 1169 464 1144 q 478 1203 464 1189 q 513 1217 492 1217 q 565 1186 540 1217 l 726 978 l 683 978 m 272 768 q 300 769 300 769 q 294 764 300 768 q 264 719 272 751 q 256 674 261 708 q 210 472 250 639 q 166 288 169 304 q 154 240 163 271 q 139 140 139 181 q 142 106 139 117 q 159 72 147 83 q 193 54 171 60 q 263 53 225 46 q 325 85 304 63 q 353 136 340 100 q 386 246 365 168 q 404 307 392 267 q 435 431 422 369 q 476 603 472 592 q 500 617 481 610 q 545 634 535 628 q 558 649 556 640 l 556 647 q 535 636 549 640 q 511 635 521 632 q 496 647 500 638 q 494 680 490 660 q 510 715 499 700 q 596 763 533 750 q 624 766 606 764 q 653 769 642 768 q 667 768 665 769 q 661 764 667 767 q 642 746 647 757 q 622 678 631 731 q 608 606 615 625 q 588 567 600 581 q 539 532 575 554 l 533 529 l 542 529 q 579 540 560 531 q 592 544 592 546 q 582 496 593 539 q 531 435 572 461 q 522 428 526 431 q 517 425 518 426 l 514 422 q 525 424 515 422 q 561 435 549 428 q 566 438 565 438 q 567 433 567 438 q 563 408 565 429 q 555 371 560 382 q 538 347 550 360 q 497 322 526 335 l 525 325 l 529 325 q 545 328 544 329 q 538 306 546 328 q 506 200 522 263 q 459 88 485 125 q 386 28 433 51 q 243 0 329 0 q 132 17 181 0 q 18 122 39 49 q 15 165 15 138 q 32 267 14 203 q 44 318 43 308 q 78 469 49 342 q 110 603 107 596 q 143 619 114 610 q 190 649 188 636 q 190 650 192 651 l 186 646 q 172 638 181 640 q 144 635 154 632 q 126 665 126 639 q 140 710 126 688 q 171 743 153 732 q 272 768 207 764 z "},"":{"ha":597,"x_min":15,"x_max":867,"o":"m 557 981 l 781 1201 q 818 1217 796 1217 q 852 1201 838 1217 q 867 1167 867 1186 q 844 1129 867 1139 l 606 981 l 557 981 m 272 768 q 300 769 300 769 q 294 764 300 768 q 264 719 272 751 q 256 674 261 708 q 210 472 250 639 q 166 288 169 304 q 154 240 163 271 q 139 140 139 181 q 142 106 139 117 q 159 72 147 83 q 193 54 171 60 q 263 53 225 46 q 325 85 304 63 q 353 136 340 100 q 386 246 365 168 q 404 307 392 267 q 435 431 422 369 q 476 603 472 592 q 500 617 481 610 q 545 634 535 628 q 558 649 556 640 l 556 647 q 535 636 549 640 q 511 635 521 632 q 496 647 500 638 q 494 680 490 660 q 510 715 499 700 q 596 763 533 750 q 624 766 606 764 q 653 769 642 768 q 667 768 665 769 q 661 764 667 767 q 642 746 647 757 q 622 678 631 731 q 608 606 615 625 q 588 567 600 581 q 539 532 575 554 l 533 529 l 542 529 q 579 540 560 531 q 592 544 592 546 q 582 496 593 539 q 531 435 572 461 q 522 428 526 431 q 517 425 518 426 l 514 422 q 525 424 515 422 q 561 435 549 428 q 566 438 565 438 q 567 433 567 438 q 563 408 565 429 q 555 371 560 382 q 538 347 550 360 q 497 322 526 335 l 525 325 l 529 325 q 545 328 544 329 q 538 306 546 328 q 506 200 522 263 q 459 88 485 125 q 386 28 433 51 q 243 0 329 0 q 132 17 181 0 q 18 122 39 49 q 15 165 15 138 q 32 267 14 203 q 44 318 43 308 q 78 469 49 342 q 110 603 107 596 q 143 619 114 610 q 190 649 188 636 q 190 650 192 651 l 186 646 q 172 638 181 640 q 144 635 154 632 q 126 665 126 639 q 140 710 126 688 q 171 743 153 732 q 272 768 207 764 z "},"":{"ha":597,"x_min":15,"x_max":832,"o":"m 710 1213 l 832 978 l 782 978 l 668 1122 l 478 978 l 424 978 l 642 1213 l 710 1213 m 272 768 q 300 769 300 769 q 294 764 300 768 q 264 719 272 751 q 256 674 261 708 q 210 472 250 639 q 166 288 169 304 q 154 240 163 271 q 139 140 139 181 q 142 106 139 117 q 159 72 147 83 q 193 54 171 60 q 263 53 225 46 q 325 85 304 63 q 353 136 340 100 q 386 246 365 168 q 404 307 392 267 q 435 431 422 369 q 476 603 472 592 q 500 617 481 610 q 545 634 535 628 q 558 649 556 640 l 556 647 q 535 636 549 640 q 511 635 521 632 q 496 647 500 638 q 494 680 490 660 q 510 715 499 700 q 596 763 533 750 q 624 766 606 764 q 653 769 642 768 q 667 768 665 769 q 661 764 667 767 q 642 746 647 757 q 622 678 631 731 q 608 606 615 625 q 588 567 600 581 q 539 532 575 554 l 533 529 l 542 529 q 579 540 560 531 q 592 544 592 546 q 582 496 593 539 q 531 435 572 461 q 522 428 526 431 q 517 425 518 426 l 514 422 q 525 424 515 422 q 561 435 549 428 q 566 438 565 438 q 567 433 567 438 q 563 408 565 429 q 555 371 560 382 q 538 347 550 360 q 497 322 526 335 l 525 325 l 529 325 q 545 328 544 329 q 538 306 546 328 q 506 200 522 263 q 459 88 485 125 q 386 28 433 51 q 243 0 329 0 q 132 17 181 0 q 18 122 39 49 q 15 165 15 138 q 32 267 14 203 q 44 318 43 308 q 78 469 49 342 q 110 603 107 596 q 143 619 114 610 q 190 649 188 636 q 190 650 192 651 l 186 646 q 172 638 181 640 q 144 635 154 632 q 126 665 126 639 q 140 710 126 688 q 171 743 153 732 q 272 768 207 764 z "},"":{"ha":597,"x_min":15,"x_max":856,"o":"m 513 1133 q 559 1113 539 1133 q 579 1065 579 1092 q 560 1017 579 1038 q 513 997 540 997 q 463 1017 483 997 q 443 1067 443 1038 q 463 1114 443 1094 q 513 1133 483 1133 m 790 1133 q 836 1113 817 1133 q 856 1065 856 1092 q 836 1017 856 1038 q 789 997 817 997 q 742 1017 761 997 q 722 1067 722 1038 q 742 1114 722 1094 q 790 1133 763 1133 m 272 768 q 300 769 300 769 q 294 764 300 768 q 264 719 272 751 q 256 674 261 708 q 210 472 250 639 q 166 288 169 304 q 154 240 163 271 q 139 140 139 181 q 142 106 139 117 q 159 72 147 83 q 193 54 171 60 q 263 53 225 46 q 325 85 304 63 q 353 136 340 100 q 386 246 365 168 q 404 307 392 267 q 435 431 422 369 q 476 603 472 592 q 500 617 481 610 q 545 634 535 628 q 558 649 556 640 l 556 647 q 535 636 549 640 q 511 635 521 632 q 496 647 500 638 q 494 680 490 660 q 510 715 499 700 q 596 763 533 750 q 624 766 606 764 q 653 769 642 768 q 667 768 665 769 q 661 764 667 767 q 642 746 647 757 q 622 678 631 731 q 608 606 615 625 q 588 567 600 581 q 539 532 575 554 l 533 529 l 542 529 q 579 540 560 531 q 592 544 592 546 q 582 496 593 539 q 531 435 572 461 q 522 428 526 431 q 517 425 518 426 l 514 422 q 525 424 515 422 q 561 435 549 428 q 566 438 565 438 q 567 433 567 438 q 563 408 565 429 q 555 371 560 382 q 538 347 550 360 q 497 322 526 335 l 525 325 l 529 325 q 545 328 544 329 q 538 306 546 328 q 506 200 522 263 q 459 88 485 125 q 386 28 433 51 q 243 0 329 0 q 132 17 181 0 q 18 122 39 49 q 15 165 15 138 q 32 267 14 203 q 44 318 43 308 q 78 469 49 342 q 110 603 107 596 q 143 619 114 610 q 190 649 188 636 q 190 650 192 651 l 186 646 q 172 638 181 640 q 144 635 154 632 q 126 665 126 639 q 140 710 126 688 q 171 743 153 732 q 272 768 207 764 z "},"":{"ha":694,"x_min":15,"x_max":875,"o":"m 565 981 l 789 1201 q 826 1217 804 1217 q 860 1201 846 1217 q 875 1167 875 1186 q 853 1129 875 1139 l 614 981 l 565 981 m 310 -192 q 418 -101 379 -161 q 574 276 454 -47 q 625 410 599 344 q 676 542 651 475 q 703 605 697 593 q 718 626 710 617 q 725 629 724 631 q 740 624 731 624 q 776 636 756 624 q 814 669 797 649 q 844 715 832 689 q 861 756 861 749 q 850 753 861 757 q 778 742 828 743 q 731 738 740 740 q 692 715 707 731 l 681 704 l 650 642 q 553 425 581 503 q 506 289 542 393 q 385 -24 428 64 q 278 -153 338 -129 q 200 -164 239 -168 q 122 -137 139 -158 q 74 1 74 -82 q 90 76 74 43 q 178 142 124 143 q 200 136 192 142 q 236 75 235 119 q 233 60 236 64 q 221 49 226 49 q 222 54 219 49 q 222 88 231 69 q 189 111 210 111 q 159 98 172 111 q 139 63 146 85 q 138 33 138 53 q 149 -19 138 7 q 181 -67 160 -46 l 194 -81 l 197 -69 q 205 -46 199 -54 q 231 -22 211 -37 q 300 86 300 32 q 238 193 300 151 q 194 208 219 206 q 81 164 138 214 q 25 78 42 131 l 21 57 l 15 14 q 18 -53 11 -14 q 44 -117 22 -78 q 117 -189 68 -156 q 217 -217 163 -215 q 310 -192 253 -217 m 76 760 l 75 767 l 81 763 q 147 731 99 746 q 179 728 158 728 q 212 729 200 728 q 258 736 224 731 q 339 744 315 744 q 396 717 369 743 q 417 688 410 704 q 435 625 426 669 q 451 553 440 601 q 493 347 483 414 q 490 271 499 303 q 439 153 482 239 l 417 111 l 413 129 q 347 397 404 188 q 311 536 315 515 q 307 575 310 546 q 293 633 301 617 q 274 661 286 650 l 269 665 l 269 653 q 267 635 269 639 q 235 615 257 621 q 185 618 211 610 q 140 646 161 625 q 76 760 83 707 z "},"":{"ha":847,"x_min":0,"x_max":789,"o":"m 789 513 q 773 422 789 465 q 718 333 757 378 q 599 263 679 289 q 408 236 519 236 q 288 250 333 236 l 263 167 q 246 86 246 104 q 260 42 246 51 q 340 22 275 32 l 340 0 l 0 0 l 0 22 q 78 45 60 29 q 114 124 96 61 l 279 717 q 301 826 301 807 q 283 867 301 856 q 203 885 264 878 l 203 907 l 533 907 l 533 885 q 474 867 492 878 q 447 826 457 856 l 419 721 l 496 721 q 713 667 638 721 q 789 513 789 613 m 397 636 l 299 293 q 371 288 340 288 q 553 321 494 288 q 647 511 647 375 q 596 644 647 608 q 463 678 549 678 q 397 636 407 678 z "},"":{"ha":693,"x_min":-233,"x_max":686,"o":"m 686 761 q 667 674 686 713 q 609 609 647 636 q 540 567 571 582 q 458 533 508 551 l 458 529 q 549 500 518 519 q 608 431 586 474 q 631 340 631 388 q 547 99 631 217 q 336 -18 463 -18 q 255 8 286 -18 q 224 74 224 33 q 240 121 224 103 q 285 139 257 139 q 324 124 310 139 q 338 83 338 108 q 329 51 338 64 q 321 31 321 39 q 328 18 321 24 q 346 13 336 13 q 463 126 415 13 q 511 364 511 240 q 488 467 511 432 q 437 506 465 503 q 385 514 408 510 q 363 533 363 518 q 367 548 363 544 q 385 551 371 551 q 521 621 468 551 q 574 801 574 690 q 489 911 574 911 q 288 608 368 911 l 132 17 q 26 -207 94 -126 q -124 -287 -42 -287 q -203 -264 -174 -287 q -233 -201 -233 -240 q -218 -159 -233 -175 q -179 -143 -203 -143 q -139 -158 -154 -143 q -124 -193 -124 -172 q -132 -224 -124 -208 q -140 -242 -140 -240 q -115 -254 -140 -254 q -31 -200 -64 -254 q 32 -6 1 -146 l 132 438 q 277 824 192 704 q 492 944 363 944 q 632 893 578 944 q 686 761 686 842 z "},"":{"ha":472,"x_min":21,"x_max":508,"o":"m 465 683 l 272 831 q 246 875 246 850 q 260 908 246 894 q 294 922 274 922 q 347 892 322 922 l 508 683 l 465 683 m 213 354 q 256 353 239 358 q 286 303 285 343 l 286 286 l 282 292 q 263 307 276 300 q 212 305 242 317 q 154 265 182 293 q 129 228 135 246 q 118 132 110 174 q 142 94 124 103 q 186 103 161 86 q 218 136 204 114 q 222 150 226 150 q 213 157 217 150 q 211 174 210 164 q 229 200 213 183 q 253 233 247 221 q 258 238 257 242 q 258 207 258 232 q 256 167 257 182 q 244 113 250 131 q 210 47 232 76 q 143 3 182 11 q 96 3 119 -3 q 61 19 75 7 q 22 94 32 43 q 21 133 21 107 q 32 200 22 169 q 77 279 46 243 q 150 336 108 315 q 213 354 179 351 m 456 510 q 481 513 474 513 q 483 511 482 511 q 449 447 454 492 q 426 336 440 372 q 407 301 418 314 q 369 274 397 289 q 354 263 356 264 l 378 267 q 397 274 388 269 q 408 277 407 278 q 404 257 408 276 q 397 231 400 238 q 382 201 390 213 q 340 169 372 189 l 331 164 l 340 165 q 375 175 361 167 q 381 177 379 178 q 381 172 382 176 q 376 139 379 165 q 368 82 372 97 q 346 44 360 50 q 342 42 342 43 q 356 38 342 40 q 424 44 392 29 q 435 49 433 49 q 425 31 436 46 q 385 4 408 10 q 304 7 364 0 q 213 4 244 14 q 200 1 201 1 q 199 10 199 1 q 204 28 199 21 q 225 46 210 36 q 238 60 235 53 q 250 99 242 68 l 271 189 q 303 331 300 325 q 333 347 307 339 q 379 374 376 361 q 376 373 381 376 q 365 365 372 369 q 344 361 358 361 q 328 365 331 361 q 321 392 319 372 q 344 461 321 435 q 392 490 357 474 q 456 510 424 506 m 197 526 q 318 517 207 529 q 389 515 365 511 q 406 521 397 517 q 415 524 415 525 q 408 516 415 522 q 396 507 400 510 q 371 489 390 504 q 319 457 336 464 q 238 464 297 449 q 147 464 178 478 q 129 446 129 456 q 135 444 129 443 q 144 440 142 444 q 133 406 156 426 q 83 381 113 385 q 74 379 76 381 l 71 381 l 74 383 q 92 401 86 389 q 92 421 93 407 q 97 461 90 446 q 197 526 125 515 z "},"":{"ha":472,"x_min":21,"x_max":639,"o":"m 329 686 l 553 907 q 590 922 568 922 q 624 907 610 922 q 639 872 639 892 q 617 835 639 844 l 378 686 l 329 686 m 213 354 q 256 353 239 358 q 286 303 285 343 l 286 286 l 282 292 q 263 307 276 300 q 212 305 242 317 q 154 265 182 293 q 129 228 135 246 q 118 132 110 174 q 142 94 124 103 q 186 103 161 86 q 218 136 204 114 q 222 150 226 150 q 213 157 217 150 q 211 174 210 164 q 229 200 213 183 q 253 233 247 221 q 258 238 257 242 q 258 207 258 232 q 256 167 257 182 q 244 113 250 131 q 210 47 232 76 q 143 3 182 11 q 96 3 119 -3 q 61 19 75 7 q 22 94 32 43 q 21 133 21 107 q 32 200 22 169 q 77 279 46 243 q 150 336 108 315 q 213 354 179 351 m 456 510 q 481 513 474 513 q 483 511 482 511 q 449 447 454 492 q 426 336 440 372 q 407 301 418 314 q 369 274 397 289 q 354 263 356 264 l 378 267 q 397 274 388 269 q 408 277 407 278 q 404 257 408 276 q 397 231 400 238 q 382 201 390 213 q 340 169 372 189 l 331 164 l 340 165 q 375 175 361 167 q 381 177 379 178 q 381 172 382 176 q 376 139 379 165 q 368 82 372 97 q 346 44 360 50 q 342 42 342 43 q 356 38 342 40 q 424 44 392 29 q 435 49 433 49 q 425 31 436 46 q 385 4 408 10 q 304 7 364 0 q 213 4 244 14 q 200 1 201 1 q 199 10 199 1 q 204 28 199 21 q 225 46 210 36 q 238 60 235 53 q 250 99 242 68 l 271 189 q 303 331 300 325 q 333 347 307 339 q 379 374 376 361 q 376 373 381 376 q 365 365 372 369 q 344 361 358 361 q 328 365 331 361 q 321 392 319 372 q 344 461 321 435 q 392 490 357 474 q 456 510 424 506 m 197 526 q 318 517 207 529 q 389 515 365 511 q 406 521 397 517 q 415 524 415 525 q 408 516 415 522 q 396 507 400 510 q 371 489 390 504 q 319 457 336 464 q 238 464 297 449 q 147 464 178 478 q 129 446 129 456 q 135 444 129 443 q 144 440 142 444 q 133 406 156 426 q 83 381 113 385 q 74 379 76 381 l 71 381 l 74 383 q 92 401 86 389 q 92 421 93 407 q 97 461 90 446 q 197 526 125 515 z "},"":{"ha":472,"x_min":21,"x_max":611,"o":"m 489 918 l 611 683 l 561 683 l 447 828 l 257 683 l 203 683 l 421 918 l 489 918 m 213 354 q 256 353 239 358 q 286 303 285 343 l 286 286 l 282 292 q 263 307 276 300 q 212 305 242 317 q 154 265 182 293 q 129 228 135 246 q 118 132 110 174 q 142 94 124 103 q 186 103 161 86 q 218 136 204 114 q 222 150 226 150 q 213 157 217 150 q 211 174 210 164 q 229 200 213 183 q 253 233 247 221 q 258 238 257 242 q 258 207 258 232 q 256 167 257 182 q 244 113 250 131 q 210 47 232 76 q 143 3 182 11 q 96 3 119 -3 q 61 19 75 7 q 22 94 32 43 q 21 133 21 107 q 32 200 22 169 q 77 279 46 243 q 150 336 108 315 q 213 354 179 351 m 456 510 q 481 513 474 513 q 483 511 482 511 q 449 447 454 492 q 426 336 440 372 q 407 301 418 314 q 369 274 397 289 q 354 263 356 264 l 378 267 q 397 274 388 269 q 408 277 407 278 q 404 257 408 276 q 397 231 400 238 q 382 201 390 213 q 340 169 372 189 l 331 164 l 340 165 q 375 175 361 167 q 381 177 379 178 q 381 172 382 176 q 376 139 379 165 q 368 82 372 97 q 346 44 360 50 q 342 42 342 43 q 356 38 342 40 q 424 44 392 29 q 435 49 433 49 q 425 31 436 46 q 385 4 408 10 q 304 7 364 0 q 213 4 244 14 q 200 1 201 1 q 199 10 199 1 q 204 28 199 21 q 225 46 210 36 q 238 60 235 53 q 250 99 242 68 l 271 189 q 303 331 300 325 q 333 347 307 339 q 379 374 376 361 q 376 373 381 376 q 365 365 372 369 q 344 361 358 361 q 328 365 331 361 q 321 392 319 372 q 344 461 321 435 q 392 490 357 474 q 456 510 424 506 m 197 526 q 318 517 207 529 q 389 515 365 511 q 406 521 397 517 q 415 524 415 525 q 408 516 415 522 q 396 507 400 510 q 371 489 390 504 q 319 457 336 464 q 238 464 297 449 q 147 464 178 478 q 129 446 129 456 q 135 444 129 443 q 144 440 142 444 q 133 406 156 426 q 83 381 113 385 q 74 379 76 381 l 71 381 l 74 383 q 92 401 86 389 q 92 421 93 407 q 97 461 90 446 q 197 526 125 515 z "},"":{"ha":472,"x_min":21,"x_max":538,"o":"m 497 888 l 538 888 q 483 773 517 807 q 392 739 450 739 q 282 772 349 739 q 190 804 215 804 q 118 739 146 803 l 79 739 q 219 878 108 878 q 330 847 263 878 q 424 817 397 817 q 465 832 449 817 q 497 888 481 847 m 213 354 q 256 353 239 358 q 286 303 285 343 l 286 286 l 282 292 q 263 307 276 300 q 212 305 242 317 q 154 265 182 293 q 129 228 135 246 q 118 132 110 174 q 142 94 124 103 q 186 103 161 86 q 218 136 204 114 q 222 150 226 150 q 213 157 217 150 q 211 174 210 164 q 229 200 213 183 q 253 233 247 221 q 258 238 257 242 q 258 207 258 232 q 256 167 257 182 q 244 113 250 131 q 210 47 232 76 q 143 3 182 11 q 96 3 119 -3 q 61 19 75 7 q 22 94 32 43 q 21 133 21 107 q 32 200 22 169 q 77 279 46 243 q 150 336 108 315 q 213 354 179 351 m 456 510 q 481 513 474 513 q 483 511 482 511 q 449 447 454 492 q 426 336 440 372 q 407 301 418 314 q 369 274 397 289 q 354 263 356 264 l 378 267 q 397 274 388 269 q 408 277 407 278 q 404 257 408 276 q 397 231 400 238 q 382 201 390 213 q 340 169 372 189 l 331 164 l 340 165 q 375 175 361 167 q 381 177 379 178 q 381 172 382 176 q 376 139 379 165 q 368 82 372 97 q 346 44 360 50 q 342 42 342 43 q 356 38 342 40 q 424 44 392 29 q 435 49 433 49 q 425 31 436 46 q 385 4 408 10 q 304 7 364 0 q 213 4 244 14 q 200 1 201 1 q 199 10 199 1 q 204 28 199 21 q 225 46 210 36 q 238 60 235 53 q 250 99 242 68 l 271 189 q 303 331 300 325 q 333 347 307 339 q 379 374 376 361 q 376 373 381 376 q 365 365 372 369 q 344 361 358 361 q 328 365 331 361 q 321 392 319 372 q 344 461 321 435 q 392 490 357 474 q 456 510 424 506 m 197 526 q 318 517 207 529 q 389 515 365 511 q 406 521 397 517 q 415 524 415 525 q 408 516 415 522 q 396 507 400 510 q 371 489 390 504 q 319 457 336 464 q 238 464 297 449 q 147 464 178 478 q 129 446 129 456 q 135 444 129 443 q 144 440 142 444 q 133 406 156 426 q 83 381 113 385 q 74 379 76 381 l 71 381 l 74 383 q 92 401 86 389 q 92 421 93 407 q 97 461 90 446 q 197 526 125 515 z "},"":{"ha":472,"x_min":21,"x_max":639,"o":"m 296 842 q 342 821 322 842 q 363 774 363 800 q 343 726 363 746 q 296 706 324 706 q 247 726 267 706 q 226 775 226 746 q 247 822 226 803 q 296 842 267 842 m 574 842 q 619 821 600 842 q 639 774 639 800 q 619 726 639 746 q 572 706 600 706 q 525 726 544 706 q 506 775 506 746 q 526 822 506 803 q 574 842 546 842 m 213 354 q 256 353 239 358 q 286 303 285 343 l 286 286 l 282 292 q 263 307 276 300 q 212 305 242 317 q 154 265 182 293 q 129 228 135 246 q 118 132 110 174 q 142 94 124 103 q 186 103 161 86 q 218 136 204 114 q 222 150 226 150 q 213 157 217 150 q 211 174 210 164 q 229 200 213 183 q 253 233 247 221 q 258 238 257 242 q 258 207 258 232 q 256 167 257 182 q 244 113 250 131 q 210 47 232 76 q 143 3 182 11 q 96 3 119 -3 q 61 19 75 7 q 22 94 32 43 q 21 133 21 107 q 32 200 22 169 q 77 279 46 243 q 150 336 108 315 q 213 354 179 351 m 456 510 q 481 513 474 513 q 483 511 482 511 q 449 447 454 492 q 426 336 440 372 q 407 301 418 314 q 369 274 397 289 q 354 263 356 264 l 378 267 q 397 274 388 269 q 408 277 407 278 q 404 257 408 276 q 397 231 400 238 q 382 201 390 213 q 340 169 372 189 l 331 164 l 340 165 q 375 175 361 167 q 381 177 379 178 q 381 172 382 176 q 376 139 379 165 q 368 82 372 97 q 346 44 360 50 q 342 42 342 43 q 356 38 342 40 q 424 44 392 29 q 435 49 433 49 q 425 31 436 46 q 385 4 408 10 q 304 7 364 0 q 213 4 244 14 q 200 1 201 1 q 199 10 199 1 q 204 28 199 21 q 225 46 210 36 q 238 60 235 53 q 250 99 242 68 l 271 189 q 303 331 300 325 q 333 347 307 339 q 379 374 376 361 q 376 373 381 376 q 365 365 372 369 q 344 361 358 361 q 328 365 331 361 q 321 392 319 372 q 344 461 321 435 q 392 490 357 474 q 456 510 424 506 m 197 526 q 318 517 207 529 q 389 515 365 511 q 406 521 397 517 q 415 524 415 525 q 408 516 415 522 q 396 507 400 510 q 371 489 390 504 q 319 457 336 464 q 238 464 297 449 q 147 464 178 478 q 129 446 129 456 q 135 444 129 443 q 144 440 142 444 q 133 406 156 426 q 83 381 113 385 q 74 379 76 381 l 71 381 l 74 383 q 92 401 86 389 q 92 421 93 407 q 97 461 90 446 q 197 526 125 515 z "},"":{"ha":472,"x_min":21,"x_max":483,"o":"m 210 946 q 230 966 210 946 q 308 986 250 986 q 407 946 365 986 q 449 849 449 906 q 407 752 449 793 q 307 711 365 711 q 210 752 249 711 q 171 849 171 793 q 210 946 171 906 m 310 942 q 244 914 271 942 q 217 850 217 886 q 243 785 217 811 q 306 758 269 758 q 370 785 343 758 q 397 849 397 813 q 372 915 397 888 q 310 942 346 942 m 213 354 q 256 353 239 358 q 286 303 285 343 l 286 286 l 282 292 q 263 307 276 300 q 212 305 242 317 q 154 265 182 293 q 129 228 135 246 q 118 132 110 174 q 142 94 124 103 q 186 103 161 86 q 218 136 204 114 q 222 150 226 150 q 213 157 217 150 q 211 174 210 164 q 229 200 213 183 q 253 233 247 221 q 258 238 257 242 q 258 207 258 232 q 256 167 257 182 q 244 113 250 131 q 210 47 232 76 q 143 3 182 11 q 96 3 119 -3 q 61 19 75 7 q 22 94 32 43 q 21 133 21 107 q 32 200 22 169 q 77 279 46 243 q 150 336 108 315 q 213 354 179 351 m 456 510 q 481 513 474 513 q 483 511 482 511 q 449 447 454 492 q 426 336 440 372 q 407 301 418 314 q 369 274 397 289 q 354 263 356 264 l 378 267 q 397 274 388 269 q 408 277 407 278 q 404 257 408 276 q 397 231 400 238 q 382 201 390 213 q 340 169 372 189 l 331 164 l 340 165 q 375 175 361 167 q 381 177 379 178 q 381 172 382 176 q 376 139 379 165 q 368 82 372 97 q 346 44 360 50 q 342 42 342 43 q 356 38 342 40 q 424 44 392 29 q 435 49 433 49 q 425 31 436 46 q 385 4 408 10 q 304 7 364 0 q 213 4 244 14 q 200 1 201 1 q 199 10 199 1 q 204 28 199 21 q 225 46 210 36 q 238 60 235 53 q 250 99 242 68 l 271 189 q 303 331 300 325 q 333 347 307 339 q 379 374 376 361 q 376 373 381 376 q 365 365 372 369 q 344 361 358 361 q 328 365 331 361 q 321 392 319 372 q 344 461 321 435 q 392 490 357 474 q 456 510 424 506 m 197 526 q 318 517 207 529 q 389 515 365 511 q 406 521 397 517 q 415 524 415 525 q 408 516 415 522 q 396 507 400 510 q 371 489 390 504 q 319 457 336 464 q 238 464 297 449 q 147 464 178 478 q 129 446 129 456 q 135 444 129 443 q 144 440 142 444 q 133 406 156 426 q 83 381 113 385 q 74 379 76 381 l 71 381 l 74 383 q 92 401 86 389 q 92 421 93 407 q 97 461 90 446 q 197 526 125 515 z "},"":{"ha":925,"x_min":32,"x_max":889,"o":"m 815 157 l 831 140 q 698 26 771 69 q 560 -17 625 -17 q 453 31 494 -17 q 411 154 411 79 q 419 210 411 183 q 273 31 331 79 q 149 -17 215 -17 q 65 21 99 -17 q 32 115 32 58 q 92 340 32 222 q 245 535 153 457 q 421 613 338 613 q 476 599 457 613 q 513 547 496 585 l 539 607 l 636 610 l 607 522 q 778 613 696 613 q 859 587 829 613 q 889 515 889 561 q 875 453 889 482 q 832 402 861 425 q 774 362 803 379 q 697 327 746 344 q 618 300 649 310 q 533 275 588 290 q 522 192 522 224 q 618 51 522 51 q 815 157 706 51 m 424 583 q 297 505 363 583 q 191 321 232 426 q 150 133 150 215 q 200 56 150 56 q 310 113 260 56 q 435 309 385 193 q 486 515 486 425 q 469 565 486 546 q 424 583 453 583 m 542 310 q 625 336 615 332 q 749 416 701 363 q 797 526 797 469 q 749 578 797 578 q 542 310 631 578 z "},"":{"ha":403,"x_min":28,"x_max":428,"o":"m 106 -135 l 189 0 l 242 0 l 181 -92 q 215 -87 201 -87 q 298 -112 267 -87 q 329 -181 329 -137 q 283 -268 329 -235 q 164 -301 236 -301 q 36 -272 111 -301 l 58 -232 q 154 -253 113 -253 q 226 -196 226 -253 q 208 -152 226 -169 q 163 -135 190 -135 q 117 -144 153 -135 l 106 -135 m 265 506 q 297 508 278 508 q 328 503 318 507 q 354 485 338 500 q 390 467 376 467 q 418 482 403 467 l 428 492 l 426 478 q 408 403 424 436 q 372 372 394 375 q 343 388 353 369 q 342 408 340 394 q 349 428 343 421 l 354 432 l 349 438 q 336 450 344 443 q 283 457 308 471 q 185 339 228 425 q 150 196 150 271 q 163 118 150 147 q 188 81 171 100 q 219 56 204 63 q 246 51 235 49 q 283 75 263 56 q 299 93 299 92 q 293 94 299 94 q 275 128 274 99 q 279 147 275 139 q 304 179 288 167 q 326 194 311 185 q 342 202 342 203 q 341 195 343 201 q 339 158 339 189 q 331 88 339 113 q 301 38 321 58 q 269 14 285 21 q 186 0 242 0 q 139 4 151 1 q 79 40 104 14 q 49 82 61 58 q 32 133 38 106 q 28 183 28 147 q 32 235 29 218 q 74 358 43 300 q 140 444 103 413 q 265 506 193 489 z "},"":{"ha":431,"x_min":32,"x_max":508,"o":"m 465 683 l 272 831 q 246 875 246 850 q 260 908 246 894 q 294 922 274 922 q 347 892 322 922 l 508 683 l 465 683 m 263 506 q 287 506 268 507 q 314 504 306 506 q 386 464 365 496 q 376 429 399 444 l 369 424 q 388 433 376 424 q 399 442 397 442 q 415 411 401 442 q 392 350 435 372 q 381 346 383 346 q 379 344 379 346 q 383 343 379 343 q 394 344 388 343 q 404 347 400 346 q 417 353 411 350 q 423 357 422 357 q 424 349 424 357 q 423 331 424 340 q 422 315 422 321 q 385 249 414 268 q 304 231 363 233 q 260 231 275 229 q 189 249 229 233 q 167 256 169 256 q 161 243 165 256 q 158 97 140 153 q 221 39 175 47 q 266 47 240 36 q 313 79 292 57 l 324 90 l 318 93 q 307 115 307 99 q 319 153 307 131 q 357 190 331 172 q 374 201 374 201 q 373 191 375 201 q 374 169 371 181 q 381 128 381 146 q 367 76 382 99 q 263 8 328 22 q 161 1 206 -6 q 57 64 92 11 q 33 125 42 88 q 32 204 28 157 q 108 415 43 326 q 164 469 133 449 q 247 504 204 499 q 263 506 261 506 m 286 468 q 272 468 279 469 q 224 411 251 461 q 178 306 192 356 l 175 296 l 178 294 q 222 281 200 286 q 249 278 231 279 q 294 288 276 278 q 333 357 333 307 q 315 438 333 399 q 286 468 303 463 z "},"":{"ha":431,"x_min":32,"x_max":639,"o":"m 329 686 l 553 907 q 590 922 568 922 q 624 907 610 922 q 639 872 639 892 q 617 835 639 844 l 378 686 l 329 686 m 263 506 q 287 506 268 507 q 314 504 306 506 q 386 464 365 496 q 376 429 399 444 l 369 424 q 388 433 376 424 q 399 442 397 442 q 415 411 401 442 q 392 350 435 372 q 381 346 383 346 q 379 344 379 346 q 383 343 379 343 q 394 344 388 343 q 404 347 400 346 q 417 353 411 350 q 423 357 422 357 q 424 349 424 357 q 423 331 424 340 q 422 315 422 321 q 385 249 414 268 q 304 231 363 233 q 260 231 275 229 q 189 249 229 233 q 167 256 169 256 q 161 243 165 256 q 158 97 140 153 q 221 39 175 47 q 266 47 240 36 q 313 79 292 57 l 324 90 l 318 93 q 307 115 307 99 q 319 153 307 131 q 357 190 331 172 q 374 201 374 201 q 373 191 375 201 q 374 169 371 181 q 381 128 381 146 q 367 76 382 99 q 263 8 328 22 q 161 1 206 -6 q 57 64 92 11 q 33 125 42 88 q 32 204 28 157 q 108 415 43 326 q 164 469 133 449 q 247 504 204 499 q 263 506 261 506 m 286 468 q 272 468 279 469 q 224 411 251 461 q 178 306 192 356 l 175 296 l 178 294 q 222 281 200 286 q 249 278 231 279 q 294 288 276 278 q 333 357 333 307 q 315 438 333 399 q 286 468 303 463 z "},"":{"ha":431,"x_min":32,"x_max":613,"o":"m 490 918 l 613 683 l 563 683 l 449 828 l 258 683 l 204 683 l 422 918 l 490 918 m 263 506 q 287 506 268 507 q 314 504 306 506 q 386 464 365 496 q 376 429 399 444 l 369 424 q 388 433 376 424 q 399 442 397 442 q 415 411 401 442 q 392 350 435 372 q 381 346 383 346 q 379 344 379 346 q 383 343 379 343 q 394 344 388 343 q 404 347 400 346 q 417 353 411 350 q 423 357 422 357 q 424 349 424 357 q 423 331 424 340 q 422 315 422 321 q 385 249 414 268 q 304 231 363 233 q 260 231 275 229 q 189 249 229 233 q 167 256 169 256 q 161 243 165 256 q 158 97 140 153 q 221 39 175 47 q 266 47 240 36 q 313 79 292 57 l 324 90 l 318 93 q 307 115 307 99 q 319 153 307 131 q 357 190 331 172 q 374 201 374 201 q 373 191 375 201 q 374 169 371 181 q 381 128 381 146 q 367 76 382 99 q 263 8 328 22 q 161 1 206 -6 q 57 64 92 11 q 33 125 42 88 q 32 204 28 157 q 108 415 43 326 q 164 469 133 449 q 247 504 204 499 q 263 506 261 506 m 286 468 q 272 468 279 469 q 224 411 251 461 q 178 306 192 356 l 175 296 l 178 294 q 222 281 200 286 q 249 278 231 279 q 294 288 276 278 q 333 357 333 307 q 315 438 333 399 q 286 468 303 463 z "},"":{"ha":431,"x_min":32,"x_max":638,"o":"m 294 842 q 341 821 321 842 q 361 774 361 800 q 342 726 361 746 q 294 706 322 706 q 245 726 265 706 q 225 775 225 746 q 245 822 225 803 q 294 842 265 842 m 572 842 q 618 821 599 842 q 638 774 638 800 q 618 726 638 746 q 571 706 599 706 q 524 726 543 706 q 504 775 504 746 q 524 822 504 803 q 572 842 544 842 m 263 506 q 287 506 268 507 q 314 504 306 506 q 386 464 365 496 q 376 429 399 444 l 369 424 q 388 433 376 424 q 399 442 397 442 q 415 411 401 442 q 392 350 435 372 q 381 346 383 346 q 379 344 379 346 q 383 343 379 343 q 394 344 388 343 q 404 347 400 346 q 417 353 411 350 q 423 357 422 357 q 424 349 424 357 q 423 331 424 340 q 422 315 422 321 q 385 249 414 268 q 304 231 363 233 q 260 231 275 229 q 189 249 229 233 q 167 256 169 256 q 161 243 165 256 q 158 97 140 153 q 221 39 175 47 q 266 47 240 36 q 313 79 292 57 l 324 90 l 318 93 q 307 115 307 99 q 319 153 307 131 q 357 190 331 172 q 374 201 374 201 q 373 191 375 201 q 374 169 371 181 q 381 128 381 146 q 367 76 382 99 q 263 8 328 22 q 161 1 206 -6 q 57 64 92 11 q 33 125 42 88 q 32 204 28 157 q 108 415 43 326 q 164 469 133 449 q 247 504 204 499 q 263 506 261 506 m 286 468 q 272 468 279 469 q 224 411 251 461 q 178 306 192 356 l 175 296 l 178 294 q 222 281 200 286 q 249 278 231 279 q 294 288 276 278 q 333 357 333 307 q 315 438 333 399 q 286 468 303 463 z "},"":{"ha":383,"x_min":67,"x_max":394,"o":"m 351 683 l 158 831 q 132 875 132 850 q 146 908 132 894 q 181 922 160 922 q 233 892 208 922 l 394 683 l 351 683 m 196 51 q 310 158 229 51 l 325 143 q 224 19 268 56 q 132 -17 181 -17 q 67 63 67 -17 q 97 215 67 89 l 165 463 q 176 522 176 497 q 161 547 176 542 q 89 556 146 553 l 89 578 q 314 613 156 583 l 318 610 l 185 132 q 174 71 174 90 q 180 58 174 64 q 196 51 186 51 z "},"":{"ha":383,"x_min":67,"x_max":524,"o":"m 214 686 l 438 907 q 475 922 453 922 q 509 907 494 922 q 524 872 524 892 q 501 835 524 844 l 263 686 l 214 686 m 196 51 q 310 158 229 51 l 325 143 q 224 19 268 56 q 132 -17 181 -17 q 67 63 67 -17 q 97 215 67 89 l 165 463 q 176 522 176 497 q 161 547 176 542 q 89 556 146 553 l 89 578 q 314 613 156 583 l 318 610 l 185 132 q 174 71 174 90 q 180 58 174 64 q 196 51 186 51 z "},"":{"ha":383,"x_min":67,"x_max":497,"o":"m 375 918 l 497 683 l 447 683 l 333 828 l 143 683 l 89 683 l 307 918 l 375 918 m 196 51 q 310 158 229 51 l 325 143 q 224 19 268 56 q 132 -17 181 -17 q 67 63 67 -17 q 97 215 67 89 l 165 463 q 176 522 176 497 q 161 547 176 542 q 89 556 146 553 l 89 578 q 314 613 156 583 l 318 610 l 185 132 q 174 71 174 90 q 180 58 174 64 q 196 51 186 51 z "},"":{"ha":383,"x_min":17,"x_max":374,"o":"m 301 864 q 351 843 329 864 q 374 794 374 822 q 353 745 374 765 q 301 725 332 725 q 255 746 274 725 q 236 794 236 767 q 256 843 236 822 q 301 864 275 864 m 82 864 q 132 843 110 864 q 154 794 154 822 q 133 745 154 765 q 82 725 113 725 q 35 746 54 725 q 17 794 17 767 q 36 843 17 822 q 82 864 56 864 m 196 51 q 310 158 229 51 l 325 143 q 224 19 268 56 q 132 -17 181 -17 q 67 63 67 -17 q 97 215 67 89 l 165 463 q 176 522 176 497 q 161 547 176 542 q 89 556 146 553 l 89 578 q 314 613 156 583 l 318 610 l 185 132 q 174 71 174 90 q 180 58 174 64 q 196 51 186 51 z "},"":{"ha":693,"x_min":40,"x_max":656,"o":"m 375 800 l 203 708 l 158 751 l 325 838 q 143 918 243 896 l 200 949 q 411 883 319 938 l 543 953 l 588 911 l 463 844 q 539 763 514 796 q 588 682 564 731 q 656 397 656 551 q 622 205 656 296 q 531 58 588 114 q 344 -14 457 -14 q 127 78 214 -14 q 40 310 40 171 q 126 544 40 449 q 336 639 211 639 q 421 622 385 639 q 511 556 457 604 q 466 686 494 635 q 375 800 438 738 m 329 600 q 210 540 256 600 q 165 382 165 479 q 176 266 165 325 q 210 151 188 207 q 272 60 232 96 q 363 25 311 25 q 485 92 442 25 q 529 279 529 160 q 474 510 529 421 q 329 600 418 600 z "},"":{"ha":486,"x_min":-28,"x_max":576,"o":"m 536 888 l 576 888 q 522 773 556 807 q 431 739 489 739 q 321 772 388 739 q 229 804 254 804 q 157 739 185 803 l 118 739 q 258 878 147 878 q 369 847 301 878 q 463 817 436 817 q 503 832 488 817 q 536 888 519 847 m 471 443 q 493 447 490 447 l 497 447 l 492 443 q 476 425 482 436 q 472 396 474 417 q 446 288 468 332 q 394 242 433 264 l 385 233 q 421 243 399 233 q 435 249 433 247 q 436 247 436 249 l 436 244 l 436 240 l 433 232 q 415 179 425 194 q 379 147 406 164 q 363 136 365 139 q 365 135 361 135 l 369 135 q 406 146 390 138 q 414 149 413 149 q 403 100 415 146 q 382 57 394 75 q 347 24 367 38 q 290 1 322 7 q 254 0 281 0 q 217 1 228 0 l 206 4 l 213 7 q 225 14 219 11 q 246 31 232 18 q 264 53 260 44 q 286 110 274 67 q 343 303 339 294 q 369 318 346 310 q 404 336 397 329 q 408 344 408 342 q 404 343 408 346 q 381 332 396 335 q 358 343 368 331 q 351 368 350 353 q 363 397 353 382 q 414 429 374 415 q 471 443 444 439 m 311 503 q 347 501 326 506 q 400 478 371 494 q 432 463 424 465 q 464 457 440 460 q 471 456 468 457 q 476 456 474 456 q 478 454 478 456 q 466 451 476 454 q 439 440 456 447 q 379 422 396 424 q 351 428 360 421 l 347 432 l 351 433 q 356 438 356 435 q 340 446 356 440 q 311 453 324 451 q 288 450 297 453 q 244 424 272 444 q 226 413 226 410 q 244 451 226 422 q 274 483 260 474 q 311 503 293 499 m 222 540 q 240 542 228 542 q 260 543 251 543 q 269 542 268 543 l 264 539 q 235 500 244 529 q 226 454 232 490 q 214 386 221 418 q 192 285 201 338 q 164 160 182 239 q 143 72 146 81 q 115 26 131 42 q 72 4 99 11 q -8 3 42 -4 q -28 7 -26 6 l -24 8 q 22 57 8 14 q 78 294 29 79 q 97 378 94 372 q 129 394 100 385 q 175 419 169 408 l 174 422 q 151 410 165 413 q 126 414 138 408 q 107 435 114 421 q 103 456 103 443 q 107 478 103 469 q 164 525 122 510 q 222 540 185 533 z "},"":{"ha":444,"x_min":43,"x_max":547,"o":"m 504 683 l 311 831 q 285 875 285 850 q 299 908 285 894 q 333 922 313 922 q 386 892 361 922 l 547 683 l 504 683 m 267 504 q 303 506 279 507 q 339 504 326 506 q 403 472 381 494 q 421 440 419 456 q 399 407 422 425 l 392 401 l 397 401 q 425 418 414 404 q 433 423 432 425 q 442 401 433 421 q 449 353 454 368 q 415 322 443 332 l 408 319 l 417 319 q 447 328 432 319 l 454 332 l 456 313 q 449 263 457 278 q 417 242 440 247 l 408 239 l 418 239 q 435 240 426 239 q 445 241 444 242 q 442 231 446 240 q 436 211 439 222 q 385 92 421 142 q 331 38 361 58 q 250 4 294 14 q 144 7 193 -8 q 89 43 114 17 q 53 106 64 69 q 43 186 42 138 q 54 288 43 233 q 100 392 68 349 q 149 444 118 418 q 206 483 179 471 q 267 504 233 499 m 314 451 q 286 454 303 456 q 225 422 253 451 q 175 346 204 401 q 129 222 142 282 q 144 89 114 151 q 175 60 157 65 q 215 61 193 53 q 290 138 258 79 q 328 247 317 183 q 340 339 336 289 q 342 406 344 389 q 314 451 336 440 z "},"":{"ha":444,"x_min":43,"x_max":678,"o":"m 368 686 l 592 907 q 629 922 607 922 q 663 907 649 922 q 678 872 678 892 q 656 835 678 844 l 417 686 l 368 686 m 267 504 q 303 506 279 507 q 339 504 326 506 q 403 472 381 494 q 421 440 419 456 q 399 407 422 425 l 392 401 l 397 401 q 425 418 414 404 q 433 423 432 425 q 442 401 433 421 q 449 353 454 368 q 415 322 443 332 l 408 319 l 417 319 q 447 328 432 319 l 454 332 l 456 313 q 449 263 457 278 q 417 242 440 247 l 408 239 l 418 239 q 435 240 426 239 q 445 241 444 242 q 442 231 446 240 q 436 211 439 222 q 385 92 421 142 q 331 38 361 58 q 250 4 294 14 q 144 7 193 -8 q 89 43 114 17 q 53 106 64 69 q 43 186 42 138 q 54 288 43 233 q 100 392 68 349 q 149 444 118 418 q 206 483 179 471 q 267 504 233 499 m 314 451 q 286 454 303 456 q 225 422 253 451 q 175 346 204 401 q 129 222 142 282 q 144 89 114 151 q 175 60 157 65 q 215 61 193 53 q 290 138 258 79 q 328 247 317 183 q 340 339 336 289 q 342 406 344 389 q 314 451 336 440 z "},"":{"ha":444,"x_min":43,"x_max":651,"o":"m 529 918 l 651 683 l 601 683 l 488 828 l 297 683 l 243 683 l 461 918 l 529 918 m 267 504 q 303 506 279 507 q 339 504 326 506 q 403 472 381 494 q 421 440 419 456 q 399 407 422 425 l 392 401 l 397 401 q 425 418 414 404 q 433 423 432 425 q 442 401 433 421 q 449 353 454 368 q 415 322 443 332 l 408 319 l 417 319 q 447 328 432 319 l 454 332 l 456 313 q 449 263 457 278 q 417 242 440 247 l 408 239 l 418 239 q 435 240 426 239 q 445 241 444 242 q 442 231 446 240 q 436 211 439 222 q 385 92 421 142 q 331 38 361 58 q 250 4 294 14 q 144 7 193 -8 q 89 43 114 17 q 53 106 64 69 q 43 186 42 138 q 54 288 43 233 q 100 392 68 349 q 149 444 118 418 q 206 483 179 471 q 267 504 233 499 m 314 451 q 286 454 303 456 q 225 422 253 451 q 175 346 204 401 q 129 222 142 282 q 144 89 114 151 q 175 60 157 65 q 215 61 193 53 q 290 138 258 79 q 328 247 317 183 q 340 339 336 289 q 342 406 344 389 q 314 451 336 440 z "},"":{"ha":444,"x_min":43,"x_max":576,"o":"m 536 888 l 576 888 q 522 773 556 807 q 431 739 489 739 q 321 772 388 739 q 229 804 254 804 q 157 739 185 803 l 118 739 q 258 878 147 878 q 369 847 301 878 q 463 817 436 817 q 503 832 488 817 q 536 888 519 847 m 267 504 q 303 506 279 507 q 339 504 326 506 q 403 472 381 494 q 421 440 419 456 q 399 407 422 425 l 392 401 l 397 401 q 425 418 414 404 q 433 423 432 425 q 442 401 433 421 q 449 353 454 368 q 415 322 443 332 l 408 319 l 417 319 q 447 328 432 319 l 454 332 l 456 313 q 449 263 457 278 q 417 242 440 247 l 408 239 l 418 239 q 435 240 426 239 q 445 241 444 242 q 442 231 446 240 q 436 211 439 222 q 385 92 421 142 q 331 38 361 58 q 250 4 294 14 q 144 7 193 -8 q 89 43 114 17 q 53 106 64 69 q 43 186 42 138 q 54 288 43 233 q 100 392 68 349 q 149 444 118 418 q 206 483 179 471 q 267 504 233 499 m 314 451 q 286 454 303 456 q 225 422 253 451 q 175 346 204 401 q 129 222 142 282 q 144 89 114 151 q 175 60 157 65 q 215 61 193 53 q 290 138 258 79 q 328 247 317 183 q 340 339 336 289 q 342 406 344 389 q 314 451 336 440 z "},"":{"ha":444,"x_min":43,"x_max":676,"o":"m 333 842 q 380 821 360 842 q 400 774 400 800 q 381 726 400 746 q 333 706 361 706 q 284 726 304 706 q 264 775 264 746 q 284 822 264 803 q 333 842 304 842 m 611 842 q 657 821 638 842 q 676 774 676 800 q 657 726 676 746 q 610 706 638 706 q 563 726 582 706 q 543 775 543 746 q 563 822 543 803 q 611 842 583 842 m 267 504 q 303 506 279 507 q 339 504 326 506 q 403 472 381 494 q 421 440 419 456 q 399 407 422 425 l 392 401 l 397 401 q 425 418 414 404 q 433 423 432 425 q 442 401 433 421 q 449 353 454 368 q 415 322 443 332 l 408 319 l 417 319 q 447 328 432 319 l 454 332 l 456 313 q 449 263 457 278 q 417 242 440 247 l 408 239 l 418 239 q 435 240 426 239 q 445 241 444 242 q 442 231 446 240 q 436 211 439 222 q 385 92 421 142 q 331 38 361 58 q 250 4 294 14 q 144 7 193 -8 q 89 43 114 17 q 53 106 64 69 q 43 186 42 138 q 54 288 43 233 q 100 392 68 349 q 149 444 118 418 q 206 483 179 471 q 267 504 233 499 m 314 451 q 286 454 303 456 q 225 422 253 451 q 175 346 204 401 q 129 222 142 282 q 144 89 114 151 q 175 60 157 65 q 215 61 193 53 q 290 138 258 79 q 328 247 317 183 q 340 339 336 289 q 342 406 344 389 q 314 451 336 440 z "},"":{"ha":782,"x_min":40,"x_max":743,"o":"m 743 306 l 40 306 l 40 397 l 743 397 l 743 306 m 393 717 q 447 693 424 717 q 469 636 469 669 q 446 586 469 608 q 390 564 422 564 q 338 586 360 564 q 315 636 315 608 q 338 694 315 671 q 393 717 361 717 m 393 140 q 447 117 424 140 q 469 61 469 93 q 446 8 469 31 q 390 -14 422 -14 q 338 8 360 -14 q 315 61 315 31 q 338 117 315 93 q 393 140 361 140 z "},"":{"ha":693,"x_min":39,"x_max":651,"o":"m 651 413 q 522 124 651 265 q 244 -17 393 -17 q 218 -12 226 -17 l 132 -187 l 83 -187 l 174 -6 q 89 40 128 8 q 39 181 39 99 q 169 476 39 340 q 450 613 299 613 q 469 610 463 613 l 547 769 l 594 769 l 515 604 q 581 575 558 592 q 622 526 604 558 q 651 413 651 476 m 196 40 l 456 579 q 442 583 447 583 q 310 519 369 583 q 197 340 240 447 q 154 135 154 233 q 196 40 154 82 m 263 14 q 407 94 342 14 q 503 274 472 175 q 535 451 535 372 q 496 564 535 521 l 232 21 q 263 14 249 14 z "},"":{"ha":444,"x_min":21,"x_max":519,"o":"m 476 683 l 283 831 q 257 875 257 850 q 271 908 257 894 q 306 922 285 922 q 358 892 333 922 l 519 683 l 476 683 m 444 510 q 456 511 451 511 q 458 510 460 511 q 453 507 457 508 q 433 483 440 497 q 422 439 426 469 q 401 336 413 371 q 381 299 393 313 q 339 268 368 286 l 328 261 l 335 261 q 371 272 351 264 l 382 276 q 372 229 385 274 q 326 175 363 200 q 308 164 311 167 q 311 163 307 163 l 315 163 q 349 174 335 165 q 355 176 354 176 q 354 167 356 175 q 350 131 353 158 q 321 43 342 56 l 314 40 l 328 36 q 356 33 340 33 q 397 43 376 33 q 410 47 408 47 q 396 25 411 44 q 367 4 383 11 q 283 4 344 -3 q 188 3 219 13 q 174 0 176 0 q 174 6 172 0 q 176 15 174 11 q 177 17 178 17 q 168 14 176 17 q 103 3 131 -4 q 65 24 83 7 q 35 63 46 40 q 21 146 21 94 q 39 264 21 186 q 72 408 67 376 q 58 482 76 436 q 51 501 51 499 q 68 503 51 503 q 114 494 92 501 q 150 472 136 488 q 171 400 171 453 q 147 278 171 364 q 114 132 114 161 q 121 90 114 110 q 143 68 126 74 q 199 76 176 57 q 200 82 206 82 q 188 93 190 82 q 219 138 185 110 q 236 156 232 147 l 239 161 l 240 153 q 233 104 240 142 q 219 56 225 67 q 186 22 211 39 l 210 32 q 222 44 218 36 q 231 82 225 53 q 272 301 254 186 q 281 333 276 328 q 308 346 285 338 q 350 367 342 357 q 354 372 357 374 q 350 371 353 372 q 311 360 335 356 q 299 367 301 361 q 296 389 296 372 q 347 482 296 456 q 444 510 378 499 z "}}}
